<?xml version="1.0" encoding="UTF-8" standalone="no"?>
<!-- Created with Inkscape (http://www.inkscape.org/) -->

<svg
   xmlns:dc="http://purl.org/dc/elements/1.1/"
   xmlns:cc="http://creativecommons.org/ns#"
   xmlns:rdf="http://www.w3.org/1999/02/22-rdf-syntax-ns#"
   xmlns:svg="http://www.w3.org/2000/svg"
   xmlns="http://www.w3.org/2000/svg"
   xmlns:sodipodi="http://sodipodi.sourceforge.net/DTD/sodipodi-0.dtd"
   xmlns:inkscape="http://www.inkscape.org/namespaces/inkscape"
   width="14.906mm"
   height="10.446mm"
   viewBox="0 0 14.906 10.446"
   version="1.1"
   id="svg4723"
   inkscape:version="0.92.1 r15371"
   sodipodi:docname="logoInput.svg">
  <defs
     id="defs4717" />
  <sodipodi:namedview
     id="base"
     pagecolor="#ffffff"
     bordercolor="#666666"
     borderopacity="1.0"
     inkscape:pageopacity="0.0"
     inkscape:pageshadow="2"
     inkscape:zoom="1.979899"
     inkscape:cx="25.602012"
     inkscape:cy="34.833463"
     inkscape:document-units="mm"
     inkscape:current-layer="layer1"
     showgrid="false"
     inkscape:window-width="1366"
     inkscape:window-height="739"
     inkscape:window-x="0"
     inkscape:window-y="0"
     inkscape:window-maximized="1" />
  <metadata
     id="metadata4720">
    <rdf:RDF>
      <cc:Work
         rdf:about="">
        <dc:format>image/svg+xml</dc:format>
        <dc:type
           rdf:resource="http://purl.org/dc/dcmitype/StillImage" />
        <dc:title></dc:title>
      </cc:Work>
    </rdf:RDF>
  </metadata>
  <g
     inkscape:label="Camada 1"
     inkscape:groupmode="layer"
     id="layer1"
     transform="translate(0,-286.554)">
    <path
       inkscape:connector-curvature="0"
       id="path11222"
       d="m 14.862219,290.79393 c -0.02788,0.0293 -0.10197,0.0657 -0.164682,0.081 -0.152376,0.0367 -0.842682,0.0381 -1.018136,0.002 -0.248329,-0.0511 -0.236427,0.012 -0.2372,-1.25893 -4.67e-4,-0.65533 -0.01572,-1.20486 -0.0358,-1.28606 -0.05399,-0.21778 -0.238038,-0.42101 -0.537819,-0.59377 -0.136756,-0.0788 -0.32863,-0.16813 -0.426383,-0.19846 -0.395793,-0.12279 -0.182231,-0.11775 -4.9879653,-0.11775 -4.80574,0 -4.592171,-0.004 -4.987964,0.11775 -0.09775,0.0303 -0.289627,0.11964 -0.426389,0.19846 -0.290153,0.16722 -0.478765,0.37175 -0.537079,0.5824 -0.02248,0.0813 -0.03683,0.58025 -0.03703,1.28742 l -2.35e-4,1.15466 -0.09855,0.0688 -0.09855,0.0688 -0.48806298,0.002 c -0.521913,0.002 -0.668084,-0.02 -0.751367,-0.11074 -0.02618,-0.0286 -0.03411,-0.43899 -0.02592,-1.34261 0.01163,-1.2805 0.01312,-1.30388 0.09046,-1.45182 0.196935,-0.3767 0.468109,-0.63812 0.93036998,-0.89691 0.465698,-0.26072 0.9241,-0.41182 1.516724,-0.49991 l 0.308241,-0.0458 h 4.605348 4.6053493 l 0.308241,0.0458 c 0.592052,0.088 1.048361,0.2391 1.524378,0.50472 0.453873,0.25327 0.72658,0.51693 0.922716,0.8921 0.07744,0.14812 0.07876,0.16964 0.0883,1.44721 0.0082,1.10064 0.0019,1.30493 -0.041,1.35019 z m -0.33375,2.37087 c -0.0319,0.10336 -0.178249,0.22613 -0.339006,0.2844 l -0.13369,0.0484 -1.803615,0.0102 -1.803615,0.0102 -0.01748,1.59298 c -0.01605,1.45959 -0.02261,1.59839 -0.07807,1.65751 -0.07998,0.0853 -0.294564,0.18671 -0.4472523,0.21148 -0.16452,0.0267 -4.738518,0.0267 -4.903031,0 -0.152695,-0.0248 -0.367276,-0.12623 -0.447259,-0.21148 -0.05549,-0.0592 -0.06205,-0.19792 -0.07807,-1.65751 l -0.01755,-1.59298 -1.806214,-0.0102 -1.80621998,-0.0102 -0.1443,-0.0556 c -0.321787,-0.12422 -0.432061,-0.38545 -0.241526,-0.57214 0.114633,-0.1123 6.51664498,-3.83975 6.67369798,-3.88562 0.1556,-0.0455 0.482235,-0.0455 0.637833,0 0.155307,0.0454 6.5601313,3.77368 6.6660123,3.88036 0.09338,0.0941 0.122644,0.19239 0.08935,0.30022 z"
       style="fill:#f6f4f4;fill-opacity:1;stroke-width:0.02674404" />
  </g>
</svg>
