<?xml version="1.0" encoding="UTF-8" standalone="no"?>
<!-- Created with Inkscape (http://www.inkscape.org/) -->

<svg
   xmlns:dc="http://purl.org/dc/elements/1.1/"
   xmlns:cc="http://creativecommons.org/ns#"
   xmlns:rdf="http://www.w3.org/1999/02/22-rdf-syntax-ns#"
   xmlns:svg="http://www.w3.org/2000/svg"
   xmlns="http://www.w3.org/2000/svg"
   xmlns:sodipodi="http://sodipodi.sourceforge.net/DTD/sodipodi-0.dtd"
   xmlns:inkscape="http://www.inkscape.org/namespaces/inkscape"
   width="14.736mm"
   height="14.736mm"
   viewBox="0 0 14.736 14.736"
   version="1.1"
   id="svg4856"
   inkscape:version="0.92.1 r15371"
   sodipodi:docname="logoQrCode.svg">
  <defs
     id="defs4850" />
  <sodipodi:namedview
     id="base"
     pagecolor="#ffffff"
     bordercolor="#666666"
     borderopacity="1.0"
     inkscape:pageopacity="0.0"
     inkscape:pageshadow="2"
     inkscape:zoom="1.979899"
     inkscape:cx="44.52172"
     inkscape:cy="40.068929"
     inkscape:document-units="mm"
     inkscape:current-layer="layer1"
     showgrid="false"
     inkscape:window-width="1024"
     inkscape:window-height="739"
     inkscape:window-x="1366"
     inkscape:window-y="0"
     inkscape:window-maximized="1" />
  <metadata
     id="metadata4853">
    <rdf:RDF>
      <cc:Work
         rdf:about="">
        <dc:format>image/svg+xml</dc:format>
        <dc:type
           rdf:resource="http://purl.org/dc/dcmitype/StillImage" />
        <dc:title></dc:title>
      </cc:Work>
    </rdf:RDF>
  </metadata>
  <g
     inkscape:label="Camada 1"
     inkscape:groupmode="layer"
     id="layer1"
     transform="translate(0,-282.264)">
    <path
       style="fill:#f6f4f4;fill-opacity:1;stroke-width:0.07016905"
       d="m 0,294.54408 v -2.4559 h 2.4559169 2.4559053 v 2.4559 V 297 H 2.4559169 0 Z m 4.21014,0 v -1.75422 H 2.4559169 0.70168228 v 1.75422 1.75424 H 2.4559169 4.21014 Z m -2.8067639,0 v -1.05254 h 1.0525408 1.0525408 v 1.05254 1.05254 H 2.4559169 1.4033761 Z m 4.2101631,1.75424 v -0.7017 H 5.964363 6.3152215 v -0.35084 -0.35085 H 5.964363 5.6135392 v -0.35085 -0.35084 H 5.964363 6.3152215 v 0.35084 0.35085 h 0.3508238 0.3508585 v -0.35085 -0.35084 h 0.3508585 0.3508238 v 0.35084 0.35085 h 0.3508585 0.3508469 v 0.35085 0.35084 h 0.3508469 0.350847 v -0.70169 -0.70169 H 8.7711384 8.4202915 v -0.35084 -0.35086 h 0.7016939 0.7016938 v -0.70168 -0.70168 H 9.4728323 9.1219854 v 0.35083 0.35085 H 8.4202915 7.7185861 v 0.35085 0.35083 H 7.0169038 6.3152215 v -0.35083 -0.35085 H 5.964363 5.6135392 v -1.05254 -1.05254 H 5.2626807 4.9118222 v 0.35086 0.35086 H 4.5609869 4.21014 v -0.35086 -0.35086 h 0.3508469 0.3508353 v -0.35083 -0.35085 H 4.5609869 4.21014 v -0.35086 -0.35083 H 3.5084577 2.8067638 v -0.35085 -0.35085 H 2.4559169 2.10507 v -0.35085 -0.35083 h 0.3508469 0.3508469 v 0.35083 0.35085 H 3.5084577 4.21014 v -0.35085 -0.35083 h 0.7016822 0.701717 v -1.40339 -1.40338 h 1.4033646 1.4033877 v -0.35084 -0.35085 H 7.7185861 7.0169038 v -1.05253 -1.05254 h 0.3508585 0.3508238 v 0.70169 0.70168 h 0.3508585 0.3508469 v -0.70168 -0.70169 h 0.3508469 0.350847 v 0.70169 0.70168 H 8.7711384 8.4202915 v 0.35086 0.35084 h 0.3508469 0.350847 v 0.70169 0.7017 H 8.4202915 7.7185861 v 0.70168 0.70168 H 7.3677623 7.0169038 v -0.35083 -0.35085 H 6.6660453 6.3152215 v 0.70168 0.70171 H 5.964363 5.6135392 v 0.35083 0.35085 H 5.964363 6.3152215 v 0.35085 0.35085 h 0.3508238 0.3508585 v -0.7017 -0.70168 h 1.0525408 1.0525408 v 0.35083 0.35085 h 0.3508469 0.3508469 v -0.35085 -0.35083 h 1.0525178 1.052541 v 0.70168 0.7017 h 0.701705 0.701682 v -0.35085 -0.35085 h -0.350858 -0.350824 v -0.35085 -0.35083 h 0.701682 0.701683 v 0.35083 0.35085 h 0.350847 0.350846 v 1.05253 1.05254 h -0.701693 -0.701683 v -0.35083 -0.35085 h -0.350858 -0.350824 v 0.35085 0.35083 h -1.052541 -1.052541 v 1.05254 1.05254 h 0.350836 0.350847 v -0.35085 -0.35083 h 0.701694 0.701705 v -0.35086 -0.35082 h 0.350824 0.350858 v 0.35082 0.35086 h 0.350836 0.350847 v 1.05253 1.05253 h 0.350847 0.350846 v 0.70169 0.70169 h -0.350846 -0.350847 v -0.35084 -0.35085 h -0.350847 -0.350836 v 0.35085 0.35084 h -0.350858 -0.350824 v -0.35084 -0.35085 h -0.350858 -0.350847 v 0.35085 0.35084 h -0.350836 -0.350858 v -0.35084 -0.35085 h -0.350847 -0.350836 v 0.35085 0.35084 H 9.8236792 9.1219854 v 0.35084 0.35086 H 9.4728323 9.8236792 V 296.64914 297 H 9.4728323 9.1219854 v -0.35086 -0.35082 H 8.4202915 7.7185861 V 296.64914 297 H 7.3677623 7.0169038 v -0.70168 -0.7017 H 6.6660453 6.3152215 v 0.7017 V 297 H 5.964363 5.6135392 Z m 2.1050469,-1.05254 v -0.35085 H 7.3677623 7.0169038 v 0.35085 0.35084 h 0.3508585 0.3508238 z m 5.6135389,-1.75424 v -0.70168 h -1.05254 -1.052541 v 0.35085 0.35083 h -0.350847 -0.350836 v 0.35086 0.35084 h 1.403377 1.403387 z m -6.3152212,-1.05253 v -0.35083 H 6.6660453 6.3152215 v 0.35083 0.35085 h 0.3508238 0.3508585 z m 2.1050816,-0.70169 v -0.35082 h 0.3508469 0.3508469 v -0.35086 -0.35086 H 9.1219854 8.4202915 v -0.35083 -0.35085 h 0.7016939 0.7016938 v -0.35086 -0.35083 H 9.4728323 9.1219854 v -0.35085 -0.35085 H 8.7711384 8.4202915 v 0.7017 0.70169 H 7.7185861 7.0169038 v 0.35085 0.35083 H 6.6660453 6.3152215 v -0.35083 -0.35085 H 5.964363 5.6135392 v -0.35086 -0.35083 H 5.2626807 4.9118222 v -0.35085 -0.35085 H 4.5609869 4.21014 v 0.35085 0.35085 h 0.3508469 0.3508353 v 0.35083 0.35086 h 0.3508585 0.3508585 v 0.35085 0.35083 H 5.964363 6.3152215 v 0.35086 0.35086 h 0.7016823 0.7016823 v 0.35082 0.35086 h 0.7017054 0.7016939 z m -1.4033993,-0.70168 v -0.35086 h 0.3508585 0.3508469 v 0.35086 0.35086 H 8.0694446 7.7185861 Z m 4.2101519,-1.4034 v -0.35083 h -0.701694 -0.701683 v 0.35083 0.35086 h 0.701683 0.701694 z m 2.10507,0 v -0.35083 h -0.350847 -0.350836 v 0.35083 0.35086 h 0.350836 0.350847 z m -3.508447,7.0169 v -0.35082 h 0.350836 0.350847 V 296.64914 297 h -0.350847 -0.350836 z m 1.403377,0 v -0.35082 h 0.350847 0.350858 V 296.64914 297 h -0.350858 -0.350847 z m 1.403387,0 v -0.35082 h 0.350836 0.350847 V 296.64914 297 H 13.682961 13.332125 Z M 0,290.68478 V 289.9831 H 1.0525408 2.10507 v 0.70168 0.70172 H 1.7542231 1.4033761 v -0.35086 -0.35086 H 1.0525408 0.70168228 v 0.35086 0.35086 H 0.3508585 0 Z m 0,-2.10507 v -0.70168 H 0.70168228 1.4033761 v 0.70168 0.7017 H 0.70168228 0 Z m 0,-3.85929 v -2.45592 h 2.4559169 2.4559053 v 2.45592 2.4559 H 2.4559169 0 Z m 4.21014,0 v -1.75423 H 2.4559169 0.70168228 v 1.75423 1.75422 H 2.4559169 4.21014 Z m -2.8067639,0 v -1.05255 h 1.0525408 1.0525408 v 1.05255 1.05254 H 2.4559169 1.4033761 Z m 7.0169154,2.10507 v -0.35085 h 0.3508469 0.350847 v 0.35085 0.35083 H 8.7711384 8.4202915 Z m 1.4033877,-2.10507 v -2.45592 h 2.4559058 2.455916 v 2.45592 2.4559 H 12.279585 9.8236792 Z m 4.2101288,0 v -1.75423 h -1.754223 -1.754224 v 1.75423 1.75422 h 1.754224 1.754223 z m -2.806764,0 v -1.05255 h 1.052541 1.05254 v 1.05255 1.05254 h -1.05254 -1.052541 z m -5.6135048,-1.05255 v -0.70168 H 5.964363 6.3152215 v 0.70168 0.7017 H 5.964363 5.6135392 Z"
       id="path7540"
       inkscape:connector-curvature="0" />
  </g>
</svg>
