<?xml version="1.0" encoding="UTF-8" standalone="no"?>
<!-- Created with Inkscape (http://www.inkscape.org/) -->

<svg
   xmlns:dc="http://purl.org/dc/elements/1.1/"
   xmlns:cc="http://creativecommons.org/ns#"
   xmlns:rdf="http://www.w3.org/1999/02/22-rdf-syntax-ns#"
   xmlns:svg="http://www.w3.org/2000/svg"
   xmlns="http://www.w3.org/2000/svg"
   xmlns:sodipodi="http://sodipodi.sourceforge.net/DTD/sodipodi-0.dtd"
   xmlns:inkscape="http://www.inkscape.org/namespaces/inkscape"
   width="23.802999mm"
   height="23.801001mm"
   viewBox="0 0 23.803001 23.801"
   version="1.1"
   id="svg8"
   inkscape:version="0.92.1 r15371"
   sodipodi:docname="logoBuscar.svg">
  <defs
     id="defs2">
    <marker
       inkscape:isstock="true"
       style="overflow:visible"
       id="marker14674"
       refX="0"
       refY="0"
       orient="auto"
       inkscape:stockid="Arrow1Sstart">
      <path
         transform="matrix(0.2,0,0,0.2,1.2,0)"
         style="fill:#ff0000;fill-opacity:1;fill-rule:evenodd;stroke:#ff0000;stroke-width:1.00000003pt;stroke-opacity:1"
         d="M 0,0 5,-5 -12.5,0 5,5 Z"
         id="path14672"
         inkscape:connector-curvature="0" />
    </marker>
    <marker
       inkscape:isstock="true"
       style="overflow:visible"
       id="marker7930"
       refX="0"
       refY="0"
       orient="auto"
       inkscape:stockid="Arrow1Sstart">
      <path
         transform="matrix(0.2,0,0,0.2,1.2,0)"
         style="fill:#ff0000;fill-opacity:1;fill-rule:evenodd;stroke:#ff0000;stroke-width:1.00000003pt;stroke-opacity:1"
         d="M 0,0 5,-5 -12.5,0 5,5 Z"
         id="path7928"
         inkscape:connector-curvature="0" />
    </marker>
    <marker
       inkscape:stockid="Arrow1Mstart"
       orient="auto"
       refY="0"
       refX="0"
       id="Arrow1Mstart"
       style="overflow:visible"
       inkscape:isstock="true">
      <path
         id="path7532"
         d="M 0,0 5,-5 -12.5,0 5,5 Z"
         style="fill:#ff0000;fill-opacity:1;fill-rule:evenodd;stroke:#ff0000;stroke-width:1.00000003pt;stroke-opacity:1"
         transform="matrix(0.4,0,0,0.4,4,0)"
         inkscape:connector-curvature="0" />
    </marker>
    <marker
       inkscape:stockid="Arrow1Lstart"
       orient="auto"
       refY="0"
       refX="0"
       id="Arrow1Lstart"
       style="overflow:visible"
       inkscape:isstock="true">
      <path
         id="path7526"
         d="M 0,0 5,-5 -12.5,0 5,5 Z"
         style="fill:#ff0000;fill-opacity:1;fill-rule:evenodd;stroke:#ff0000;stroke-width:1.00000003pt;stroke-opacity:1"
         transform="matrix(0.8,0,0,0.8,10,0)"
         inkscape:connector-curvature="0" />
    </marker>
    <clipPath
       clipPathUnits="userSpaceOnUse"
       id="clipPath10008">
      <path
         d="M 0,800 H 800 V 0 H 0 Z"
         id="path10006"
         inkscape:connector-curvature="0" />
    </clipPath>
    <marker
       inkscape:isstock="true"
       style="overflow:visible"
       id="marker14674-3"
       refX="0"
       refY="0"
       orient="auto"
       inkscape:stockid="Arrow1Sstart">
      <path
         inkscape:connector-curvature="0"
         transform="matrix(0.2,0,0,0.2,1.2,0)"
         style="fill:#ff0000;fill-opacity:1;fill-rule:evenodd;stroke:#ff0000;stroke-width:1.00000003pt;stroke-opacity:1"
         d="M 0,0 5,-5 -12.5,0 5,5 Z"
         id="path14672-6" />
    </marker>
  </defs>
  <sodipodi:namedview
     id="base"
     pagecolor="#ffffff"
     bordercolor="#666666"
     borderopacity="1.0"
     inkscape:pageopacity="0.0"
     inkscape:pageshadow="2"
     inkscape:zoom="0.49497475"
     inkscape:cx="426.63233"
     inkscape:cy="370.40061"
     inkscape:document-units="mm"
     inkscape:current-layer="layer1"
     showgrid="false"
     inkscape:window-width="1024"
     inkscape:window-height="739"
     inkscape:window-x="1366"
     inkscape:window-y="0"
     inkscape:window-maximized="1"
     units="mm" />
  <metadata
     id="metadata5">
    <rdf:RDF>
      <cc:Work
         rdf:about="">
        <dc:format>image/svg+xml</dc:format>
        <dc:type
           rdf:resource="http://purl.org/dc/dcmitype/StillImage" />
        <dc:title></dc:title>
      </cc:Work>
    </rdf:RDF>
  </metadata>
  <g
     inkscape:label="Camada 1"
     inkscape:groupmode="layer"
     id="layer1"
     transform="translate(0,-273.19901)">
    <g
       id="g7227"
       transform="translate(0,-27.123063)" />
    <g
       id="g7396"
       transform="translate(0,-1.322938)" />
    <text
       xml:space="preserve"
       style="font-style:normal;font-variant:normal;font-weight:normal;font-stretch:normal;font-size:8.46666622px;line-height:1.25;font-family:Roboto;-inkscape-font-specification:Roboto;letter-spacing:0px;word-spacing:0px;fill:#331709;fill-opacity:1;stroke:none;stroke-width:0.26458332"
       x="94.494049"
       y="28.636915"
       id="text4568"><tspan
         sodipodi:role="line"
         id="tspan4566"
         x="94.494049"
         y="36.04525"
         style="fill:#331709;fill-opacity:1;stroke-width:0.26458332" /></text>
    <path
       style="fill:#000000;stroke-width:0.26458332"
       d=""
       id="path6108"
       inkscape:connector-curvature="0" />
    <path
       style="fill:#000000;stroke-width:0.26458332"
       d=""
       id="path6106"
       inkscape:connector-curvature="0" />
    <g
       transform="matrix(0.35277777,0,0,-0.35277777,303.61818,314.10524)"
       id="g10002"
       style="stroke:#faad19;stroke-opacity:1" />
    <path
       id="path4845"
       style="fill:#f6f4f4;fill-opacity:1;stroke-width:0.02645833"
       d="m 14.1658,289.01999 c -0.29037,-0.29073 -0.52254,-0.53328 -0.51594,-0.539 0.007,-0.006 0.15488,-0.12974 0.32951,-0.27562 0.35899,-0.2999 0.77633,-0.72048 1.08336,-1.09178 0.11432,-0.13824 0.21507,-0.25436 0.22389,-0.25803 0.009,-0.004 0.25396,0.23148 0.54477,0.52255 l 0.52873,0.52923 -0.10559,4.5e-4 c -0.1892,8.2e-4 -0.47161,0.0758 -0.68895,0.18291 -0.47624,0.23471 -0.78647,0.70056 -0.85166,1.27888 l -0.0202,0.17901 z m -8.5294003,-2.60762 c -0.6773,-0.36364 -1.32595,-0.92608 -1.79659,-1.55782 -1.52705,-2.04974 -1.47227,-4.86896 0.13323,-6.85586 0.36619,-0.45318 0.94956,-0.96248 1.45154,-1.26724 0.59716,-0.36254 1.3883,-0.64801 2.05927,-0.74304 0.11465,-0.0162 0.10976,-0.0118 -0.1323,0.11944 -1.23219,0.66817 -2.19078,1.66302 -2.79069,2.89626 -0.3925,0.80686 -0.59697,1.58772 -0.64604,2.46724 -0.065,1.16412 0.1564,2.24357 0.67359,3.28461 0.28804,0.5798 0.59759,1.02518 1.07311,1.54404 0.11669,0.12733 0.20834,0.23131 0.20366,0.23106 -0.005,-2.3e-4 -0.10764,-0.0536 -0.22878,-0.11869 z m 3.4614,1.812 c 0.9708303,-0.11745 1.9123603,-0.44247 2.7384403,-0.94534 0.85343,-0.51951 1.7106,-1.37776 2.24243,-2.24525 1.37491,-2.24269 1.30852,-5.12786 -0.16798,-7.29967 -0.95118,-1.39911 -2.34866,-2.37682 -3.9662203,-2.77487 -0.52391,-0.12892 -0.85538,-0.1741 -1.41552,-0.19293 -1.13333,-0.0381 -2.16034,0.18115 -3.175,0.67783 -2.4087,1.17905 -3.87773,3.61651 -3.78801,6.28518 0.0186,0.55476 0.0637,0.88492 0.19334,1.41552 0.63906,2.61653 2.83036,4.6252 5.49967,5.04133 0.58769,0.0916 1.27866,0.10597 1.83885,0.0382 z m -1.23031,1.58659 c -1.57142,-0.0819 -3.08353,-0.60709 -4.36562,-1.5162 -0.56827,-0.40294 -1.23467,-1.02977 -1.6636,-1.56482 -1.92627996,-2.40285 -2.37386996,-5.63062 -1.17588996,-8.47989 0.83625996,-1.98896 2.54441996,-3.65781 4.55927996,-4.45434 3.11557,-1.23167 6.5834603,-0.5255 8.9452803,1.82154 0.96397,0.95795 1.62329,2.02631 2.0493,3.32072 0.70831,2.15216 0.48279,4.57427 -0.61131,6.56546 -1.54392,2.80986 -4.53412,4.47454 -7.7374403,4.30753 z m 14.0493803,7.16052 c -0.2198,-0.051 -0.392,-0.1299 -0.58032,-0.26574 -0.0883,-0.0637 -1.47711,-1.43536 -3.08627,-3.04818 -2.69985,-2.70598 -2.93308,-2.94671 -3.02061,-3.11762 -0.12735,-0.24864 -0.17874,-0.46306 -0.17874,-0.7457 0,-0.43097 0.14865,-0.79255 0.44952,-1.09342 0.30211,-0.30211 0.66228,-0.44952 1.09829,-0.44952 0.28733,0 0.486,0.0477 0.7384,0.17714 0.17403,0.0893 0.40122,0.30945 3.13228,3.03534 1.92142,1.9178 2.98581,2.99905 3.06311,3.11166 0.48471,0.70607 0.29995,1.67265 -0.41203,2.1556 -0.10902,0.0739 -0.28156,0.1618 -0.38343,0.19524 -0.2335,0.0766 -0.59824,0.0967 -0.8202,0.0452 z"
       inkscape:connector-curvature="0" />
  </g>
</svg>
