<?xml version="1.0" encoding="UTF-8" standalone="no"?>
<!-- Created with Inkscape (http://www.inkscape.org/) -->

<svg
   xmlns:dc="http://purl.org/dc/elements/1.1/"
   xmlns:cc="http://creativecommons.org/ns#"
   xmlns:rdf="http://www.w3.org/1999/02/22-rdf-syntax-ns#"
   xmlns:svg="http://www.w3.org/2000/svg"
   xmlns="http://www.w3.org/2000/svg"
   xmlns:sodipodi="http://sodipodi.sourceforge.net/DTD/sodipodi-0.dtd"
   xmlns:inkscape="http://www.inkscape.org/namespaces/inkscape"
   width="14.575mm"
   height="12.344mm"
   viewBox="0 0 14.575 12.344"
   version="1.1"
   id="svg4856"
   inkscape:version="0.92.1 r15371"
   sodipodi:docname="logoComparar.svg">
  <defs
     id="defs4850" />
  <sodipodi:namedview
     id="base"
     pagecolor="#ffffff"
     bordercolor="#666666"
     borderopacity="1.0"
     inkscape:pageopacity="0.0"
     inkscape:pageshadow="2"
     inkscape:zoom="1.979899"
     inkscape:cx="44.52172"
     inkscape:cy="40.068929"
     inkscape:document-units="mm"
     inkscape:current-layer="layer1"
     showgrid="false"
     inkscape:window-width="1024"
     inkscape:window-height="739"
     inkscape:window-x="1366"
     inkscape:window-y="0"
     inkscape:window-maximized="1" />
  <metadata
     id="metadata4853">
    <rdf:RDF>
      <cc:Work
         rdf:about="">
        <dc:format>image/svg+xml</dc:format>
        <dc:type
           rdf:resource="http://purl.org/dc/dcmitype/StillImage" />
        <dc:title></dc:title>
      </cc:Work>
    </rdf:RDF>
  </metadata>
  <g
     inkscape:label="Camada 1"
     inkscape:groupmode="layer"
     id="layer1"
     transform="translate(0,-284.656)">
    <path
       id="path7974"
       style="fill:#331709;fill-opacity:1;stroke-width:0.03354442"
       d="m 6.9146225,296.93043 -0.08834,-0.0696 v -4.99325 -4.99324 l 0.08834,-0.0694 c 0.088208,-0.0694 0.095953,-0.0694 3.7920435,-0.0694 h 3.703665 l 0.0823,0.0823 0.0823,0.0823 v 3.94181 3.94184 l -0.109079,0.12483 c -0.05999,0.0686 -0.139164,0.15679 -0.176102,0.19605 -0.03688,0.0391 -0.361431,0.4024 -0.721182,0.80719 -0.359752,0.40478 -0.731054,0.81522 -0.82513,0.91208 L 12.572472,297 H 9.7877103 c -2.7664895,0 -2.7853651,-4.9e-4 -2.8731666,-0.0694 z m 4.8426565,-1.72509 c 0.01785,-1.14709 0.02546,-1.19747 0.188716,-1.25953 0.0462,-0.0176 0.46039,-0.032 0.920426,-0.032 h 0.836418 v -3.25398 -3.25398 l -3.027374,0.009 -3.0273868,0.009 -0.00919,4.3943 c -0.00525,2.4169 -0.00131,4.41333 0.00919,4.43652 0.013783,0.0333 0.4416198,0.0404 2.0548497,0.0336 l 2.0387701,-0.009 z m -2.0166394,-2.10493 c -1.0195425,-0.7711 -1.4173862,-1.0978 -1.4325076,-1.17636 -0.015489,-0.0855 0.1043537,-0.19404 1.3621771,-1.22488 0.3188893,-0.26135 0.6014979,-0.47519 0.6279999,-0.47519 0.03912,0 0.05001,0.0869 0.05762,0.46125 l 0.0092,0.46122 1.324991,0.009 c 1.198072,0.009 1.32902,0.0138 1.366942,0.0651 0.02993,0.0403 0.04187,0.23068 0.04187,0.66433 0,0.43368 -0.01181,0.62398 -0.04187,0.66435 -0.0378,0.0509 -0.166835,0.0574 -1.333405,0.0651 l -1.291453,0.009 -0.01733,0.42617 c -0.0092,0.23438 -0.03255,0.44193 -0.05198,0.46123 -0.02455,0.0244 -0.21342,-0.0998 -0.6228673,-0.40938 z M 0.07915132,294.85608 0,294.79215 v -5.00404 -5.00407 l 0.07915132,-0.0642 c 0.07691985,-0.0622 0.18601216,-0.0639 3.76856098,-0.0639 3.6760997,0 3.6897247,2.3e-4 3.7867934,0.0694 l 0.097397,0.0693 v 0.75245 0.88802 l -0.8721478,0.0105 v -0.57892 -0.54079 l -3.027387,0.009 -3.02738697,0.009 -0.009188,4.41947 -0.009188,4.41948 H 2.8716046 4.9565921 l -0.018902,-1.00784 c -0.010501,-0.59911 -0.00525,-1.05484 0.013783,-1.12368 0.054474,-0.19748 0.1339665,-0.21659 0.8993585,-0.21659 h 0.6725499 v 1.11661 1.11662 l -0.3410989,0.3845 c -0.1876004,0.21147 -0.37251,0.40283 -0.4109305,0.42523 -0.053293,0.0311 -0.7298723,0.0411 -2.841913,0.0419 -2.68034195,9.7e-4 -2.77469348,-9.7e-4 -2.85125892,-0.0629 z m 4.13063558,-4.29665 v -0.46963 h -1.342829 c -1.2473618,0 -1.3445486,-0.004 -1.3669551,-0.0587 -0.033735,-0.0822 -0.030322,-1.3383 0.00394,-1.3725 0.01562,-0.0156 0.6153851,-0.0323 1.3334044,-0.0375 l 1.3054717,-0.009 v -0.436 c 0,-0.35135 0.00919,-0.43965 0.048961,-0.4548 0.043973,-0.0173 0.2262442,0.10619 0.6530706,0.4402 0.07075,0.0553 0.2379265,0.18367 0.3716568,0.28515 0.454641,0.34498 0.9555782,0.74802 0.9966109,0.80179 0.022446,0.0294 0.041348,0.0702 0.041873,0.0906 0.00131,0.0601 -0.2043889,0.25755 -0.5042582,0.48289 -0.061431,0.0462 -0.1576595,0.12338 -0.2140499,0.17202 -0.56838,0.48835 -1.245826,1.03568 -1.281897,1.03568 -0.035441,0 -0.045023,-0.0996 -0.045023,-0.46961 z"
       inkscape:connector-curvature="0" />
  </g>
</svg>
