<?xml version="1.0" encoding="UTF-8" standalone="no"?>
<!-- Created with Inkscape (http://www.inkscape.org/) -->

<svg
   xmlns:dc="http://purl.org/dc/elements/1.1/"
   xmlns:cc="http://creativecommons.org/ns#"
   xmlns:rdf="http://www.w3.org/1999/02/22-rdf-syntax-ns#"
   xmlns:svg="http://www.w3.org/2000/svg"
   xmlns="http://www.w3.org/2000/svg"
   xmlns:sodipodi="http://sodipodi.sourceforge.net/DTD/sodipodi-0.dtd"
   xmlns:inkscape="http://www.inkscape.org/namespaces/inkscape"
   width="21.709999mm"
   height="25.469999mm"
   viewBox="0 0 21.71 25.469999"
   version="1.1"
   id="svg8"
   inkscape:version="0.92.1 r15371"
   sodipodi:docname="logoClassificador.svg">
  <defs
     id="defs2">
    <marker
       inkscape:isstock="true"
       style="overflow:visible"
       id="marker14674"
       refX="0"
       refY="0"
       orient="auto"
       inkscape:stockid="Arrow1Sstart">
      <path
         transform="matrix(0.2,0,0,0.2,1.2,0)"
         style="fill:#ff0000;fill-opacity:1;fill-rule:evenodd;stroke:#ff0000;stroke-width:1.00000003pt;stroke-opacity:1"
         d="M 0,0 5,-5 -12.5,0 5,5 Z"
         id="path14672"
         inkscape:connector-curvature="0" />
    </marker>
    <marker
       inkscape:isstock="true"
       style="overflow:visible"
       id="marker7930"
       refX="0"
       refY="0"
       orient="auto"
       inkscape:stockid="Arrow1Sstart">
      <path
         transform="matrix(0.2,0,0,0.2,1.2,0)"
         style="fill:#ff0000;fill-opacity:1;fill-rule:evenodd;stroke:#ff0000;stroke-width:1.00000003pt;stroke-opacity:1"
         d="M 0,0 5,-5 -12.5,0 5,5 Z"
         id="path7928"
         inkscape:connector-curvature="0" />
    </marker>
    <marker
       inkscape:stockid="Arrow1Mstart"
       orient="auto"
       refY="0"
       refX="0"
       id="Arrow1Mstart"
       style="overflow:visible"
       inkscape:isstock="true">
      <path
         id="path7532"
         d="M 0,0 5,-5 -12.5,0 5,5 Z"
         style="fill:#ff0000;fill-opacity:1;fill-rule:evenodd;stroke:#ff0000;stroke-width:1.00000003pt;stroke-opacity:1"
         transform="matrix(0.4,0,0,0.4,4,0)"
         inkscape:connector-curvature="0" />
    </marker>
    <marker
       inkscape:stockid="Arrow1Lstart"
       orient="auto"
       refY="0"
       refX="0"
       id="Arrow1Lstart"
       style="overflow:visible"
       inkscape:isstock="true">
      <path
         id="path7526"
         d="M 0,0 5,-5 -12.5,0 5,5 Z"
         style="fill:#ff0000;fill-opacity:1;fill-rule:evenodd;stroke:#ff0000;stroke-width:1.00000003pt;stroke-opacity:1"
         transform="matrix(0.8,0,0,0.8,10,0)"
         inkscape:connector-curvature="0" />
    </marker>
    <clipPath
       clipPathUnits="userSpaceOnUse"
       id="clipPath10008">
      <path
         d="M 0,800 H 800 V 0 H 0 Z"
         id="path10006"
         inkscape:connector-curvature="0" />
    </clipPath>
    <marker
       inkscape:isstock="true"
       style="overflow:visible"
       id="marker14674-3"
       refX="0"
       refY="0"
       orient="auto"
       inkscape:stockid="Arrow1Sstart">
      <path
         inkscape:connector-curvature="0"
         transform="matrix(0.2,0,0,0.2,1.2,0)"
         style="fill:#ff0000;fill-opacity:1;fill-rule:evenodd;stroke:#ff0000;stroke-width:1.00000003pt;stroke-opacity:1"
         d="M 0,0 5,-5 -12.5,0 5,5 Z"
         id="path14672-6" />
    </marker>
  </defs>
  <sodipodi:namedview
     id="base"
     pagecolor="#ffffff"
     bordercolor="#666666"
     borderopacity="1.0"
     inkscape:pageopacity="0.0"
     inkscape:pageshadow="2"
     inkscape:zoom="0.49497475"
     inkscape:cx="785.23648"
     inkscape:cy="370.40061"
     inkscape:document-units="mm"
     inkscape:current-layer="layer1"
     showgrid="false"
     inkscape:window-width="1024"
     inkscape:window-height="739"
     inkscape:window-x="1366"
     inkscape:window-y="0"
     inkscape:window-maximized="1"
     units="mm" />
  <metadata
     id="metadata5">
    <rdf:RDF>
      <cc:Work
         rdf:about="">
        <dc:format>image/svg+xml</dc:format>
        <dc:type
           rdf:resource="http://purl.org/dc/dcmitype/StillImage" />
        <dc:title></dc:title>
      </cc:Work>
    </rdf:RDF>
  </metadata>
  <g
     inkscape:label="Camada 1"
     inkscape:groupmode="layer"
     id="layer1"
     transform="translate(0,-271.53001)">
    <g
       id="g7227"
       transform="translate(0,-27.123063)" />
    <g
       id="g7396"
       transform="translate(0,-1.322938)" />
    <text
       xml:space="preserve"
       style="font-style:normal;font-variant:normal;font-weight:normal;font-stretch:normal;font-size:8.46666622px;line-height:1.25;font-family:Roboto;-inkscape-font-specification:Roboto;letter-spacing:0px;word-spacing:0px;fill:#331709;fill-opacity:1;stroke:none;stroke-width:0.26458332"
       x="94.494049"
       y="28.636915"
       id="text4568"><tspan
         sodipodi:role="line"
         id="tspan4566"
         x="94.494049"
         y="36.04525"
         style="fill:#331709;fill-opacity:1;stroke-width:0.26458332" /></text>
    <path
       style="fill:#faad19;fill-opacity:1;stroke:none;stroke-width:0.324;stroke-miterlimit:4;stroke-dasharray:none;stroke-opacity:1"
       d="m 7.454178,293.53321 0.01424,-2.62821 h 6.593063 l 0.04265,6.09501 z M 0,282.19976 l 0.01875,-2.36612 21.684345,0.19548 0.0074,2.20262 -7.601814,7.55369 -6.701995,-0.007 z m 5.42476,-3.68117 c -0.164785,-0.16479 -0.195491,-0.5893 -0.195491,-2.70291 v -2.50741 l -1.028871,1.02353 c -1.023837,1.01852 -1.274002,1.15884 -1.55859,0.87425 -0.344084,-0.34408 -0.130289,-0.68198 1.393084,-2.20168 1.311053,-1.30791 1.586464,-1.52758 1.836515,-1.46483 0.402843,0.10112 3.214184,2.96455 3.214184,3.27376 0,0.30937 -0.230396,0.54203 -0.536751,0.54203 -0.131017,0 -0.679605,-0.42954 -1.219098,-0.95455 l -0.980893,-0.95455 v 2.43844 c 0,2.05089 -0.03111,2.4695 -0.195482,2.63392 -0.107516,0.10751 -0.271449,0.19547 -0.364304,0.19547 -0.09285,0 -0.256796,-0.088 -0.364303,-0.19547 z m 8.626051,-1.40899 c -0.871347,-0.87328 -1.534638,-1.2955 -1.58427,-1.77887 -0.0176,-0.17106 0.04494,-0.24161 0.127056,-0.32371 0.316268,-0.31627 0.67507,-0.13967 1.592284,0.78371 0.50972,0.51313 0.956146,0.93304 0.992066,0.93311 0.03594,9e-5 0.04887,-1.04163 0.02882,-2.31492 -0.03053,-1.9353 -0.06025,-2.37497 0.102833,-2.62359 0.177776,-0.33331 0.604138,-0.31914 0.841779,-0.0815 0.10605,0.10605 0.149272,0.80696 0.149272,2.55682 0,1.35468 0.04077,2.46306 0.09055,2.46306 0.04977,0 0.520313,-0.42724 1.045579,-0.94942 0.830523,-0.82566 0.997109,-0.93887 1.277825,-0.86842 0.250698,0.063 0.322792,0.15832 0.322792,0.42712 0,0.27784 -0.302703,0.64535 -1.534957,1.86358 -0.844226,0.83463 -1.614746,1.5175 -1.712258,1.5175 -0.09751,0 -0.890216,-0.71451 -1.761571,-1.58779 z"
       id="path4666"
       inkscape:connector-curvature="0"
       sodipodi:nodetypes="cccccccccccccscscccssccscsccsccccccsscsscscc" />
    <path
       style="fill:#000000;stroke-width:0.26458332"
       d=""
       id="path6108"
       inkscape:connector-curvature="0" />
    <path
       style="fill:#000000;stroke-width:0.26458332"
       d=""
       id="path6106"
       inkscape:connector-curvature="0" />
    <g
       transform="matrix(0.35277777,0,0,-0.35277777,303.61818,314.10524)"
       id="g10002"
       style="stroke:#faad19;stroke-opacity:1" />
  </g>
</svg>
