<?xml version="1.0" encoding="UTF-8" standalone="no"?>
<!-- Created with Inkscape (http://www.inkscape.org/) -->

<svg
   xmlns:dc="http://purl.org/dc/elements/1.1/"
   xmlns:cc="http://creativecommons.org/ns#"
   xmlns:rdf="http://www.w3.org/1999/02/22-rdf-syntax-ns#"
   xmlns:svg="http://www.w3.org/2000/svg"
   xmlns="http://www.w3.org/2000/svg"
   xmlns:sodipodi="http://sodipodi.sourceforge.net/DTD/sodipodi-0.dtd"
   xmlns:inkscape="http://www.inkscape.org/namespaces/inkscape"
   width="9.592mm"
   height="11.612mm"
   viewBox="0 0 9.5919999 11.612"
   version="1.1"
   id="svg4723"
   inkscape:version="0.92.1 r15371"
   sodipodi:docname="logoLixeira.svg">
  <defs
     id="defs4717" />
  <sodipodi:namedview
     id="base"
     pagecolor="#ffffff"
     bordercolor="#666666"
     borderopacity="1.0"
     inkscape:pageopacity="0.0"
     inkscape:pageshadow="2"
     inkscape:zoom="1.979899"
     inkscape:cx="25.602012"
     inkscape:cy="34.833463"
     inkscape:document-units="mm"
     inkscape:current-layer="layer1"
     showgrid="false"
     inkscape:window-width="1366"
     inkscape:window-height="739"
     inkscape:window-x="0"
     inkscape:window-y="0"
     inkscape:window-maximized="1" />
  <metadata
     id="metadata4720">
    <rdf:RDF>
      <cc:Work
         rdf:about="">
        <dc:format>image/svg+xml</dc:format>
        <dc:type
           rdf:resource="http://purl.org/dc/dcmitype/StillImage" />
        <dc:title></dc:title>
      </cc:Work>
    </rdf:RDF>
  </metadata>
  <g
     inkscape:label="Camada 1"
     inkscape:groupmode="layer"
     id="layer1"
     transform="translate(0,-285.388)">
    <path
       id="path7636"
       style="fill:#f6f4f4;fill-opacity:1;stroke:#f6f4f4;stroke-width:0.32762125;stroke-miterlimit:4;stroke-dasharray:none;stroke-opacity:1"
       d="m 5.9685994,286.89466 c 0,-0.01 -0.0146,-0.0664 -0.0324,-0.12717 -0.11049,-0.376 -0.40446,-0.68245 -0.78145,-0.81463 -0.18977,-0.0666 -0.54277,-0.0666 -0.73252,0 -0.37699,0.13218 -0.67095,0.43863 -0.78146,0.81463 -0.0178,0.0608 -0.0324,0.11801 -0.0324,0.12717 0,0.01 0.5311,0.0168 1.18019,0.0168 0.64911,0 1.18019,-0.007 1.18019,-0.0168 z m 2.89229,1.53197 c 0.0481,-0.0338 0.11538,-0.10642 0.14926,-0.1612 0.0609,-0.0984 0.0616,-0.1026 0.0616,-0.38758 0,-0.28506 -6.3e-4,-0.28909 -0.0616,-0.38758 -0.0338,-0.0548 -0.10092,-0.12726 -0.14927,-0.16119 l -0.0878,-0.0617 h -3.97455 -3.97456005 l -0.0878,0.0617 c -0.0483,0.0338 -0.11538,0.10642 -0.14928,0.16118 -0.0577,0.0932 -0.0619,0.11442 -0.0686,0.33565 -0.005,0.13535 0.002,0.27249 0.0159,0.32125 0.0315,0.1167 0.13613,0.24718 0.24404,0.30413 l 0.0899,0.0476 3.95248005,-0.006 3.95249,-0.006 z m -2.00808,7.24549 -0.0499,-0.0499 v -2.91227 -2.91227 l 0.0595,-0.0595 c 0.0733,-0.0734 0.14895,-0.0768 0.21615,-0.01 l 0.05,0.0499 v 2.92181 2.92181 l -0.05,0.0499 c -0.0314,0.0316 -0.0732,0.0501 -0.11287,0.0501 -0.0397,0 -0.0813,-0.0185 -0.11287,-0.0501 z m -2.17726,0 -0.0499,-0.0499 v -2.91227 -2.91227 l 0.0595,-0.0595 c 0.0733,-0.0734 0.14894,-0.0768 0.21614,-0.01 l 0.0499,0.0499 v 2.92181 2.92181 l -0.0499,0.0499 c -0.0315,0.0316 -0.0732,0.0501 -0.11287,0.0501 -0.0397,0 -0.0813,-0.0185 -0.11287,-0.0501 z m -2.17725,0 -0.0499,-0.0499 v -2.92181 -2.92181 l 0.0499,-0.0499 c 0.0662,-0.066 0.15961,-0.066 0.22569,0 l 0.0499,0.0499 v 2.92181 2.92181 l -0.0499,0.0499 c -0.0314,0.0314 -0.0732,0.0501 -0.11287,0.0501 -0.0397,0 -0.0813,-0.0184 -0.11287,-0.0501 z m 5.61466,0.8188 c 0.11179,-0.0329 0.28033,-0.2016 0.31336,-0.31337 0.019,-0.0643 0.0247,-0.91986 0.0247,-3.69828 v -3.61452 h -3.65248 -3.6525 v 3.61452 c 0,2.77842 0.006,3.6339 0.0247,3.69828 0.0306,0.10354 0.20095,0.28002 0.30082,0.31149 0.10749,0.0338 6.52685,0.0357 6.64131,8.7e-4 z m -6.70186,0.31783 c -0.28731,-0.0777 -0.50378005,-0.29703 -0.57936005,-0.58733 -0.028,-0.10739 -0.0317,-0.53656 -0.0317,-3.7548 v -3.63351 l -0.13278,-0.0578 c -0.24228,-0.10558 -0.39864,-0.29052 -0.4668,-0.55218 -0.0369,-0.14144 -0.0417,-0.50717 -0.008,-0.66468 0.0527,-0.25222 0.2529,-0.49752 0.48112,-0.58968 l 0.11693,-0.0473 1.23149005,-0.006 1.23148,-0.006 0.0424,-0.17748 c 0.13271,-0.55555 0.55197,-0.98614 1.10645,-1.13643 0.18221,-0.0495 0.59103,-0.0495 0.77323,0 0.59097,0.16017 1.02853,0.64047 1.12858,1.2388 l 0.0128,0.0762 1.19454,2.5e-4 c 1.28672,2.6e-4 1.31496,0.003 1.49565,0.10821 0.0478,0.0279 0.12922,0.0961 0.18096,0.15148 0.17759,0.18986 0.24028,0.37952 0.24028,0.72696 0,0.25387 -0.0345,0.41905 -0.11682,0.55952 -0.0827,0.14104 -0.23022,0.2721 -0.37981,0.33726 l -0.13367,0.0581 -0.006,3.6735 c -0.006,3.465 -0.007,3.67873 -0.0416,3.76509 -0.0886,0.22437 -0.26594,0.40432 -0.48841,0.49563 l -0.10619,0.0437 -3.31674,0.005 c -2.872,0.003 -3.33169,-1.4e-4 -3.42817,-0.0262 z"
       inkscape:connector-curvature="0" />
  </g>
</svg>
