<?xml version="1.0" encoding="UTF-8" standalone="no"?>
<!-- Created with Inkscape (http://www.inkscape.org/) -->

<svg
   xmlns:dc="http://purl.org/dc/elements/1.1/"
   xmlns:cc="http://creativecommons.org/ns#"
   xmlns:rdf="http://www.w3.org/1999/02/22-rdf-syntax-ns#"
   xmlns:svg="http://www.w3.org/2000/svg"
   xmlns="http://www.w3.org/2000/svg"
   xmlns:sodipodi="http://sodipodi.sourceforge.net/DTD/sodipodi-0.dtd"
   xmlns:inkscape="http://www.inkscape.org/namespaces/inkscape"
   width="46.112mm"
   height="36.380001mm"
   viewBox="0 0 46.112002 36.379999"
   version="1.1"
   id="svg8"
   inkscape:version="0.92.1 r15371"
   sodipodi:docname="tcLogoClasscau.svg">
  <defs
     id="defs2" />
  <sodipodi:namedview
     id="base"
     pagecolor="#ffffff"
     bordercolor="#666666"
     borderopacity="1.0"
     inkscape:pageopacity="0.0"
     inkscape:pageshadow="2"
     inkscape:zoom="1.979899"
     inkscape:cx="95.475525"
     inkscape:cy="88.5104"
     inkscape:document-units="mm"
     inkscape:current-layer="layer1"
     showgrid="false"
     inkscape:window-width="1366"
     inkscape:window-height="739"
     inkscape:window-x="0"
     inkscape:window-y="0"
     inkscape:window-maximized="1"
     units="mm" />
  <metadata
     id="metadata5">
    <rdf:RDF>
      <cc:Work
         rdf:about="">
        <dc:format>image/svg+xml</dc:format>
        <dc:type
           rdf:resource="http://purl.org/dc/dcmitype/StillImage" />
        <dc:title></dc:title>
      </cc:Work>
    </rdf:RDF>
  </metadata>
  <g
     inkscape:label="Camada 1"
     inkscape:groupmode="layer"
     id="layer1"
     transform="translate(0,-260.62002)">
    <g
       id="g7227"
       transform="translate(0,-27.123063)" />
    <path
       inkscape:connector-curvature="0"
       d="m 14.172234,291.97598 c 11.516466,1.08119 19.34596,-0.42343 27.889044,-4.54141 m -1.823912,-2.1461 c -8.509073,1.38324 -14.307907,2.23712 -20.753591,2.86736 m -8.956919,5.66244 c 0.509519,0.19706 0.99695,0.37781 1.51144,0.58541 12.577167,5.07496 23.702549,0.82208 33.799305,-7.83037 m -21.273758,-4.4744 c 7.013843,-1.07316 13.268621,-0.76906 17.892888,1.33134 m -15.246074,-6.8736 c 6.324725,-0.25264 12.404875,2.02789 18.494447,6.8366 M 5.1827717,293.4981 C 17.711135,284.33343 23.277966,277.04263 26.972258,266.47256 m -2.807227,-0.22781 c -7.977018,11.07395 -12.088967,16.40654 -20.8971561,26.27454 0.994664,1.7072 1.8282426,0.49244 2.1862039,1.21068 0.4121608,0.82701 1.791723,0.35191 2.3808264,0.12189 1.0869132,-0.42439 1.8969131,-0.8229 2.8357978,-1.22193 12.481935,-5.30487 17.341531,-16.17894 18.362812,-29.43663 M 1.6558947,291.44161 C 7.5970302,277.75226 15.816829,266.59052 24.420399,263.36146 M 3.2678749,292.51929 c -0.6673843,0.11818 -1.2347704,0.10059 -1.6119746,-1.07769 0,0 -1.35678983,0.0331 -1.22675615,-1.01281 C 2.6998923,272.16485 10.954062,262.88792 26.691185,261.03835"
       style="fill:none;stroke:#faad19;stroke-width:0.84279656;stroke-linecap:butt;stroke-linejoin:miter;stroke-miterlimit:4;stroke-dasharray:none;stroke-opacity:1"
       id="path6690" />
  </g>
</svg>
