<?xml version="1.0" encoding="UTF-8" standalone="no"?>
<!-- Created with Inkscape (http://www.inkscape.org/) -->

<svg
   xmlns:dc="http://purl.org/dc/elements/1.1/"
   xmlns:cc="http://creativecommons.org/ns#"
   xmlns:rdf="http://www.w3.org/1999/02/22-rdf-syntax-ns#"
   xmlns:svg="http://www.w3.org/2000/svg"
   xmlns="http://www.w3.org/2000/svg"
   xmlns:sodipodi="http://sodipodi.sourceforge.net/DTD/sodipodi-0.dtd"
   xmlns:inkscape="http://www.inkscape.org/namespaces/inkscape"
   width="14.823mm"
   height="14.837mm"
   viewBox="0 0 14.823 14.837"
   version="1.1"
   id="svg4856"
   inkscape:version="0.92.1 r15371"
   sodipodi:docname="logoInfo.svg">
  <defs
     id="defs4850" />
  <sodipodi:namedview
     id="base"
     pagecolor="#ffffff"
     bordercolor="#666666"
     borderopacity="1.0"
     inkscape:pageopacity="0.0"
     inkscape:pageshadow="2"
     inkscape:zoom="0.7"
     inkscape:cx="359.13777"
     inkscape:cy="235.82091"
     inkscape:document-units="mm"
     inkscape:current-layer="layer1"
     showgrid="false"
     inkscape:window-width="1024"
     inkscape:window-height="739"
     inkscape:window-x="1366"
     inkscape:window-y="0"
     inkscape:window-maximized="1" />
  <metadata
     id="metadata4853">
    <rdf:RDF>
      <cc:Work
         rdf:about="">
        <dc:format>image/svg+xml</dc:format>
        <dc:type
           rdf:resource="http://purl.org/dc/dcmitype/StillImage" />
        <dc:title></dc:title>
      </cc:Work>
    </rdf:RDF>
  </metadata>
  <g
     inkscape:label="Camada 1"
     inkscape:groupmode="layer"
     id="layer1"
     transform="translate(0,-282.163)">
    <g
       id="g5425"
       transform="matrix(2.1504453,0,0,2.1504453,-324.44565,-614.76634)">
      <path
         id="path9492"
         style="fill:#331709;fill-opacity:1;stroke:#331709;stroke-width:0.16939723;stroke-miterlimit:4;stroke-dasharray:none;stroke-opacity:1"
         d="m 154.00209,421.16263 c -0.004,-0.004 -0.009,-0.58375 -0.009,-1.28571 v -1.27632 h 0.33003 0.33002 l -0.003,1.28203 -0.003,1.28205 -0.31712,0.003 c -0.1744,0.002 -0.32135,-5.3e-4 -0.32653,-0.005 z m -0.009,1.00568 v -0.30934 h 0.32997 0.32995 v 0.30934 0.30934 h -0.32995 -0.32997 z m 0.5991,1.31211 c 0.67405,-0.0656 1.2917,-0.34929 1.77622,-0.81585 0.25758,-0.24802 0.43688,-0.49337 0.60029,-0.82137 0.24367,-0.48914 0.3474,-1.04118 0.29564,-1.57321 -0.0656,-0.67405 -0.34929,-1.29168 -0.81586,-1.77622 -0.24763,-0.25719 -0.49339,-0.43689 -0.81995,-0.59957 -0.49153,-0.24489 -1.04092,-0.34828 -1.57463,-0.29636 -0.67404,0.0656 -1.29169,0.34929 -1.77621,0.81585 -0.25757,0.24802 -0.43689,0.49337 -0.6003,0.82139 -0.3467,0.69596 -0.40217,1.48311 -0.15731,2.23236 0.0655,0.20023 0.22188,0.52359 0.33572,0.69399 0.60937,0.91197 1.66919,1.42285 2.73639,1.31899 z m -0.55786,0.41193 c -0.7928,-0.0688 -1.54044,-0.4227 -2.10656,-0.99703 -0.2493,-0.2529 -0.44463,-0.52247 -0.60103,-0.82948 -0.49178,-0.96524 -0.49124,-2.08921 9e-4,-3.05625 0.091,-0.17865 0.24803,-0.42178 0.37512,-0.58083 0.10582,-0.13243 0.36294,-0.39064 0.49563,-0.49768 0.3628,-0.29267 0.81448,-0.52356 1.25797,-0.64302 0.92312,-0.24865 1.93229,-0.0825 2.72217,0.44819 0.21568,0.14489 0.32346,0.23294 0.50691,0.41409 0.44491,0.43929 0.75293,0.97932 0.90119,1.57993 0.0748,0.30316 0.0957,0.48267 0.0952,0.81574 -9e-4,0.54589 -0.1011,0.97816 -0.34121,1.47107 -0.60682,1.2458 -1.92804,1.99502 -3.3069,1.87527 z"
         inkscape:connector-curvature="0" />
    </g>
  </g>
</svg>
