<?xml version="1.0" encoding="UTF-8" standalone="no"?>
<!-- Created with Inkscape (http://www.inkscape.org/) -->

<svg
   xmlns:dc="http://purl.org/dc/elements/1.1/"
   xmlns:cc="http://creativecommons.org/ns#"
   xmlns:rdf="http://www.w3.org/1999/02/22-rdf-syntax-ns#"
   xmlns:svg="http://www.w3.org/2000/svg"
   xmlns="http://www.w3.org/2000/svg"
   xmlns:sodipodi="http://sodipodi.sourceforge.net/DTD/sodipodi-0.dtd"
   xmlns:inkscape="http://www.inkscape.org/namespaces/inkscape"
   width="14.154mm"
   height="11.519mm"
   viewBox="0 0 14.154 11.518999"
   version="1.1"
   id="svg4723"
   inkscape:version="0.92.1 r15371"
   sodipodi:docname="logoImprimirm.svg">
  <defs
     id="defs4717" />
  <sodipodi:namedview
     id="base"
     pagecolor="#ffffff"
     bordercolor="#666666"
     borderopacity="1.0"
     inkscape:pageopacity="0.0"
     inkscape:pageshadow="2"
     inkscape:zoom="1.979899"
     inkscape:cx="-64.049026"
     inkscape:cy="34.833463"
     inkscape:document-units="mm"
     inkscape:current-layer="layer1"
     showgrid="false"
     inkscape:window-width="1024"
     inkscape:window-height="739"
     inkscape:window-x="1366"
     inkscape:window-y="0"
     inkscape:window-maximized="1" />
  <metadata
     id="metadata4720">
    <rdf:RDF>
      <cc:Work
         rdf:about="">
        <dc:format>image/svg+xml</dc:format>
        <dc:type
           rdf:resource="http://purl.org/dc/dcmitype/StillImage" />
        <dc:title></dc:title>
      </cc:Work>
    </rdf:RDF>
  </metadata>
  <g
     inkscape:label="Camada 1"
     inkscape:groupmode="layer"
     id="layer1"
     transform="translate(0,-285.481)">
    <path
       style="fill:#331709;fill-opacity:1;stroke-width:0.02666791"
       d="m 4.143963,296.98249 c -0.6250837,-0.087 -1.242894,-0.54466 -1.4303784,-1.05888 l -0.049688,-0.13635 -0.6054206,-0.0165 c -0.6540111,-0.0174 -0.7757867,-0.0376 -1.07397525,-0.17514 -0.48333184,-0.22358 -0.8281105,-0.64256 -0.93859346,-1.14061 -0.06121037,-0.27615 -0.06121037,-1.20333 0,-1.47948 0.11307334,-0.50974 0.46046083,-0.9241 0.96498591,-1.15097 0.3960331,-0.17816 0.029404,-0.16795 6.0661078,-0.16795 4.860245,0 5.469436,0.005 5.658387,0.0405 0.694249,0.13354 1.231979,0.63369 1.372974,1.27703 0.06094,0.27818 0.06084,1.20542 -2.39e-4,1.48068 -0.110483,0.49806 -0.455271,0.91705 -0.938604,1.14064 -0.298179,0.1379 -0.419954,0.15779 -1.073975,0.17515 l -0.605411,0.0167 -0.0497,0.13636 c -0.123573,0.33895 -0.474324,0.69636 -0.862478,0.87881 -0.438474,0.20616 -0.187678,0.19164 -3.4041831,0.19695 -1.5807864,0.003 -2.9441653,-0.006 -3.02974,-0.0164 z m -1.4304154,-2.18078 c 0.070524,-0.1932 0.2752718,-0.46818 0.4722419,-0.63416 0.185982,-0.15673 0.5765856,-0.34858 0.8235843,-0.40452 0.1220336,-0.0283 0.7268367,-0.0344 3.0676093,-0.0344 2.3407624,0 2.9455649,0.007 3.0675999,0.0344 0.247,0.0557 0.637611,0.24779 0.823583,0.40452 0.196972,0.16599 0.40176,0.44097 0.472236,0.63416 l 0.0498,0.13635 0.467209,0.01 c 0.289577,0.006 0.524981,-0.004 0.619203,-0.0224 0.306301,-0.062 0.584541,-0.31275 0.659053,-0.59533 0.0419,-0.15888 0.0419,-1.06643 0,-1.22529 -0.07178,-0.27221 -0.344409,-0.52608 -0.636753,-0.5929 -0.185808,-0.0419 -10.8579527,-0.0419 -11.0437687,0 -0.2923258,0.0665 -0.56496087,0.32069 -0.63674486,0.5929 -0.0484888,0.1838 -0.0419441,1.08631 0.00922,1.24604 0.0861925,0.27037 0.28241566,0.45931 0.57543276,0.55422 0.1216097,0.0396 0.2219615,0.0456 0.6523701,0.0404 l 0.5086455,-0.007 z m -0.058356,-5.88639 c 0,-1.64943 0.0064,-1.94591 0.043692,-2.11544 0.1130824,-0.50972 0.4604607,-0.92405 0.9649855,-1.15094 0.3807032,-0.17124 0.3146437,-0.16798 3.4130519,-0.16798 2.4403871,0 2.8203383,0.006 3.005316,0.0407 0.54743,0.1053 0.992412,0.42878 1.236072,0.89855 0.178978,0.34504 0.180378,0.36446 0.180378,2.4951 v 1.9182 H 7.0769277 2.655158 Z"
       id="path16537"
       inkscape:connector-curvature="0" />
  </g>
</svg>
