<?xml version="1.0" encoding="UTF-8" standalone="no"?>
<!-- Created with Inkscape (http://www.inkscape.org/) -->

<svg
   xmlns:dc="http://purl.org/dc/elements/1.1/"
   xmlns:cc="http://creativecommons.org/ns#"
   xmlns:rdf="http://www.w3.org/1999/02/22-rdf-syntax-ns#"
   xmlns:svg="http://www.w3.org/2000/svg"
   xmlns="http://www.w3.org/2000/svg"
   xmlns:sodipodi="http://sodipodi.sourceforge.net/DTD/sodipodi-0.dtd"
   xmlns:inkscape="http://www.inkscape.org/namespaces/inkscape"
   width="29.572001mm"
   height="26.475mm"
   viewBox="0 0 29.572002 26.474999"
   version="1.1"
   id="svg8"
   inkscape:version="0.92.1 r15371"
   sodipodi:docname="logoConfiguracoes.svg">
  <defs
     id="defs2">
    <marker
       inkscape:isstock="true"
       style="overflow:visible"
       id="marker14674"
       refX="0"
       refY="0"
       orient="auto"
       inkscape:stockid="Arrow1Sstart">
      <path
         transform="matrix(0.2,0,0,0.2,1.2,0)"
         style="fill:#ff0000;fill-opacity:1;fill-rule:evenodd;stroke:#ff0000;stroke-width:1.00000003pt;stroke-opacity:1"
         d="M 0,0 5,-5 -12.5,0 5,5 Z"
         id="path14672"
         inkscape:connector-curvature="0" />
    </marker>
    <marker
       inkscape:isstock="true"
       style="overflow:visible"
       id="marker7930"
       refX="0"
       refY="0"
       orient="auto"
       inkscape:stockid="Arrow1Sstart">
      <path
         transform="matrix(0.2,0,0,0.2,1.2,0)"
         style="fill:#ff0000;fill-opacity:1;fill-rule:evenodd;stroke:#ff0000;stroke-width:1.00000003pt;stroke-opacity:1"
         d="M 0,0 5,-5 -12.5,0 5,5 Z"
         id="path7928"
         inkscape:connector-curvature="0" />
    </marker>
    <marker
       inkscape:stockid="Arrow1Mstart"
       orient="auto"
       refY="0"
       refX="0"
       id="Arrow1Mstart"
       style="overflow:visible"
       inkscape:isstock="true">
      <path
         id="path7532"
         d="M 0,0 5,-5 -12.5,0 5,5 Z"
         style="fill:#ff0000;fill-opacity:1;fill-rule:evenodd;stroke:#ff0000;stroke-width:1.00000003pt;stroke-opacity:1"
         transform="matrix(0.4,0,0,0.4,4,0)"
         inkscape:connector-curvature="0" />
    </marker>
    <marker
       inkscape:stockid="Arrow1Lstart"
       orient="auto"
       refY="0"
       refX="0"
       id="Arrow1Lstart"
       style="overflow:visible"
       inkscape:isstock="true">
      <path
         id="path7526"
         d="M 0,0 5,-5 -12.5,0 5,5 Z"
         style="fill:#ff0000;fill-opacity:1;fill-rule:evenodd;stroke:#ff0000;stroke-width:1.00000003pt;stroke-opacity:1"
         transform="matrix(0.8,0,0,0.8,10,0)"
         inkscape:connector-curvature="0" />
    </marker>
    <clipPath
       clipPathUnits="userSpaceOnUse"
       id="clipPath10008">
      <path
         d="M 0,800 H 800 V 0 H 0 Z"
         id="path10006"
         inkscape:connector-curvature="0" />
    </clipPath>
    <marker
       inkscape:isstock="true"
       style="overflow:visible"
       id="marker14674-3"
       refX="0"
       refY="0"
       orient="auto"
       inkscape:stockid="Arrow1Sstart">
      <path
         inkscape:connector-curvature="0"
         transform="matrix(0.2,0,0,0.2,1.2,0)"
         style="fill:#ff0000;fill-opacity:1;fill-rule:evenodd;stroke:#ff0000;stroke-width:1.00000003pt;stroke-opacity:1"
         d="M 0,0 5,-5 -12.5,0 5,5 Z"
         id="path14672-6" />
    </marker>
  </defs>
  <sodipodi:namedview
     id="base"
     pagecolor="#ffffff"
     bordercolor="#666666"
     borderopacity="1.0"
     inkscape:pageopacity="0.0"
     inkscape:pageshadow="2"
     inkscape:zoom="0.49497475"
     inkscape:cx="785.23648"
     inkscape:cy="370.40061"
     inkscape:document-units="mm"
     inkscape:current-layer="layer1"
     showgrid="false"
     inkscape:window-width="1024"
     inkscape:window-height="739"
     inkscape:window-x="1366"
     inkscape:window-y="0"
     inkscape:window-maximized="1"
     units="mm" />
  <metadata
     id="metadata5">
    <rdf:RDF>
      <cc:Work
         rdf:about="">
        <dc:format>image/svg+xml</dc:format>
        <dc:type
           rdf:resource="http://purl.org/dc/dcmitype/StillImage" />
        <dc:title></dc:title>
      </cc:Work>
    </rdf:RDF>
  </metadata>
  <g
     inkscape:label="Camada 1"
     inkscape:groupmode="layer"
     id="layer1"
     transform="translate(0,-270.52501)">
    <g
       id="g7227"
       transform="translate(0,-27.123063)" />
    <g
       id="g7396"
       transform="translate(0,-1.322938)" />
    <text
       xml:space="preserve"
       style="font-style:normal;font-variant:normal;font-weight:normal;font-stretch:normal;font-size:8.46666622px;line-height:1.25;font-family:Roboto;-inkscape-font-specification:Roboto;letter-spacing:0px;word-spacing:0px;fill:#331709;fill-opacity:1;stroke:none;stroke-width:0.26458332"
       x="94.494049"
       y="28.636915"
       id="text4568"><tspan
         sodipodi:role="line"
         id="tspan4566"
         x="94.494049"
         y="36.04525"
         style="fill:#331709;fill-opacity:1;stroke-width:0.26458332" /></text>
    <path
       style="fill:#000000;stroke-width:0.26458332"
       d=""
       id="path6108"
       inkscape:connector-curvature="0" />
    <path
       style="fill:#000000;stroke-width:0.26458332"
       d=""
       id="path6106"
       inkscape:connector-curvature="0" />
    <g
       transform="matrix(0.35277777,0,0,-0.35277777,303.61818,314.10524)"
       id="g10002"
       style="stroke:#faad19;stroke-opacity:1" />
    <path
       style="fill:#faad19;fill-opacity:1;stroke-width:0.04732793"
       d="m 19.434578,296.88258 c -0.247297,-0.062 -0.766282,-0.18666 -1.153297,-0.27713 -0.387025,-0.0904 -0.709698,-0.17083 -0.717085,-0.1786 -0.0076,-0.008 0.02675,-0.19517 0.07587,-0.41642 l 0.08929,-0.4023 -0.114795,-0.0946 c -0.23061,-0.19016 -0.543678,-0.40228 -0.593722,-0.40228 -0.02827,0 -0.18246,0.0852 -0.342702,0.18931 -0.160242,0.10412 -0.318018,0.18931 -0.350632,0.18931 -0.04703,0 -0.489826,-0.61672 -0.489826,-0.68224 0,-0.01 -0.191675,-0.32098 -0.42595,-0.69288 -0.234275,-0.37189 -0.42595,-0.69231 -0.42595,-0.71204 0,-0.0197 0.161251,-0.13637 0.358333,-0.25921 0.329089,-0.20512 0.355753,-0.23339 0.326709,-0.34649 -0.01732,-0.0677 -0.0496,-0.24786 -0.07149,-0.40029 -0.02199,-0.15242 -0.0535,-0.29086 -0.07025,-0.30763 -0.01666,-0.0168 -0.204355,-0.074 -0.417002,-0.12715 -0.331992,-0.083 -0.384492,-0.10976 -0.371508,-0.18932 0.0086,-0.0509 0.123211,-0.55055 0.255342,-1.1102 0.13213,-0.55965 0.250277,-1.06547 0.262548,-1.12403 0.02704,-0.12917 0.100944,-0.13298 0.537042,-0.0277 0.17949,0.0433 0.332954,0.07 0.341017,0.0592 0.194132,-0.25937 0.458383,-0.66408 0.458383,-0.70204 0,-0.0276 -0.09491,-0.19819 -0.210819,-0.37909 l -0.210828,-0.32891 0.411976,-0.25644 c 1.465165,-0.91202 1.730312,-1.06967 1.764039,-1.04883 0.01771,0.0109 0.123792,0.17153 0.235789,0.35691 0.193569,0.32037 0.210828,0.33572 0.349089,0.31069 0.08006,-0.0145 0.27084,-0.048 0.424066,-0.0743 0.153226,-0.0265 0.286203,-0.0557 0.295504,-0.065 0.0095,-0.01 0.0535,-0.19098 0.09823,-0.40372 0.05683,-0.27018 0.102125,-0.38681 0.150332,-0.38681 0.106599,0 2.343396,0.53328 2.38573,0.56879 0.02056,0.0172 -0.0076,0.19602 -0.06292,0.39722 -0.05521,0.20121 -0.09063,0.39096 -0.07873,0.42167 0.0119,0.0308 0.173312,0.15922 0.358638,0.28559 l 0.336971,0.22977 0.358819,-0.22364 c 0.197349,-0.12301 0.375335,-0.2051 0.395535,-0.18246 0.02018,0.0227 0.192208,0.29679 0.382265,0.60916 0.190067,0.31236 0.460506,0.75552 0.601005,0.98479 0.140479,0.22927 0.266022,0.44447 0.278978,0.47822 0.01456,0.0378 -0.104791,0.1389 -0.311078,0.26354 -0.184031,0.11119 -0.345168,0.21927 -0.358086,0.24016 -0.02551,0.0412 0.09522,0.79304 0.133473,0.83129 0.01285,0.0128 0.207525,0.0667 0.432614,0.11982 0.334734,0.0789 0.405007,0.11075 0.385854,0.17481 -0.04008,0.13402 -0.473376,1.96843 -0.524372,2.21992 -0.0357,0.17605 -0.08272,0.1857 -0.429206,0.088 -0.463429,-0.13067 -0.425246,-0.14146 -0.658931,0.18604 -0.117841,0.16513 -0.227049,0.33359 -0.24269,0.37435 -0.01656,0.0431 0.05455,0.21148 0.170199,0.40287 0.109265,0.18083 0.185088,0.35071 0.168515,0.37754 -0.01656,0.0268 -0.179243,0.1396 -0.361484,0.25063 -0.375088,0.22851 -0.522535,0.31938 -1.23407,0.76047 l -0.505219,0.3132 -0.234723,-0.3697 -0.234722,-0.36971 -0.418934,0.0791 -0.418934,0.0791 -0.05702,0.20967 c -0.03132,0.11532 -0.08034,0.30018 -0.108961,0.41082 -0.02865,0.11062 -0.07777,0.19908 -0.109293,0.19658 -0.03151,-0.003 -0.259673,-0.0552 -0.506951,-0.11717 z m 1.255813,-3.42167 c 0.403493,-0.18882 0.745586,-0.53475 0.931788,-0.94223 0.125924,-0.27558 0.145505,-0.3726 0.146305,-0.72495 7.68e-4,-0.36002 -0.01656,-0.44437 -0.151436,-0.73359 -0.192856,-0.41362 -0.509294,-0.74017 -0.90462,-0.93354 -0.661376,-0.28282 -1.469611,-0.15778 -1.96016,0.2498 -0.650372,0.54734 -0.838278,1.41599 -0.478288,2.21104 0.21237,0.46903 0.711687,0.87388 1.243608,1.00829 0.323635,0.0818 0.835708,0.0229 1.172803,-0.13482 z m -12.1175829,-4.4327 c -0.226317,-0.0565 -0.522306,-0.12607 -2.224412,-0.52262 -0.416478,-0.097 -0.764968,-0.18274 -0.774412,-0.19047 -0.01847,-0.0151 0.02228,-0.20485 0.233028,-1.08402 0.07492,-0.31237 0.142155,-0.64213 0.149466,-0.73283 0.01257,-0.15538 -0.0019,-0.17312 -0.247012,-0.30825 -0.408606,-0.22506 -0.690964,-0.42014 -1.074971,-0.74268 -0.589047,-0.49476 -0.443609,-0.50262 -1.367248,0.0737 -0.44357,0.27673 -0.826273,0.50264 -0.850443,0.50196 -0.02418,-7.9e-4 -0.150437,-0.17449 -0.280588,-0.38628 -0.13015,-0.21177 -0.410471,-0.66378 -0.622908,-1.00447 -0.51597602,-0.82746 -0.80892902,-1.31489 -0.84194302,-1.40093 -0.0199,-0.0517 0.196016,-0.20989 0.80166602,-0.58731 0.455851,-0.28404 0.828825,-0.54297 0.828825,-0.57535 0,-0.0324 -0.05236,-0.25777 -0.116471,-0.50088 -0.125772,-0.47732 -0.214817,-1.09573 -0.214817,-1.49197 0,-0.28071 0.04693,-0.25213 -0.686261,-0.41748 -0.47110102,-0.1062 -1.26816002,-0.30553 -1.28361901591,-0.321 -0.006700004,-0.008 0.0362699959,-0.21469 0.0965799959,-0.46113 0.06026,-0.24647 0.174455,-0.72497 0.253705,-1.06337 0.364806,-1.55789 0.410642,-1.72746 0.466865,-1.72746 0.06254,0 0.40752002,0.0754 1.20005602,0.26238 0.273315,0.0644 0.54305,0.12762 0.599415,0.14028 0.08539,0.0192 0.130084,-0.0263 0.26864,-0.27407 0.240701,-0.4304 0.474347,-0.76236 0.850111,-1.20784 l 0.331497,-0.39302 -0.110578,-0.1986 c -0.06083,-0.10923 -0.220215,-0.36898 -0.354221,-0.57722 -0.42694,-0.66347 -0.543649,-0.85894 -0.543649,-0.91054 0,-0.0277 0.06921,-0.0926 0.153807,-0.14437 0.871995,-0.5331 1.577933,-0.96986 2.18641,-1.3527 0.232895,-0.14654 0.447807,-0.26643 0.477565,-0.26643 0.0297,0 0.274123,0.35674 0.54304,0.79275 0.268907,0.43601 0.502896,0.80929 0.519974,0.82952 0.01704,0.0203 0.274333,-0.0256 0.571675,-0.10178 0.316847,-0.0812 0.782617,-0.15821 1.125271,-0.18601 0.32155,-0.0261 0.600605,-0.0655 0.620101,-0.0875 0.03779,-0.0426 0.428063,-1.67342 0.428063,-1.78848 0,-0.0375 0.01933,-0.0802 0.04303,-0.0947 0.0237,-0.0147 0.3165239,0.0387 0.6507529,0.11859 0.33423,0.0799 0.820677,0.19534 1.080978,0.2566 1.438853,0.33866 1.538151,0.3669 1.538151,0.43753 0,0.039 -0.0416,0.24423 -0.09243,0.45603 -0.160375,0.66813 -0.333535,1.41031 -0.333535,1.42954 0,0.0102 0.09053,0.0641 0.201147,0.11982 0.354069,0.17836 0.852034,0.52231 1.279212,0.88354 0.231495,0.19577 0.441086,0.3385 0.473281,0.32238 0.0318,-0.0159 0.153645,-0.0912 0.270782,-0.1672 0.117137,-0.076 0.29816,-0.18882 0.402285,-0.25066 0.104114,-0.0619 0.364263,-0.22261 0.5781,-0.35724 l 0.388786,-0.24481 0.0753,0.10577 c 0.04141,0.0582 0.257683,0.40394 0.480611,0.76838 0.222928,0.36441 0.473967,0.76905 0.557862,0.89921 0.402246,0.62401 0.640586,1.02593 0.639425,1.07828 -7.14e-4,0.0317 -0.08053,0.10587 -0.177482,0.16491 -1.237735,0.75375 -1.453685,0.90082 -1.447592,0.98581 0.0038,0.0496 0.06369,0.33499 0.133549,0.63436 0.06987,0.29934 0.14601,0.77676 0.169142,1.06091 0.04179,0.5137 0.0734,0.59318 0.236208,0.59484 0.0396,2.4e-4 0.273914,0.0513 0.520602,0.11307 0.246689,0.0618 0.61317,0.14835 0.814394,0.19232 0.201232,0.044 0.374773,0.0946 0.385635,0.11248 0.02209,0.0364 -0.0376,0.31634 -0.39565,1.8546 -0.336724,1.44666 -0.329441,1.41982 -0.385283,1.41982 -0.02723,0 -0.212732,-0.0412 -0.412289,-0.0916 -1.021462,-0.25796 -1.487746,-0.34297 -1.52987,-0.27902 -0.02285,0.0346 -0.10916,0.18016 -0.191837,0.32332 -0.280987,0.48655 -0.663747,1.00398 -0.975111,1.31815 -0.167515,0.16903 -0.167924,0.20889 -0.0048,0.45663 0.0515,0.0781 0.272455,0.42951 0.491149,0.78094 l 0.397582,0.63892 -0.126935,0.10478 c -0.06987,0.0576 -0.1422,0.10556 -0.16085,0.10649 -0.01866,0.001 -0.252922,0.13918 -0.520611,0.30719 -0.543917,0.3414 -0.941718,0.59006 -1.585921,0.99136 -0.240148,0.14959 -0.45588,0.26009 -0.47942,0.24555 -0.02351,-0.0146 -0.197113,-0.27702 -0.38574,-0.58327 -0.520605,-0.84528 -0.659606,-1.05379 -0.70256,-1.05379 -0.02161,0 -0.204279,0.0422 -0.40596,0.0938 -0.563154,0.14402 -1.153627,0.23719 -1.5044059,0.23736 -0.376649,1.8e-4 -0.362769,-0.0167 -0.506266,0.61542 -0.193636,0.85302 -0.305709,1.3016 -0.332374,1.3304 -0.01466,0.0159 -0.133253,0.002 -0.263404,-0.0302 z m 1.7673809,-5.4403 c 0.749147,-0.22102 1.242067,-0.5123 1.738823,-1.02759 0.365463,-0.37913 0.53393,-0.6054 0.715638,-0.96127 0.621728,-1.21755 0.578424,-2.63897 -0.1163,-3.81714 -0.256265,-0.43459 -0.776515,-0.99027 -1.184397,-1.26507 -1.079864,-0.72757 -2.5475709,-0.86467 -3.7496559,-0.35027 -1.235402,0.52865 -2.105761,1.63439 -2.338874,2.97145 -0.0931,0.53404 -0.09329,0.79038 -7.67e-4,1.31831 0.21239,1.21421 0.978015,2.26289 2.079821,2.84872 0.266213,0.14155 0.89707,0.34537 1.231852,0.39798 0.444266,0.0698 1.172089,0.0182 1.6240559,-0.11512 z m 12.953547,2.00314 c -0.415431,-0.10238 -0.762226,-0.19301 -0.77067,-0.20145 -0.0086,-0.009 0.03865,-0.24369 0.104553,-0.5228 0.06597,-0.2791 0.119907,-0.53731 0.119907,-0.57384 0,-0.0366 -0.111816,-0.12954 -0.248478,-0.20672 -0.136652,-0.0772 -0.381684,-0.24775 -0.544506,-0.37904 -0.162821,-0.13127 -0.320245,-0.23868 -0.349832,-0.23868 -0.02961,0 -0.237454,0.11588 -0.461934,0.25753 -0.509026,0.32117 -0.551655,0.33791 -0.592189,0.23227 -0.01771,-0.046 -0.201413,-0.35321 -0.408396,-0.68277 -0.206973,-0.32957 -0.376325,-0.61875 -0.376325,-0.64263 0,-0.0239 0.20208,-0.16672 0.449064,-0.31745 0.246983,-0.15074 0.461581,-0.2943 0.476889,-0.31907 0.01533,-0.0248 -0.0086,-0.1882 -0.05274,-0.36316 -0.04427,-0.17498 -0.09386,-0.47787 -0.110103,-0.6731 l -0.02961,-0.35497 -0.560727,-0.13911 -0.560717,-0.13912 0.03056,-0.19217 c 0.02675,-0.16822 0.314467,-1.40295 0.334287,-1.43466 0.0038,-0.007 0.248468,0.0413 0.543011,0.10648 0.294543,0.0651 0.560309,0.11846 0.59059,0.11846 0.03027,0 0.0912,-0.0758 0.135377,-0.16843 0.08234,-0.17262 0.355011,-0.55249 0.572379,-0.79735 0.06711,-0.0756 0.122078,-0.14586 0.122078,-0.15607 0,-0.0102 -0.07796,-0.14003 -0.173245,-0.28844 -0.0953,-0.14844 -0.232267,-0.36947 -0.304386,-0.49124 l -0.131112,-0.22137 0.292534,-0.18772 c 0.534015,-0.34264 1.080473,-0.67105 1.116571,-0.67105 0.03503,0 0.177281,0.20862 0.475965,0.69807 0.166287,0.27251 0.210657,0.28737 0.525467,0.17632 0.112502,-0.0397 0.39208,-0.0855 0.6213,-0.10174 l 0.416754,-0.0296 0.04331,-0.17041 c 0.0238,-0.0937 0.08006,-0.34609 0.125086,-0.56082 0.0476,-0.22753 0.105581,-0.39047 0.138785,-0.39047 0.03132,0 0.299798,0.0556 0.596578,0.12343 0.296789,0.0679 0.640776,0.14527 0.764416,0.17194 0.13749,0.0296 0.224812,0.0742 0.224812,0.11444 0,0.0363 -0.04112,0.23047 -0.09148,0.43151 -0.167629,0.66973 -0.167324,0.65723 -0.01809,0.74789 0.297379,0.18068 0.656741,0.41936 0.70252,0.46663 0.02675,0.0276 0.103171,0.0986 0.169751,0.15773 l 0.121068,0.10749 0.208867,-0.12123 c 0.114883,-0.0666 0.340972,-0.20362 0.502412,-0.30436 0.212855,-0.1328 0.305623,-0.16803 0.337477,-0.12822 0.09852,0.12314 0.812487,1.31323 0.812487,1.35431 0,0.0405 -0.235063,0.20632 -0.662585,0.46722 -0.0911,0.0556 -0.191532,0.11825 -0.223174,0.13922 -0.04446,0.0294 -0.03646,0.14017 0.03484,0.48597 0.05083,0.24632 0.09272,0.54824 0.09301,0.67099 7.94e-4,0.27012 0.0067,0.27418 0.639548,0.41519 0.260302,0.0581 0.487609,0.11915 0.505124,0.13585 0.02818,0.0268 -0.317788,1.56264 -0.361961,1.60679 -0.0096,0.01 -0.263289,-0.0376 -0.563705,-0.10502 -0.300419,-0.0674 -0.555218,-0.12255 -0.566211,-0.12255 -0.01103,0 -0.1064,0.14541 -0.211982,0.32316 -0.105589,0.17771 -0.288221,0.43018 -0.405854,0.56101 l -0.213884,0.23788 0.313115,0.51327 c 0.17221,0.28229 0.293849,0.52036 0.270307,0.52906 -0.02352,0.009 -0.340979,0.20422 -0.705406,0.43453 -0.364424,0.23031 -0.67671,0.41055 -0.693969,0.40049 -0.01733,-0.01 -0.162936,-0.23109 -0.32373,-0.49125 -0.160794,-0.26017 -0.30332,-0.47303 -0.316742,-0.47303 -0.01342,0 -0.155254,0.0345 -0.315191,0.0768 -0.159937,0.0423 -0.461182,0.0902 -0.66943,0.10648 l -0.378619,0.0296 -0.141051,0.57977 c -0.07758,0.31887 -0.162764,0.5774 -0.189305,0.57456 -0.02656,-0.003 -0.388157,-0.0889 -0.803579,-0.19133 z m 1.55819,-2.69416 c 0.746758,-0.13804 1.330541,-0.58137 1.663314,-1.26312 0.606327,-1.24221 -0.02323,-2.69641 -1.359489,-3.14028 -1.162864,-0.38627 -2.480002,0.30715 -2.841609,1.49598 -0.178739,0.58766 -0.07368,1.399 0.24309,1.87724 0.517032,0.78057 1.429362,1.19015 2.294694,1.03018 z"
       id="path6179"
       inkscape:connector-curvature="0"
       sodipodi:nodetypes="ccccccssssssccscccccscscccccccscsccccccsccccccscsccccccccccccccccccccccscccscccccccccccscscsccsccsccccscsscccccsccsscscccccccccccscsscsccsssccsscccccccssscccccccssssccsccccscsccssccsccccccccccsccsscccsscccccsccscsccccscsccccccccssccsccccscscscccsscsc" />
  </g>
</svg>
