<?xml version="1.0" encoding="UTF-8" standalone="no"?>
<!-- Created with Inkscape (http://www.inkscape.org/) -->

<svg
   xmlns:dc="http://purl.org/dc/elements/1.1/"
   xmlns:cc="http://creativecommons.org/ns#"
   xmlns:rdf="http://www.w3.org/1999/02/22-rdf-syntax-ns#"
   xmlns:svg="http://www.w3.org/2000/svg"
   xmlns="http://www.w3.org/2000/svg"
   xmlns:sodipodi="http://sodipodi.sourceforge.net/DTD/sodipodi-0.dtd"
   xmlns:inkscape="http://www.inkscape.org/namespaces/inkscape"
   width="26.726999mm"
   height="24.158001mm"
   viewBox="0 0 26.727001 24.158"
   version="1.1"
   id="svg8"
   inkscape:version="0.92.1 r15371"
   sodipodi:docname="logoSair.svg">
  <defs
     id="defs2">
    <marker
       inkscape:isstock="true"
       style="overflow:visible"
       id="marker14674"
       refX="0"
       refY="0"
       orient="auto"
       inkscape:stockid="Arrow1Sstart">
      <path
         transform="matrix(0.2,0,0,0.2,1.2,0)"
         style="fill:#ff0000;fill-opacity:1;fill-rule:evenodd;stroke:#ff0000;stroke-width:1.00000003pt;stroke-opacity:1"
         d="M 0,0 5,-5 -12.5,0 5,5 Z"
         id="path14672"
         inkscape:connector-curvature="0" />
    </marker>
    <marker
       inkscape:isstock="true"
       style="overflow:visible"
       id="marker7930"
       refX="0"
       refY="0"
       orient="auto"
       inkscape:stockid="Arrow1Sstart">
      <path
         transform="matrix(0.2,0,0,0.2,1.2,0)"
         style="fill:#ff0000;fill-opacity:1;fill-rule:evenodd;stroke:#ff0000;stroke-width:1.00000003pt;stroke-opacity:1"
         d="M 0,0 5,-5 -12.5,0 5,5 Z"
         id="path7928"
         inkscape:connector-curvature="0" />
    </marker>
    <marker
       inkscape:stockid="Arrow1Mstart"
       orient="auto"
       refY="0"
       refX="0"
       id="Arrow1Mstart"
       style="overflow:visible"
       inkscape:isstock="true">
      <path
         id="path7532"
         d="M 0,0 5,-5 -12.5,0 5,5 Z"
         style="fill:#ff0000;fill-opacity:1;fill-rule:evenodd;stroke:#ff0000;stroke-width:1.00000003pt;stroke-opacity:1"
         transform="matrix(0.4,0,0,0.4,4,0)"
         inkscape:connector-curvature="0" />
    </marker>
    <marker
       inkscape:stockid="Arrow1Lstart"
       orient="auto"
       refY="0"
       refX="0"
       id="Arrow1Lstart"
       style="overflow:visible"
       inkscape:isstock="true">
      <path
         id="path7526"
         d="M 0,0 5,-5 -12.5,0 5,5 Z"
         style="fill:#ff0000;fill-opacity:1;fill-rule:evenodd;stroke:#ff0000;stroke-width:1.00000003pt;stroke-opacity:1"
         transform="matrix(0.8,0,0,0.8,10,0)"
         inkscape:connector-curvature="0" />
    </marker>
    <clipPath
       clipPathUnits="userSpaceOnUse"
       id="clipPath10008">
      <path
         d="M 0,800 H 800 V 0 H 0 Z"
         id="path10006"
         inkscape:connector-curvature="0" />
    </clipPath>
    <marker
       inkscape:isstock="true"
       style="overflow:visible"
       id="marker14674-3"
       refX="0"
       refY="0"
       orient="auto"
       inkscape:stockid="Arrow1Sstart">
      <path
         inkscape:connector-curvature="0"
         transform="matrix(0.2,0,0,0.2,1.2,0)"
         style="fill:#ff0000;fill-opacity:1;fill-rule:evenodd;stroke:#ff0000;stroke-width:1.00000003pt;stroke-opacity:1"
         d="M 0,0 5,-5 -12.5,0 5,5 Z"
         id="path14672-6" />
    </marker>
  </defs>
  <sodipodi:namedview
     id="base"
     pagecolor="#ffffff"
     bordercolor="#666666"
     borderopacity="1.0"
     inkscape:pageopacity="0.0"
     inkscape:pageshadow="2"
     inkscape:zoom="0.49497475"
     inkscape:cx="785.23648"
     inkscape:cy="370.40061"
     inkscape:document-units="mm"
     inkscape:current-layer="layer1"
     showgrid="false"
     inkscape:window-width="1024"
     inkscape:window-height="739"
     inkscape:window-x="1366"
     inkscape:window-y="0"
     inkscape:window-maximized="1"
     units="mm" />
  <metadata
     id="metadata5">
    <rdf:RDF>
      <cc:Work
         rdf:about="">
        <dc:format>image/svg+xml</dc:format>
        <dc:type
           rdf:resource="http://purl.org/dc/dcmitype/StillImage" />
        <dc:title></dc:title>
      </cc:Work>
    </rdf:RDF>
  </metadata>
  <g
     inkscape:label="Camada 1"
     inkscape:groupmode="layer"
     id="layer1"
     transform="translate(0,-272.84201)">
    <g
       id="g7227"
       transform="translate(0,-27.123063)" />
    <g
       id="g7396"
       transform="translate(0,-1.322938)" />
    <text
       xml:space="preserve"
       style="font-style:normal;font-variant:normal;font-weight:normal;font-stretch:normal;font-size:8.46666622px;line-height:1.25;font-family:Roboto;-inkscape-font-specification:Roboto;letter-spacing:0px;word-spacing:0px;fill:#331709;fill-opacity:1;stroke:none;stroke-width:0.26458332"
       x="94.494049"
       y="28.636915"
       id="text4568"><tspan
         sodipodi:role="line"
         id="tspan4566"
         x="94.494049"
         y="36.04525"
         style="fill:#331709;fill-opacity:1;stroke-width:0.26458332" /></text>
    <path
       style="fill:#000000;stroke-width:0.26458332"
       d=""
       id="path6108"
       inkscape:connector-curvature="0" />
    <path
       style="fill:#000000;stroke-width:0.26458332"
       d=""
       id="path6106"
       inkscape:connector-curvature="0" />
    <g
       transform="matrix(0.35277777,0,0,-0.35277777,303.61818,314.10524)"
       id="g10002"
       style="stroke:#faad19;stroke-opacity:1" />
    <path
       style="fill:#faad19;fill-opacity:1;stroke-width:0.1438843"
       d="m 12.97908,296.92806 c -1.87915,-0.29755 -3.85509,-1.11219 -5.46256,-2.25213 -0.82778,-0.58702 -2.78417,-2.57005 -2.78417,-2.82208 0,-0.0625 0.74441,-0.11358 1.65426,-0.11358 h 1.65427 l 0.89969,0.66284 c 1.81773,1.33923 3.56512,1.92863 5.70684,1.92495 3.74727,-0.006 6.99671,-2.10413 8.57785,-5.53742 0.63346,-1.37549 0.84527,-2.35799 0.83753,-3.88488 -0.0312,-6.16935 -5.80154,-10.6648 -11.7397,-9.14606 -1.30094,0.33271 -2.17378,0.75815 -3.38252,1.64871 l -0.89969,0.66285 H 6.38661 c -0.90985,0 -1.65426,-0.0569 -1.65426,-0.12637 0,-0.25531 1.93674,-2.20853 2.8024,-2.82624 1.16751,-0.83312 2.74608,-1.57238 4.17599,-1.95567 1.59699,-0.42807 4.26776,-0.42836 5.89926,-5.2e-4 1.47161,0.3858 3.49025,1.39568 4.63968,2.32113 2.06253,1.66059 3.67965,4.33378 4.23252,6.99655 0.66092,3.18316 -0.0357,6.63146 -1.88162,9.31444 -1.6026,2.32931 -4.18638,4.12425 -6.95085,4.82873 -1.28078,0.32638 -3.58489,0.47678 -4.67065,0.30486 z M 3.19352,287.603 C 1.43709,286.19866 0,284.9849 0,284.90576 c 0,-0.0791 1.43709,-1.2929 3.19352,-2.69724 l 3.19349,-2.55336 0.04,1.94186 0.04,1.94184 h 5.39161 5.39159 v 1.3669 1.36691 H 11.85862 6.46701 l -0.04,1.94184 -0.04,1.94185 z"
       id="path11289-5"
       inkscape:connector-curvature="0" />
  </g>
</svg>
