<?xml version="1.0" encoding="UTF-8" standalone="no"?>
<!-- Created with Inkscape (http://www.inkscape.org/) -->

<svg
   xmlns:dc="http://purl.org/dc/elements/1.1/"
   xmlns:cc="http://creativecommons.org/ns#"
   xmlns:rdf="http://www.w3.org/1999/02/22-rdf-syntax-ns#"
   xmlns:svg="http://www.w3.org/2000/svg"
   xmlns="http://www.w3.org/2000/svg"
   xmlns:sodipodi="http://sodipodi.sourceforge.net/DTD/sodipodi-0.dtd"
   xmlns:inkscape="http://www.inkscape.org/namespaces/inkscape"
   width="32.564999mm"
   height="26.414mm"
   viewBox="0 0 32.565001 26.413999"
   version="1.1"
   id="svg8"
   inkscape:version="0.92.1 r15371"
   sodipodi:docname="logoAutonomo.svg">
  <defs
     id="defs2">
    <marker
       inkscape:isstock="true"
       style="overflow:visible"
       id="marker14674"
       refX="0"
       refY="0"
       orient="auto"
       inkscape:stockid="Arrow1Sstart">
      <path
         transform="matrix(0.2,0,0,0.2,1.2,0)"
         style="fill:#ff0000;fill-opacity:1;fill-rule:evenodd;stroke:#ff0000;stroke-width:1.00000003pt;stroke-opacity:1"
         d="M 0,0 5,-5 -12.5,0 5,5 Z"
         id="path14672"
         inkscape:connector-curvature="0" />
    </marker>
    <marker
       inkscape:isstock="true"
       style="overflow:visible"
       id="marker7930"
       refX="0"
       refY="0"
       orient="auto"
       inkscape:stockid="Arrow1Sstart">
      <path
         transform="matrix(0.2,0,0,0.2,1.2,0)"
         style="fill:#ff0000;fill-opacity:1;fill-rule:evenodd;stroke:#ff0000;stroke-width:1.00000003pt;stroke-opacity:1"
         d="M 0,0 5,-5 -12.5,0 5,5 Z"
         id="path7928"
         inkscape:connector-curvature="0" />
    </marker>
    <marker
       inkscape:stockid="Arrow1Mstart"
       orient="auto"
       refY="0"
       refX="0"
       id="Arrow1Mstart"
       style="overflow:visible"
       inkscape:isstock="true">
      <path
         id="path7532"
         d="M 0,0 5,-5 -12.5,0 5,5 Z"
         style="fill:#ff0000;fill-opacity:1;fill-rule:evenodd;stroke:#ff0000;stroke-width:1.00000003pt;stroke-opacity:1"
         transform="matrix(0.4,0,0,0.4,4,0)"
         inkscape:connector-curvature="0" />
    </marker>
    <marker
       inkscape:stockid="Arrow1Lstart"
       orient="auto"
       refY="0"
       refX="0"
       id="Arrow1Lstart"
       style="overflow:visible"
       inkscape:isstock="true">
      <path
         id="path7526"
         d="M 0,0 5,-5 -12.5,0 5,5 Z"
         style="fill:#ff0000;fill-opacity:1;fill-rule:evenodd;stroke:#ff0000;stroke-width:1.00000003pt;stroke-opacity:1"
         transform="matrix(0.8,0,0,0.8,10,0)"
         inkscape:connector-curvature="0" />
    </marker>
    <clipPath
       clipPathUnits="userSpaceOnUse"
       id="clipPath10008">
      <path
         d="M 0,800 H 800 V 0 H 0 Z"
         id="path10006"
         inkscape:connector-curvature="0" />
    </clipPath>
    <marker
       inkscape:isstock="true"
       style="overflow:visible"
       id="marker14674-3"
       refX="0"
       refY="0"
       orient="auto"
       inkscape:stockid="Arrow1Sstart">
      <path
         inkscape:connector-curvature="0"
         transform="matrix(0.2,0,0,0.2,1.2,0)"
         style="fill:#ff0000;fill-opacity:1;fill-rule:evenodd;stroke:#ff0000;stroke-width:1.00000003pt;stroke-opacity:1"
         d="M 0,0 5,-5 -12.5,0 5,5 Z"
         id="path14672-6" />
    </marker>
  </defs>
  <sodipodi:namedview
     id="base"
     pagecolor="#ffffff"
     bordercolor="#666666"
     borderopacity="1.0"
     inkscape:pageopacity="0.0"
     inkscape:pageshadow="2"
     inkscape:zoom="0.49497475"
     inkscape:cx="785.23648"
     inkscape:cy="370.40061"
     inkscape:document-units="mm"
     inkscape:current-layer="layer1"
     showgrid="false"
     inkscape:window-width="1024"
     inkscape:window-height="739"
     inkscape:window-x="1366"
     inkscape:window-y="0"
     inkscape:window-maximized="1"
     units="mm" />
  <metadata
     id="metadata5">
    <rdf:RDF>
      <cc:Work
         rdf:about="">
        <dc:format>image/svg+xml</dc:format>
        <dc:type
           rdf:resource="http://purl.org/dc/dcmitype/StillImage" />
        <dc:title></dc:title>
      </cc:Work>
    </rdf:RDF>
  </metadata>
  <g
     inkscape:label="Camada 1"
     inkscape:groupmode="layer"
     id="layer1"
     transform="translate(0,-270.58601)">
    <g
       id="g7227"
       transform="translate(0,-27.123063)" />
    <g
       id="g7396"
       transform="translate(0,-1.322938)" />
    <text
       xml:space="preserve"
       style="font-style:normal;font-variant:normal;font-weight:normal;font-stretch:normal;font-size:8.46666622px;line-height:1.25;font-family:Roboto;-inkscape-font-specification:Roboto;letter-spacing:0px;word-spacing:0px;fill:#331709;fill-opacity:1;stroke:none;stroke-width:0.26458332"
       x="94.494049"
       y="28.636915"
       id="text4568"><tspan
         sodipodi:role="line"
         id="tspan4566"
         x="94.494049"
         y="36.04525"
         style="fill:#331709;fill-opacity:1;stroke-width:0.26458332" /></text>
    <path
       style="fill:#000000;stroke-width:0.26458332"
       d=""
       id="path6108"
       inkscape:connector-curvature="0" />
    <path
       style="fill:#000000;stroke-width:0.26458332"
       d=""
       id="path6106"
       inkscape:connector-curvature="0" />
    <g
       transform="matrix(0.35277777,0,0,-0.35277777,303.61818,314.10524)"
       id="g10002"
       style="stroke:#faad19;stroke-opacity:1" />
    <g
       transform="matrix(0.25172118,0,0,-0.25172118,8.1307479,271.86087)"
       id="g6900"
       style="fill:#faad19;fill-opacity:1;stroke:#faad19;stroke-width:1.56755912;stroke-miterlimit:4;stroke-dasharray:none;stroke-opacity:1">
      <path
         id="path6902"
         style="fill:#faad19;fill-opacity:1;fill-rule:nonzero;stroke:#faad19;stroke-width:1.56755912;stroke-miterlimit:4;stroke-dasharray:none;stroke-opacity:1"
         d="m 0,-6.3065811 c -0.717,0.058 -1.348,-0.477 -1.406,-1.195 -0.058,-0.718 0.478,-1.348 1.195,-1.406 0.717,-0.058 1.348,0.477 1.406,1.194 0.059,0.719 -0.478,1.348 -1.195,1.407 m -0.295,-3.642 c -1.291,0.105 -2.256,1.24 -2.151,2.531 0.105,1.292 1.24,2.2570001 2.53,2.153 1.292,-0.105 2.257,-1.241 2.152,-2.533 -0.105,-1.291 -1.24,-2.2559999 -2.531,-2.151 m 2.0118032,2.1932126 c -0.082,-1.006 -0.96300001,-1.754 -1.97000001,-1.672 -1.00599999,0.081 -1.75499999,0.962 -1.67299999,1.967 0.082,1.008 0.96299999,1.756 1.96899999,1.674 1.00600001,-0.081 1.75600001,-0.962 1.67400001,-1.969 M -20.570797,-42.519975 c -0.717,0.059 -1.348,-0.477 -1.406,-1.195 -0.059,-0.718 0.478,-1.347 1.195,-1.406 0.717,-0.058 1.349,0.477 1.407,1.195 0.058,0.718 -0.479,1.348 -1.196,1.406 m -0.295,-3.643 c -1.291,0.105 -2.257,1.242 -2.152,2.532 0.105,1.291 1.241,2.257 2.531,2.152 1.291,-0.105 2.257,-1.242 2.152,-2.532 -0.104,-1.29 -1.241,-2.257 -2.531,-2.152 m 2.010301,2.194298 c -0.082,-1.006 -0.963,-1.754 -1.969,-1.673 -1.006,0.082 -1.754,0.963 -1.673,1.969 0.082,1.006 0.963,1.755 1.969,1.673 1.006,-0.081 1.755,-0.962 1.673,-1.969 m 21.2720031,2.900806 c -0.718,0.058 -1.348,-0.479 -1.407,-1.196 -0.058,-0.717 0.477,-1.348 1.196,-1.406 0.717,-0.059 1.348,0.477 1.406,1.195 0.058,0.718 -0.478,1.349 -1.195,1.407 m -0.296,-3.643 c -1.29099996,0.105 -2.25599996,1.241 -2.15099996,2.532 0.105,1.291 1.23999996,2.256 2.53099996,2.151 1.291,-0.105 2.257,-1.24 2.152,-2.531 -0.105,-1.292 -1.241,-2.257 -2.532,-2.152 m 2.0107906,2.193787 c -0.082,-1.006 -0.962,-1.755 -1.968,-1.674 -1.006,0.082 -1.75499997,0.964 -1.67299997,1.969 0.081,1.006 0.96199997,1.755 1.96799997,1.674 1.006,-0.082 1.755,-0.964 1.673,-1.969 M 19.959393,-55.061468 c -0.717,0.058 -1.348,-0.478 -1.406,-1.195 -0.058,-0.718 0.478,-1.348 1.195,-1.407 0.718,-0.058 1.348,0.478 1.406,1.196 0.058,0.717 -0.476,1.347 -1.195,1.406 m -0.295,-3.643 c -1.291,0.105 -2.256,1.241 -2.151,2.532 0.105,1.292 1.24,2.255 2.53,2.151 1.291,-0.105 2.257,-1.239 2.152,-2.531 -0.105,-1.291 -1.24,-2.257 -2.531,-2.152 m 2.011406,2.194297 c -0.082,-1.006 -0.963,-1.755 -1.97,-1.673 -1.005,0.081 -1.754,0.963 -1.673,1.968 0.082,1.006 0.964,1.755 1.969,1.674 1.006,-0.082 1.756,-0.964 1.674,-1.969 m -8.506403,-5.199704 c -0.717,0.058 -1.348,-0.479 -1.406,-1.195 -0.058,-0.717 0.478,-1.349 1.195,-1.407 0.717,-0.058 1.347,0.479 1.405,1.195 0.058,0.717 -0.476,1.349 -1.194,1.407 m -0.295,-3.644 c -1.292,0.106 -2.257,1.241 -2.152,2.533 0.105,1.291 1.24,2.255 2.531,2.15 1.291,-0.104 2.256,-1.239 2.151,-2.53 -0.104,-1.292 -1.24,-2.257 -2.53,-2.153 m 2.010811,2.194703 c -0.082,-1.007 -0.963,-1.756 -1.969,-1.674 -1.007,0.081 -1.756,0.963 -1.674,1.97 0.081,1.004 0.963,1.753 1.969,1.671 1.006,-0.081 1.756,-0.963 1.674,-1.967 m 62.200206,-1.512709 c -0.717,0.059 -1.349,-0.479 -1.406,-1.196 -0.059,-0.717 0.477,-1.349 1.195,-1.407 0.718,-0.058 1.349,0.479 1.407,1.196 0.058,0.718 -0.478,1.348 -1.196,1.407 m -0.295,-3.642 c -1.291,0.105 -2.257,1.239 -2.152,2.531 0.104,1.291 1.241,2.256 2.532,2.15 1.291,-0.104 2.256,-1.239 2.15,-2.53 -0.104,-1.292 -1.239,-2.255 -2.53,-2.151 m 2.010782,2.192816 c -0.081,-1.005 -0.963,-1.756 -1.969,-1.675 -1.007,0.082 -1.754,0.966 -1.673,1.971 0.082,1.005 0.962,1.756 1.969,1.674 1.006,-0.081 1.755,-0.964 1.673,-1.97 M 24.502394,-70.48727 c -0.717,0.058 -1.348,-0.476 -1.406,-1.194 -0.058,-0.719 0.478,-1.348 1.195,-1.406 0.717,-0.058 1.349,0.476 1.407,1.195 0.058,0.718 -0.478,1.346 -1.196,1.405 m -0.295,-3.642 c -1.291,0.105 -2.256,1.241 -2.152,2.533 0.105,1.29 1.24,2.255 2.532,2.15 1.291,-0.104 2.256,-1.24 2.152,-2.53 -0.105,-1.292 -1.241,-2.257 -2.532,-2.153 m 2.010301,2.194687 c -0.082,-1.007 -0.962,-1.755 -1.968,-1.674 -1.006,0.082 -1.755,0.963 -1.673,1.97 0.081,1.005 0.962,1.755 1.968,1.673 1.006,-0.082 1.755,-0.963 1.673,-1.969 m 21.599207,4.374113 c -0.719,0.058 -1.35,-0.479 -1.408,-1.197 -0.059,-0.716 0.478,-1.348 1.197,-1.407 0.716,-0.057 1.348,0.479 1.405,1.196 0.059,0.718 -0.478,1.349 -1.194,1.408 m -0.296,-3.643 c -1.291,0.105 -2.257,1.242 -2.152,2.531 0.105,1.292 1.241,2.257 2.532,2.152 1.29,-0.104 2.256,-1.24 2.151,-2.533 -0.104,-1.288 -1.241,-2.254 -2.531,-2.15 m 2.009798,2.192795 c -0.081,-1.005 -0.962,-1.753 -1.968,-1.672 -1.006,0.082 -1.755,0.963 -1.673,1.967 0.082,1.009 0.962,1.756 1.969,1.675 1.006,-0.082 1.754,-0.962 1.672,-1.97 m 10.681711,2.538992 c -0.717,0.058 -1.349,-0.479 -1.406,-1.196 -0.059,-0.718 0.478,-1.349 1.194,-1.408 0.717,-0.057 1.348,0.479 1.406,1.197 0.059,0.717 -0.478,1.348 -1.194,1.407 m -0.296,-3.642 c -1.292,0.105 -2.256,1.241 -2.151,2.53 0.105,1.291 1.239,2.257 2.531,2.152 1.292,-0.104 2.257,-1.241 2.152,-2.532 -0.105,-1.289 -1.24,-2.255 -2.532,-2.15 m 2.011811,2.191796 c -0.081,-1.004 -0.963,-1.754 -1.97,-1.672 -1.005,0.082 -1.755,0.964 -1.673,1.968 0.081,1.008 0.963,1.755 1.969,1.674 1.006,-0.082 1.756,-0.962 1.674,-1.97 M 23.641597,-18.08737 c -0.718,0.058 -1.348,-0.478 -1.406,-1.195 -0.058,-0.718 0.477,-1.349 1.195,-1.407 0.717,-0.059 1.348,0.478 1.406,1.196 0.058,0.717 -0.478,1.348 -1.195,1.406 m -0.295,-3.642 c -1.291,0.104 -2.257,1.24 -2.152,2.531 0.105,1.291 1.24,2.256 2.531,2.151 1.291,-0.104 2.256,-1.24 2.151,-2.531 -0.104,-1.292 -1.24,-2.256 -2.53,-2.151 m 2.010301,2.193298 c -0.082,-1.006 -0.963,-1.756 -1.969,-1.674 -1.006,0.081 -1.755,0.963 -1.674,1.97 0.082,1.005 0.964,1.754 1.97,1.673 1.006,-0.082 1.755,-0.964 1.673,-1.969 m -6.955994,19.15670685 c -0.718,0.058 -1.348,-0.477 -1.406,-1.19399995 -0.058,-0.719 0.477,-1.349 1.195,-1.407 0.717,-0.059 1.348,0.477 1.406,1.196 0.058,0.7169999 -0.478,1.34699995 -1.195,1.40499995 m -0.296,-3.64299995 c -1.29,0.105 -2.255,1.242 -2.151,2.533 0.105,1.28999995 1.24,2.25599995 2.531,2.15099995 1.291,-0.104 2.256,-1.241 2.152,-2.53099995 -0.105,-1.2920001 -1.241,-2.258 -2.532,-2.153 m 2.011811,2.1952897 c -0.082,-1.007 -0.963,-1.756 -1.969,-1.674 -1.006,0.081 -1.755,0.962 -1.673,1.969 0.081,1.00599995 0.963,1.75399995 1.968,1.67299995 1.006,-0.082 1.756,-0.963 1.674,-1.96799995 m 53.421791,-8.8535906 c -0.574,0.046 -1.078,-0.383 -1.124,-0.956 -0.047,-0.573 0.382,-1.079 0.955,-1.126 0.573,-0.046 1.079,0.384 1.126,0.957 0.046,0.573 -0.384,1.079 -0.957,1.125 m -0.254,-3.121 c -1.147,0.093 -2.005,1.101 -1.912,2.25 0.093,1.146 1.103,2.0059998 2.25,1.9129998 1.148,-0.094 2.005,-1.1039998 1.912,-2.2509998 -0.093,-1.148 -1.101,-2.005 -2.25,-1.912 m 1.730595,1.95409 c -0.07,-0.862001 -0.826,-1.504001 -1.688,-1.435001 -0.863,0.071 -1.503,0.827 -1.434,1.688001 0.07,0.863 0.825,1.504 1.687,1.434 0.863,-0.07 1.505,-0.824 1.435,-1.687 m -14.892605,-6.84431 c -0.718,0.058 -1.349,-0.479 -1.407,-1.195 -0.058,-0.718 0.478,-1.349 1.196,-1.407 0.717,-0.058 1.349,0.478 1.406,1.196 0.059,0.716 -0.477,1.347 -1.195,1.406 m -0.296,-3.642 c -1.29,0.105 -2.257,1.24 -2.151,2.532 0.104,1.291 1.241,2.256 2.532,2.152 1.291,-0.105 2.255,-1.241 2.15,-2.533 -0.104,-1.291 -1.239,-2.256 -2.531,-2.151 m 2.011896,2.193808 c -0.082,-1.006 -0.964,-1.755 -1.969,-1.673 -1.007,0.082 -1.755,0.963 -1.673,1.968 0.082,1.007 0.962,1.755 1.968,1.674 1.006,-0.082 1.755,-0.962 1.674,-1.969 m -27.09618,-14.429198 c -0.717,0.058 -1.349,-0.477 -1.407,-1.194 -0.058,-0.719 0.479,-1.349 1.196,-1.408 0.717,-0.058 1.348,0.478 1.406,1.196 0.058,0.718 -0.478,1.347 -1.195,1.406 m -0.295,-3.643 c -1.291,0.105 -2.257,1.241 -2.152,2.533 0.104,1.29 1.241,2.255 2.531,2.15 1.291,-0.105 2.257,-1.24 2.152,-2.53 -0.104,-1.292 -1.241,-2.257 -2.531,-2.153 m 2.00979,2.195205 c -0.082,-1.007 -0.961,-1.756 -1.968,-1.674 -1.006,0.081 -1.755,0.962 -1.673,1.969 0.082,1.005 0.962,1.754 1.969,1.672 1.006,-0.081 1.754,-0.962 1.672,-1.967 m 36.997598,1.753399 c -0.719,0.059 -1.349,-0.478 -1.407,-1.195 -0.058,-0.718 0.477,-1.349 1.196,-1.407 0.716,-0.058 1.347,0.478 1.404,1.195 0.059,0.718 -0.476,1.349 -1.193,1.407 m -0.296,-3.643 c -1.291,0.105 -2.257,1.241 -2.151,2.532 0.104,1.292 1.24,2.256 2.531,2.151 1.29,-0.105 2.256,-1.24 2.151,-2.531 -0.104,-1.291 -1.241,-2.256 -2.531,-2.152 m 2.010819,2.194297 c -0.082,-1.006 -0.963,-1.755 -1.969,-1.673 -1.007,0.081 -1.756,0.963 -1.674,1.968 0.081,1.006 0.962,1.755 1.97,1.673 1.006,-0.081 1.754,-0.963 1.673,-1.968 m 1.488274,-16.618592 c -0.717,0.058 -1.349,-0.478 -1.407,-1.196 -0.058,-0.718 0.478,-1.347 1.196,-1.406 0.717,-0.058 1.348,0.477 1.406,1.195 0.058,0.718 -0.477,1.348 -1.195,1.407 m -0.296,-3.643 c -1.291,0.105 -2.256,1.241 -2.151,2.532 0.104,1.291 1.24,2.257 2.532,2.153 1.29,-0.105 2.254,-1.242 2.149,-2.534 -0.104,-1.29 -1.239,-2.255 -2.53,-2.151 m 2.011811,2.193702 c -0.082,-1.005 -0.964,-1.754 -1.969,-1.672 -1.007,0.082 -1.755,0.963 -1.674,1.967 0.082,1.008 0.963,1.756 1.969,1.675 1.006,-0.082 1.756,-0.963 1.674,-1.97 m -26.233399,12.342303 c -0.717,0.058 -1.348,-0.478 -1.406,-1.195 -0.058,-0.718 0.477,-1.348 1.195,-1.407 0.717,-0.058 1.349,0.478 1.407,1.196 0.058,0.717 -0.478,1.348 -1.196,1.406 m -0.295,-3.641 c -1.292,0.104 -2.256,1.239 -2.151,2.53 0.104,1.291 1.239,2.257 2.531,2.152 1.291,-0.104 2.256,-1.241 2.151,-2.532 -0.104,-1.292 -1.24,-2.255 -2.531,-2.15 m 2.010811,2.192297 c -0.082,-1.005 -0.963,-1.755 -1.969,-1.673 -1.006,0.081 -1.755,0.963 -1.674,1.969 0.082,1.006 0.964,1.755 1.969,1.674 1.007,-0.082 1.755,-0.964 1.674,-1.97 m -5.810513,24.960898 c -0.718,0.059 -1.348,-0.478 -1.406,-1.195 -0.058,-0.718 0.477,-1.348 1.195,-1.406 0.716,-0.058 1.347,0.477 1.404,1.195 0.059,0.718 -0.476,1.348 -1.193,1.406 m -0.296,-3.643 c -1.291,0.105 -2.257,1.242 -2.151,2.533 0.104,1.29 1.24,2.255 2.531,2.15 1.291,-0.104 2.256,-1.24 2.151,-2.53 -0.104,-1.291 -1.24,-2.258 -2.531,-2.153 m 2.011811,2.19478 c -0.082,-1.007 -0.964,-1.755 -1.97,-1.674 -1.006,0.082 -1.755,0.963 -1.673,1.97 0.082,1.005 0.962,1.753 1.969,1.672 1.006,-0.082 1.755,-0.963 1.674,-1.968 m 6.302693,11.9590027 c -0.717,0.058 -1.349,-0.479 -1.406,-1.196 -0.059,-0.718 0.478,-1.349 1.195,-1.4069997 0.718,-0.058 1.348,0.4779997 1.406,1.1959997 0.058,0.717 -0.477,1.348 -1.195,1.407 m -0.295,-3.6429997 c -1.292,0.105 -2.256,1.2399997 -2.151,2.5309997 0.104,1.2920001 1.239,2.2570001 2.531,2.1520001 1.29,-0.105 2.256,-1.2400001 2.15,-2.5320001 -0.104,-1.2909997 -1.24,-2.2549997 -2.53,-2.1509997 m 2.009904,2.1938154 c -0.081,-1.005 -0.962,-1.7550004 -1.968,-1.6730004 -1.006,0.082 -1.756,0.9640004 -1.675,1.9680004 0.082,1.007 0.965,1.7560001 1.971,1.6750001 1.005,-0.082 1.754,-0.9640001 1.672,-1.9700001 m 5.288088,0.3418016 c -0.501,0.041 -0.942,-0.335 -0.982,-0.837 -0.041,-0.502 0.334,-0.943 0.835,-0.984 0.501,-0.04 0.945,0.334 0.985,0.836 0.041,0.502 -0.336,0.944 -0.838,0.985 m -0.232,-2.863 c -1.076,0.088 -1.88,1.035 -1.793,2.11 0.087,1.076 1.034,1.881 2.11,1.794 1.076,-0.088 1.88,-1.034 1.793,-2.11 -0.087,-1.076 -1.033,-1.881 -2.11,-1.794 m 1.589398,1.8355827 c -0.064,-0.7899997 -0.757,-1.3789997 -1.547,-1.3139997 -0.79,0.064 -1.378,0.756 -1.314,1.5459997 0.064,0.792 0.757,1.379 1.546,1.315 0.791,-0.064 1.378,-0.755 1.315,-1.547 m -38.695805,2.3549954 c -0.358,0.029 -0.674,-0.2390001 -0.703,-0.5980001 -0.029,-0.358 0.239,-0.673 0.598,-0.703 0.358,-0.029 0.674,0.239 0.703,0.598 0.029,0.359 -0.239,0.6740001 -0.598,0.7030001 m -0.19,-2.3400001 c -0.932,0.075 -1.629,0.894 -1.554,1.827 0.076,0.9330001 0.897,1.6300001 1.828,1.5540001 0.933,-0.075 1.63,-0.896 1.555,-1.8290001 -0.076,-0.932 -0.897,-1.628 -1.829,-1.552 m 1.307701,1.5944031 c -0.053,-0.646 -0.619,-1.127 -1.266,-1.075 -0.646,0.053 -1.127,0.618 -1.074,1.265 0.052,0.6470001 0.618,1.1290001 1.264,1.0770001 0.647,-0.053 1.128,-0.62 1.076,-1.2670001 m 4.373008,-2.055685 c -0.718,0.058 -1.349,-0.4780001 -1.407,-1.1950001 -0.058,-0.718 0.478,-1.349 1.196,-1.407 0.716,-0.059 1.348,0.478 1.406,1.196 0.058,0.717 -0.478,1.348 -1.195,1.4060001 m -0.296,-3.6430001 c -1.291,0.105 -2.255,1.241 -2.15,2.532 0.105,1.2910001 1.238,2.2560001 2.53,2.1510001 1.291,-0.105 2.257,-1.2400001 2.152,-2.5310001 -0.105,-1.292 -1.241,-2.257 -2.532,-2.152 m 2.011811,2.194298 c -0.082,-1.007001 -0.963,-1.756001 -1.97,-1.674001 -1.006,0.081 -1.755,0.963 -1.673,1.970001 0.082,1.005 0.963,1.7539997 1.969,1.6729997 1.006,-0.082 1.756,-0.9639997 1.674,-1.9689997 M 18.603496,-24.444289 c -0.717,0.058 -1.348,-0.478 -1.406,-1.195 -0.058,-0.718 0.478,-1.347 1.195,-1.406 0.717,-0.058 1.349,0.477 1.407,1.194 0.058,0.719 -0.478,1.349 -1.196,1.407 m -0.295,-3.643 c -1.29,0.105 -2.255,1.241 -2.15,2.532 0.104,1.29 1.239,2.256 2.529,2.152 1.292,-0.105 2.257,-1.242 2.152,-2.532 -0.105,-1.291 -1.24,-2.257 -2.531,-2.152 m 2.011804,2.194212 c -0.082,-1.006 -0.963,-1.754 -1.97,-1.673 -1.005,0.082 -1.755,0.962 -1.673,1.968 0.082,1.007 0.964,1.756 1.969,1.674 1.006,-0.082 1.756,-0.963 1.674,-1.969 m -22.6538087,17.4819982 -3.977,-0.862 c -2.661,-0.8470002 -5.1310003,-2.2860002 -7.2030003,-4.1880002 z M -14.750509,-14.557079 c -0.075,0.006 -0.146,0.044 -0.191,0.109 -0.073,0.1 -0.063,0.24 0.022,0.331 2.32,2.473 5.2510003,4.3220002 8.4750003,5.3480002 l 6.41299999,1.392 c 0.132,0.03 0.261,-0.046 0.303,-0.173 0.042,-0.129 -0.019,-0.265 -0.141,-0.32 L -14.621509,-14.535079 c -0.042,-0.018 -0.086,-0.025 -0.129,-0.022 m 11.0835262,7.6274145 c -0.556,-0.5010001 -1.078,-1.0290001 -1.558,-1.5740001 l 4.13,0.895 z m -2.72,-2.3480001 c -0.106,0.008 -0.2,0.084 -0.231,0.192 -0.034,0.135 0.041,0.274 0.174,0.317 l 0.191,0.062 c 0.079,0.027 0.158,0.054 0.237,0.079 0.627,0.761 1.335,1.4940001 2.106,2.1810001 0.064,0.059 0.155,0.078 0.24,0.058 l 3.76000004,-0.9910001 c 0.117,-0.031 0.197,-0.138 0.194,-0.258 -0.002,-0.121 -0.088,-0.224 -0.204,-0.25 l -6.39100004,-1.386 c -0.024,-0.005 -0.05,-0.007 -0.076,-0.004 M 94.309117,-44.399884 c -0.09,0.007 -0.174,0.062 -0.216,0.15 -0.056,0.124 -0.01,0.272 0.111,0.337 l 1.039,0.578 c 0.063,0.036 0.136,0.043 0.207,0.02 0.067,-0.023 0.124,-0.071 0.155,-0.136 0.016,-0.033 0.031,-0.069 0.044,-0.105 0.029,-0.065 0.042,-0.17 0.014,-0.237 -0.027,-0.067 -0.068,-0.148 -0.137,-0.173 l -1.103,-0.419 c -0.038,-0.013 -0.077,-0.018 -0.114,-0.015 m -2.234409,-22.466296 1.134,-3.934 c 0.39,1.856 0.371,3.772 -0.066,5.621 z m 1.13,-5.197 c -0.108,0.009 -0.2,0.082 -0.229,0.188 l -1.433,4.978 c -0.022,0.072 -0.011,0.148 0.03,0.212 l 1.451,2.294 c 0.055,0.086 0.161,0.132 0.258,0.118 0.103,-0.015 0.186,-0.086 0.214,-0.187 0.69,-2.427 0.683,-4.992 -0.019,-7.416 -0.032,-0.113 -0.133,-0.188 -0.251,-0.189 -0.007,0.001 -0.013,0.001 -0.021,0.002 m -0.733519,8.952905 -0.293,-2.617 0.783,1.236 c -0.138,0.474 -0.303,0.935 -0.49,1.381 m -0.699,-3.975 c -0.022,0.002 -0.045,0.006 -0.066,0.015 -0.115,0.04 -0.187,0.153 -0.173,0.275 l 0.523,4.664 c 0.013,0.115 0.101,0.208 0.215,0.228 0.115,0.022 0.225,-0.038 0.278,-0.142 l 0.087,-0.164 c 0.348,-0.71 0.637,-1.468 0.859,-2.251 0.021,-0.071 0.009,-0.148 -0.03,-0.211 l -1.452,-2.293 c -0.054,-0.084 -0.147,-0.128 -0.241,-0.121 m 2.799501,22.757193 -1.522,-13.607 c 1.858,1.406 2.865,3.726 2.591,6.059 -0.084,0.728 -0.293,1.44 -0.622,2.114 -0.035,0.074 -0.034,0.16 0.004,0.234 0.607,1.176 0.846,2.493 0.694,3.811 -0.068,0.562 -0.209,1.121 -0.425,1.661 z m -1.867,-14.409 c -0.041,0.003 -0.08,0.016 -0.117,0.039 -0.086,0.053 -0.131,0.15 -0.12,0.251 l 1.603,14.336 c 0.011,0.097 0.076,0.18 0.168,0.215 l 1.104,0.418 c 0.127,0.046 0.276,-0.012 0.331,-0.139 0.291,-0.659 0.478,-1.345 0.561,-2.039 0.16,-1.38 -0.078,-2.756 -0.69,-3.995 0.321,-0.692 0.529,-1.421 0.615,-2.166 0.318,-2.717 -0.975,-5.419 -3.294,-6.882 -0.049,-0.03 -0.106,-0.043 -0.161,-0.038 m 0.130723,15.709791 -11.655,-8.075 12.718,7.023 z m -16.051,-11.048 c -0.08,0.006 -0.155,0.049 -0.2,0.123 -0.073,0.118 -0.042,0.273 0.072,0.352 l 16.059,11.126 c 0.104,0.072 0.242,0.059 0.333,-0.029 l 1.466,-1.451 c 0.057,-0.058 0.087,-0.14 0.074,-0.222 -0.011,-0.081 -0.06,-0.152 -0.132,-0.193 l -17.525,-9.674 c -0.045,-0.026 -0.097,-0.036 -0.147,-0.032 m 0.474792,0.21302 14.328,-12.44 0.461,4.093 c -0.495,0.959 -1.097,1.846 -1.796,2.638 -0.061,0.068 -0.081,0.166 -0.051,0.255 0.03,0.088 0.104,0.153 0.195,0.173 0.735,0.151 1.436,0.428 2.085,0.821 l 1.534,13.71 z m 14.513,-13.223 c -0.055,0.004 -0.108,0.026 -0.151,0.062 l -14.986,13.012 c -0.065,0.054 -0.099,0.139 -0.09,0.224 0.01,0.086 0.06,0.16 0.133,0.201 l 17.525,9.674 c 0.086,0.047 0.192,0.044 0.273,-0.011 0.08,-0.054 0.125,-0.148 0.113,-0.246 l -1.604,-14.338 c -0.008,-0.078 -0.052,-0.149 -0.119,-0.19 -0.607,-0.384 -1.259,-0.671 -1.943,-0.858 0.625,-0.757 1.171,-1.593 1.625,-2.488 0.023,-0.045 0.032,-0.096 0.026,-0.147 l -0.521,-4.664 c -0.012,-0.096 -0.076,-0.178 -0.166,-0.213 -0.037,-0.015 -0.076,-0.021 -0.115,-0.018 m -14.699491,12.693204 0.115,-11.33 13.856,-0.798 z m -0.165,-11.836 c -0.135,0.01 -0.239,0.123 -0.24,0.257 l -0.122,12.153 c -0.002,0.104 0.057,0.197 0.15,0.24 0.094,0.043 0.204,0.028 0.281,-0.04 l 14.986,-13.01 c 0.086,-0.072 0.114,-0.192 0.072,-0.296 -0.043,-0.102 -0.146,-0.169 -0.258,-0.162 l -14.863,0.857 c -0.002,0.001 -0.004,0.001 -0.006,0.001 m -3.229517,30.579188 3.31,-17.721 15.321,10.614 z m 3.106,-18.427 c -0.026,0.002 -0.052,0.01 -0.079,0.02 -0.081,0.034 -0.139,0.105 -0.156,0.194 l -3.47,18.574 c -0.017,0.094 0.017,0.188 0.09,0.249 0.071,0.061 0.172,0.077 0.259,0.044 l 19.529,-7.45 c 0.091,-0.036 0.155,-0.118 0.166,-0.212 0.013,-0.097 -0.031,-0.192 -0.11,-0.247 l -16.06,-11.126 c -0.049,-0.035 -0.109,-0.051 -0.169,-0.046 m -6.411707,14.84741 5.79,-12.568 -2.981,15.962 z m 6.412,-14.847 c -0.092,0.007 -0.176,0.064 -0.216,0.152 l -6.738,14.625 c -0.043,0.09 -0.028,0.197 0.035,0.275 l 3.269,3.951 c 0.065,0.079 0.166,0.115 0.267,0.085 0.097,-0.025 0.172,-0.104 0.191,-0.203 l 3.469,-18.578 c 0.025,-0.128 -0.052,-0.255 -0.176,-0.295 -0.034,-0.011 -0.068,-0.015 -0.101,-0.012 m -0.229383,-0.778503 -7.772,-14.797 7.883,3.845 z m -8.395,-15.641 c -0.062,0.005 -0.122,0.031 -0.165,0.079 -0.081,0.079 -0.097,0.201 -0.044,0.302 l 8.623,16.42 c 0.056,0.107 0.177,0.159 0.293,0.133 0.116,-0.028 0.199,-0.132 0.2,-0.251 l 0.123,-12.153 c 0.001,-0.1 -0.058,-0.193 -0.148,-0.238 l -8.746,-4.266 c -0.043,-0.022 -0.09,-0.03 -0.136,-0.026 m -7.517085,2.831888 7.407,-2.261 7.912,15.063 z m 7.518,-2.832 c -0.018,0.001 -0.039,0.005 -0.055,0.01 l -8.075,2.462 c -0.092,0.029 -0.16,0.104 -0.181,0.2 -0.019,0.093 0.016,0.187 0.09,0.251 l 16.698,13.957 c 0.097,0.08 0.235,0.081 0.331,0.002 0.097,-0.076 0.125,-0.213 0.068,-0.323 l -8.624,-16.42 c -0.05,-0.094 -0.15,-0.148 -0.252,-0.139 m -15.268914,27.174322 23.394,-9.989 -6.368,13.82 z m 23.893,-10.755 c -0.029,0.003 -0.055,0.01 -0.082,0.02 l -24.759,10.571 c -0.106,0.046 -0.167,0.152 -0.158,0.264 0.011,0.113 0.092,0.207 0.203,0.231 l 18.021,4.056 c 0.12,0.024 0.242,-0.035 0.293,-0.148 l 6.74,-14.624 c 0.045,-0.098 0.026,-0.215 -0.05,-0.29 -0.056,-0.057 -0.132,-0.086 -0.208,-0.08 m -24.310004,10.365378 7.76,-23.617 16.076,13.44 z m 7.61,-24.323 c -0.016,0.001 -0.034,0.005 -0.049,0.01 -0.084,0.021 -0.151,0.088 -0.177,0.168 l -8.061,24.529 c -0.031,0.098 -0.004,0.205 0.072,0.274 0.076,0.07 0.183,0.089 0.279,0.049 l 24.759,-10.571 c 0.084,-0.036 0.142,-0.113 0.156,-0.203 0.012,-0.09 -0.022,-0.179 -0.091,-0.238 l -16.699,-13.959 c -0.052,-0.042 -0.12,-0.065 -0.189,-0.059 M 8.3260915,-76.949185 c 2.1590005,-1.985 4.7380005,-3.509 7.5130005,-4.438 l -3.868,6.506 z m 8.0660005,-5.153 c -0.017,0.001 -0.036,0.004 -0.053,0.009 -3.211,0.957 -6.195,2.689 -8.6300005,5.008 -0.061,0.056 -0.09,0.138 -0.081,0.219 0.011,0.083 0.06,0.155 0.132,0.195 l 4.1740005,2.37 c 0.123,0.071 0.281,0.03 0.355,-0.093 l 4.349,-7.316 c 0.055,-0.092 0.047,-0.21 -0.019,-0.294 -0.055,-0.069 -0.14,-0.106 -0.227,-0.098 m -10.7221769,8.114893 c 0.682,-0.925 1.439,-1.792 2.259,-2.589 l 3.3229999,1.887 z m 2.198,-3.171 c -0.059,0.005 -0.115,0.029 -0.159,0.073 -1.042,0.989 -1.988,2.092 -2.814,3.281 -0.058,0.086 -0.061,0.198 -0.008,0.285 0.052,0.088 0.159,0.122 0.255,0.124 l 6.9549999,-0.872 c 0.112,-0.015 0.201,-0.099 0.223,-0.208 0.022,-0.112 -0.029,-0.224 -0.126,-0.279 l -4.1759999,-2.37 c -0.047,-0.026 -0.1,-0.038 -0.15,-0.034 M 68.7026,-91.652266 c 0.979,-0.324 1.988,-0.53 3.006,-0.612 0.836,-0.069 1.683,-0.052 2.521,0.045 0.503,0.059 1,0.147 1.491,0.262 l -6.888,0.576 z m 2.964,-1.133 v 0 c -1.158,0.095 -2.308,0.342 -3.413,0.735 -0.07,0.024 -0.126,0.078 -0.155,0.146 -0.027,0.069 -0.024,0.146 0.007,0.213 l 0.333,0.697 c 0.047,0.098 0.149,0.156 0.257,0.148 l 8.46,-0.706 c 0.123,-0.01 0.222,-0.105 0.237,-0.227 0.016,-0.122 -0.056,-0.239 -0.172,-0.279 -0.943,-0.333 -1.93,-0.563 -2.931,-0.679 -0.87,-0.102 -1.754,-0.118 -2.623,-0.048 m -17.221786,20.855586 11.701,-22.64 c 0.115,1.202 0.269,2.353 0.453,3.433 0.016,0.081 0.068,0.151 0.14,0.187 0.074,0.039 0.161,0.041 0.234,0 0.385,-0.19 0.79,-0.365 1.236,-0.53 l 0.163,0.344 z m 11.861,-23.82 c -0.09,0.008 -0.17,0.059 -0.211,0.14 l -13.705,26.518 c -0.063,0.119 -0.02,0.269 0.094,0.341 0.116,0.072 0.269,0.042 0.35,-0.069 l 16.052,-22.134 c 0.056,-0.078 0.066,-0.18 0.025,-0.266 l -0.335,-0.698 c -0.057,-0.12 -0.195,-0.182 -0.322,-0.133 -0.429,0.152 -0.824,0.312 -1.197,0.484 -0.198,-1.208 -0.354,-2.508 -0.464,-3.862 0.006,-0.027 0.009,-0.055 0.007,-0.083 -0.011,-0.145 -0.148,-0.224 -0.288,-0.238 z m -17.633501,10.512388 c 0.979,-1.947 2.434,-3.622 4.216,-4.853 0.032,-0.023 0.06,-0.052 0.08,-0.089 1.382,-2.488 2.571,-5.286 3.535,-8.319 l 9.553,2.903 0.004,0.053 -13.358,25.845 z m 7.64,-13.847 c -0.104,0.009 -0.197,0.078 -0.229,0.183 -0.961,3.075 -2.151,5.906 -3.542,8.417 -1.858,1.296 -3.372,3.059 -4.381,5.101 -0.027,0.057 -0.033,0.121 -0.017,0.181 l 4.226,16.296 c 0.026,0.104 0.116,0.181 0.224,0.192 0.109,0.009 0.211,-0.044 0.261,-0.139 l 13.704,-26.517 c 0.022,-0.042 0.032,-0.091 0.028,-0.14 l -0.023,-0.302 c -0.007,-0.109 -0.08,-0.2 -0.185,-0.23 l -9.97,-3.032 c -0.032,-0.009 -0.064,-0.013 -0.096,-0.01 m -0.0745,90.5985203 6.491,-0.73 -0.795,6.8040001 c -1.141,1.45399995 -2.752,2.44399995 -4.546,2.78799995 -0.031,0.007 -0.061,0.019 -0.089,0.037 -0.115,0.072 -0.234,0.142 -0.354,0.207 z m 6.769,-1.287 c -0.003,0 -0.006,10e-4 -0.009,10e-4 l -7.069,0.796 c -0.14,0.015 -0.242,0.139 -0.231,0.28 l 0.758,9.747 c 0.007,0.087 0.056,0.164 0.132,0.207 0.073,0.043 0.166,0.046 0.243,0.007 0.275,-0.135 0.499,-0.258 0.704,-0.38499995 1.923,-0.382 3.645,-1.456 4.856,-3.02899995 0.03,-0.037 0.047,-0.083 0.053,-0.129 l 0.843,-7.2050001 c 0.01,-0.079 -0.019,-0.157 -0.075,-0.214 -0.053,-0.053 -0.129,-0.082 -0.205,-0.076 m -6.665507,0.7507984 3.508,-10.0760007 2.837,9.3610007 z m 3.504,-11.1800007 c -0.103,0.009 -0.191,0.077 -0.225,0.176 l -3.909,11.2240007 c -0.028,0.085 -0.013,0.177 0.043,0.248 0.057,0.07 0.139,0.104 0.233,0.097 l 7.07,-0.795 c 0.076,-0.01 0.146,-0.053 0.188,-0.118 0.041,-0.064 0.055,-0.144 0.032,-0.217 l -3.162,-10.4300007 c -0.032,-0.108 -0.13,-0.183 -0.244,-0.185 -0.009,0.001 -0.017,0 -0.026,0 m -3.973701,10.9418054 -7.427,-9.7360004 11.047,-0.66 z m -7.953,-10.2270004 c -0.095,0.008 -0.177,0.066 -0.217,0.152 -0.041,0.088 -0.027,0.191 0.029,0.267 l 8.021,10.5110004 c 0.058,0.076 0.147,0.119 0.248,0.098 0.096,-0.015 0.175,-0.081 0.205,-0.172 l 3.908,-11.2240004 c 0.03,-0.082 0.014,-0.174 -0.038,-0.243 -0.053,-0.07 -0.137,-0.108 -0.224,-0.104 l -11.928,0.714 c -10e-4,0 -0.002,10e-4 -0.004,10e-4 m -2.098795,21.9355046 9.925,-10.556 0.696,8.98200005 c -1.278,0.59599995 -2.689,0.82699995 -4.089,0.66199995 -0.003,0 -0.122,-0.021 -0.128,-0.023 -0.059,-0.008 -0.123,0.007 -0.174,0.04 -1.472,0.941 -3.251,1.354 -4.993,1.15 -0.409,-0.048 -0.826,-0.134 -1.237,-0.255 m 10.118,-11.424 c -0.063,0.005 -0.124,0.033 -0.17,0.081 l -10.611,11.287 c -0.062,0.065 -0.085,0.155 -0.063,0.242 0.02,0.085 0.083,0.155 0.166,0.184 0.575,0.199 1.159,0.336 1.737,0.405 1.828,0.212 3.693,-0.21 5.248,-1.176 l 0.047,0.008 c 1.558,0.181 3.129,-0.092 4.539,-0.79 0.094,-0.046 0.152,-0.147 0.144,-0.254 l -0.757,-9.747 c -0.007,-0.104 -0.075,-0.193 -0.173,-0.227 -0.034,-0.011 -0.071,-0.016 -0.107,-0.013 m -23.866004,-2.4838206 15.788,-7.441001 7.525,9.8620008 z m 15.847,-8.028001 c -0.031,0.003 -0.061,0.011 -0.091,0.025 l -16.826,7.929001 c -0.105,0.051 -0.165,0.164 -0.146,0.28 0.02,0.116 0.114,0.204 0.231,0.216 l 24.845,2.5799998 c 0.102,0.012 0.204,-0.041 0.254,-0.131 0.051,-0.091 0.044,-0.204 -0.018,-0.287 l -8.021,-10.5090008 c -0.055,-0.073 -0.142,-0.11 -0.228,-0.103 m -10.360713,23.0310154 -6.036,-14.5360004 23.885,2.4820004 -10.211,10.86 c -2.071,1.139 -4.43,1.6009995 -6.785,1.326 -0.275,-0.031 -0.563,-0.077 -0.853,-0.132 m -6.466,-15.1010004 c -0.075,0.006 -0.142,0.043 -0.187,0.104 -0.055,0.074 -0.068,0.171 -0.033,0.256 l 6.257,15.0689999 c 0.033,0.08 0.104,0.138 0.189,0.156 0.351,0.071 0.698,0.128 1.032,0.168 2.455,0.284 4.92,-0.194 7.08,-1.3799995 0.04,-0.012 0.078,-0.035 0.107,-0.065 l 10.611,-11.289 c 0.069,-0.072 0.09,-0.176 0.056,-0.269 -0.035,-0.093 -0.12,-0.158 -0.218,-0.169 l -24.846,-2.5800004 c -0.016,-0.003 -0.032,-0.003 -0.048,-10e-4 m 38.284303,3.9510914 -4.625,-1.589 5.022,0.161 c -0.083,0.476 -0.216,0.954 -0.397,1.428 m -6.37,-2.166 c -0.116,0.009 -0.215,0.096 -0.236,0.213 -0.023,0.127 0.049,0.252 0.171,0.295 l 6.499,2.2310001 c 0.128,0.045 0.273,-0.019 0.325,-0.146 0.219,-0.5190001 0.382,-1.0490001 0.488,-1.5770001 0.119,0.022 0.239,0.041 0.361,0.056 1.024,0.119 2.06,0.044 3.047,-0.22 0.124,-0.033 0.205,-0.153 0.192,-0.282 -0.016,-0.129 -0.123,-0.227 -0.252,-0.232 l -10.567,-0.339 c -0.009,-10e-4 -0.018,0 -0.028,10e-4 m 2.468706,0.078113 7.688,-1.4080004 0.819,1.5380004 c -0.138,0.047 -0.278,0.091 -0.419,0.129 z m 7.809,-1.9590004 c -0.009,10e-4 -0.018,0.002 -0.027,0.004 l -10.277,1.8810004 c -0.131,0.024 -0.222,0.143 -0.212,0.276 0.01,0.132 0.118,0.236 0.251,0.241 l 10.565,0.339 c 0.026,0.002 0.052,-0.003 0.077,-0.008 0.251,-0.067 0.509,-0.151 0.787,-0.258 0.069,-0.027 0.126,-0.081 0.151,-0.153 0.025,-0.069 0.022,-0.147 -0.015,-0.213 l -1.048,-1.9700004 c -0.049,-0.094 -0.15,-0.147 -0.252,-0.139 m -10.788496,8.9320873 0.753,-6.4390001 5.922,2.035 c -1.209,2.6110001 -3.775,4.3230001 -6.675,4.4040001 m 0.511,-7.0510001 c -0.042,0.003 -0.082,0.016 -0.118,0.039 -0.067,0.043 -0.112,0.112 -0.121,0.191 l -0.841,7.2030001 c -0.014,0.118 0.052,0.228 0.161,0.272 0.108,0.043 0.233,0.009 0.304,-0.083 l 0.039,-0.047 c 3.24,-0.059 6.087,-2.014 7.335,-4.9820001 0.029,-0.066 0.027,-0.141 -0.002,-0.208 -0.031,-0.065 -0.085,-0.115 -0.153,-0.14 l -6.498,-2.232 c -0.035,-0.011 -0.071,-0.016 -0.106,-0.013 m 0.203812,-0.037797 -2.889,-9.5330002 12.282,7.814 z m -3.365,-10.3920002 c -0.049,0.004 -0.096,0.023 -0.137,0.054 -0.087,0.066 -0.124,0.179 -0.091,0.282 l 3.159,10.4290002 c 0.039,0.127 0.166,0.207 0.297,0.182 l 10.279,-1.8810002 c 0.105,-0.019 0.188,-0.102 0.21,-0.207 0.019,-0.104 -0.028,-0.211 -0.118,-0.269 l -13.437,-8.549 c -0.05,-0.03 -0.107,-0.045 -0.162,-0.041 m -88.659903,-38.078288 5.01,-3.282 -6.834,8.551 c 0.353,-1.843 0.965,-3.611 1.824,-5.269 m 6.214,-4.659 c -0.043,0.003 -0.085,0.018 -0.122,0.042 l -6.434,4.218 c -0.038,0.024 -0.069,0.057 -0.089,0.098 -1.056,2.017 -1.753,4.197 -2.073,6.477 -0.016,0.117 0.048,0.231 0.156,0.277 0.108,0.047 0.234,0.014 0.306,-0.077 l 8.48,-10.612 c 0.081,-0.1 0.075,-0.243 -0.011,-0.339 -0.055,-0.061 -0.135,-0.091 -0.213,-0.084 m -5.666601,3.677079 c 1.177,-1.977 2.717,-3.756 4.509,-5.204 l 0.843,1.696 z m 4.579,-5.868 c -0.051,0.004 -0.099,0.023 -0.14,0.055 -2.235,1.743 -4.108,3.988 -5.417,6.494 -0.055,0.104 -0.032,0.235 0.057,0.314 0.088,0.08 0.219,0.09 0.317,0.024 l 6.435,-4.218 c 0.109,-0.072 0.148,-0.216 0.09,-0.334 l -1.088,-2.191 c -0.034,-0.069 -0.099,-0.12 -0.175,-0.138 -0.026,-0.007 -0.053,-0.009 -0.079,-0.006 m 97.923886,53.071599 15.127,-17.244001 c -0.802,2.195 -2.376,4.054 -4.444,5.205 -0.08,0.045 -0.131,0.13 -0.135,0.223 -0.007,0.292 -0.026,0.587 -0.061,0.884 -0.397,3.396 -2.487,6.291 -5.592,7.739 -0.074,0.035 -0.126,0.101 -0.144,0.178 -0.094,0.41 -0.227,0.82 -0.394,1.221 z m 15.694,-18.573001 c -0.066,0.006 -0.129,0.036 -0.174,0.089 l -16.646,18.978001 c -0.082,0.092 -0.089,0.225 -0.017,0.324 0.07,0.099 0.197,0.134 0.311,0.09 l 5.487,-2.260001 c 0.063,-0.026 0.114,-0.075 0.14,-0.137 0.183,-0.422 0.328,-0.854 0.434,-1.286 3.208,-1.543 5.364,-4.559 5.777,-8.097 0.031,-0.262 0.051,-0.523 0.06,-0.783 2.476,-1.425 4.258,-3.821 4.904,-6.598 0.027,-0.116 -0.029,-0.236 -0.135,-0.291 -0.044,-0.023 -0.093,-0.032 -0.141,-0.029 m -16.259398,19.370415 4.585,-1.888001 c -0.829,1.519001 -2.172,2.730001 -3.779,3.3990007 z m 5.1,-2.652001 c -0.027,0.003 -0.053,0.009 -0.078,0.02 l -5.488,2.259001 c -0.067,0.028 -0.12,0.083 -0.144,0.153 -0.027,0.069 -0.021,0.147 0.014,0.212 l 1.05,1.9689997 c 0.062,0.118 0.198,0.166 0.322,0.122 2.047,-0.778 3.717,-2.3699997 4.584,-4.3700007 0.043,-0.097 0.022,-0.211 -0.053,-0.287 -0.054,-0.056 -0.132,-0.084 -0.207,-0.078 m -45.477913,17.0597112 -4.494,-6.4349999 5.24,6.1429999 c -0.255,0.112 -0.502,0.207 -0.746,0.292 m -7.827,-10.98 c -0.049,0.004 -0.097,0.021 -0.138,0.053 -0.111,0.085 -0.135,0.241 -0.054,0.356 l 7.704,11.03 c 0.065,0.095 0.183,0.1379997 0.294,0.099 0.423,-0.1379979 0.848,-0.3069979 1.301,-0.5159979 0.074,-0.035 0.127,-0.101 0.146,-0.181 0.016,-0.08 -0.004,-0.163 -0.056,-0.226 l -8.977,-10.525 c -0.057,-0.067 -0.139,-0.097 -0.22,-0.09 m 0.410404,0.3139935 5.117,-3.3859998 5.942,14.3079998 c -0.741,-0.188 -1.461,-0.448 -2.144,-0.78 -0.073,-0.035 -0.156,-0.034 -0.229,0 -0.009,0.005 -0.017,0.009 -0.026,0.012 z m 5.216,-4.0379998 c -0.043,0.003 -0.085,0.017 -0.123,0.042 l -5.627,3.7239998 c -0.061,0.04 -0.104,0.106 -0.114,0.181 -0.01,0.074 0.012,0.149 0.061,0.206 l 8.975,10.526 c 0.075,0.089 0.201,0.116 0.306,0.068 l 0.078,-0.033 c 0.008,-0.004 0.017,-0.008 0.026,-0.011 0.839,0.395 1.728,0.6909984 2.643,0.8809984 0.094,0.018 0.192,-0.015 0.253,-0.089 0.063,-0.075 0.078,-0.177 0.041,-0.2659984 l -6.256,-15.0689998 c -0.031,-0.072 -0.091,-0.127 -0.166,-0.149 -0.031,-0.01 -0.064,-0.014 -0.097,-0.011 m -28.5933796,-31.575812 -11.762,-24.961 7.113,1.734 c 1.24000004,0.685 2.40700004,1.511 3.47,2.449 0.074,0.066 0.176,0.082 0.266,0.048 0.091,-0.034 0.156,-0.117 0.167,-0.213 0.046,-0.395 0.11,-0.817 0.197,-1.284 l 10.9579996,2.671 z m -12.252,-25.605 c -0.071,0.006 -0.136,0.04 -0.182,0.097 -0.064,0.077 -0.077,0.183 -0.033,0.275 l 12.217,25.927 c 0.042,0.089 0.131,0.147 0.229,0.149 0.1,10e-4 0.192,-0.051 0.237,-0.139 l 10.8109996,-20.312 c 0.039,-0.07 0.041,-0.155 0.008,-0.228 -0.032,-0.076 -0.098,-0.129 -0.176,-0.148 l -11.5509996,-2.814 c -0.068,-0.018 -0.141,-0.007 -0.202,0.033 -0.06,0.037 -0.102,0.098 -0.116,0.168 -0.078,0.398 -0.14,0.764 -0.191,1.111 -0.99999996,-0.84 -2.08299996,-1.587 -3.227,-2.215 -0.02,-0.012 -0.041,-0.02 -0.064,-0.026 l -7.678,-1.871 c -0.027,-0.007 -0.056,-0.009 -0.082,-0.007 m 5.187581,1.251992 -4.789,-1.168 0.068,0.007 c 1.631,0.189 3.211,0.581 4.721,1.161 m -4.969,-1.703 c -0.091,0.007 -0.174,0.061 -0.213,0.145 l -0.22,0.454 c -0.035,0.071 -0.035,0.153 -10e-4,0.224 0.033,0.07 0.097,0.123 0.174,0.142 l 7.678,1.872 c 0.124,0.031 0.258,-0.037 0.306,-0.158 0.047,-0.123 -0.005,-0.261 -0.119,-0.324 -2.261,-1.245 -4.717,-2.03 -7.297,-2.333 l -0.262,-0.022 c -0.015,-0.003 -0.031,-0.002 -0.046,0 m 11.5852049,3.31631 c 0.096,-0.469 0.209,-0.933 0.336,-1.387 l 7.9259997,3.401 z m 0.146,-2.004 c -0.032,0.003 -0.062,0.012 -0.09,0.025 -0.068,0.031 -0.119,0.09 -0.14,0.162 -0.187,0.637 -0.349,1.297 -0.478,1.96 -0.026,0.137 0.059,0.272 0.195,0.305 l 11.5499997,2.813 c 0.134,0.035 0.268,-0.042 0.31,-0.169 0.043,-0.128 -0.019,-0.27 -0.145,-0.323 l -11.0789997,-4.754 c -0.039,-0.016 -0.082,-0.022 -0.123,-0.019 m -12.0766838,-1.344709 c -0.078,0.007 -0.1639995,0.04 -0.2079995,0.1 -0.055,0.069 -0.098,0.161 -0.068,0.246 l 0.1779995,0.487 c 0.036,0.1 0.127,0.167 0.233,0.172 0.103,0.004 0.202,-0.054 0.247,-0.147 l 0.219,-0.453 c 0.038,-0.077 0.035,-0.167 -0.007,-0.242 -0.041,-0.073 -0.116,-0.123 -0.2,-0.131 l -0.344,-0.032 c -0.016,-10e-4 -0.033,-10e-4 -0.05,0 m -10.2993165,25.194417 10.4549998,-23.82 11.787,25.013 z m 10.4259998,-24.711 c -0.095,0.008 -0.18,0.068 -0.218,0.156 l -10.8379998,24.691 c -0.034,0.077 -0.028,0.169 0.017,0.241 0.045,0.074 0.124,0.12 0.209,0.124 l 23.0539998,1.236 c 0.091,0.005 0.179,-0.039 0.23,-0.114 0.052,-0.078 0.059,-0.174 0.02,-0.257 l -12.218,-25.927 c -0.043,-0.092 -0.137,-0.153 -0.239,-0.151 -0.005,0 -0.012,10e-4 -0.017,10e-4 m -12.5465988,6.219302 12.055,-5.44 -10.169,23.168 z m 12.5460003,-6.219 c -0.029,0.003 -0.058,0.01 -0.086,0.022 l -12.8470003,5.799 c -0.102,0.047 -0.164,0.153 -0.152,0.267 l 2.009,18.891 c 0.013,0.118 0.104,0.212 0.22,0.23 0.12,0.016 0.231,-0.044 0.28,-0.154 l 10.8370003,-24.691 c 0.042,-0.1 0.021,-0.215 -0.056,-0.289 -0.055,-0.055 -0.13,-0.081 -0.205,-0.075 m -3.4323023,-0.495397 v 0 c -0.275,0.022 -0.549,0.051 -0.821,0.084 -0.131,0.016 -0.23,0.13 -0.229,0.262 0.002,0.134 0.104,0.245 0.236,0.258 l 4.2430001,0.412 c 0.09,0.006 0.176,-0.03 0.231,-0.101 0.054,-0.07 0.069,-0.163 0.039,-0.247 l -0.178,-0.489 c -0.035,-0.097 -0.122,-0.164 -0.224,-0.172 -1.1010001,-0.093 -2.2110001,-0.095 -3.2970001,-0.007 m -10.152284,4.43948 c 2.734,-2.087 5.968,-3.408 9.367,-3.833 l 3.239,0.313 -11.725,5.294 z m 9.343,-4.356 c -0.004,0.001 -0.008,0.001 -0.011,0.001 -3.574,0.442 -6.97,1.849 -9.821,4.074 -0.098,0.075 -0.128,0.211 -0.073,0.32 l 1.087,2.191 c 0.063,0.126 0.213,0.181 0.341,0.124 l 12.8470004,-5.8 c 0.108,-0.049 0.169,-0.163 0.15,-0.281 -0.019,-0.115 -0.115,-0.205 -0.231,-0.217 l -4.2430004,-0.413 c -0.015,0.001 -0.032,0 -0.046,0.001 m 32.825502,70.8643018 -0.337,-3.1599999 7.831,4.7139999 c -1.267,-0.381 -2.461,-0.982 -3.515,-1.77 -0.057,-0.043 -0.126,-0.06 -0.2,-0.049 -1.243,0.215 -2.517,0.304 -3.779,0.265 m -0.674,-3.9149999 c -0.041,0.004 -0.082,0.017 -0.118,0.04 -0.085,0.054 -0.131,0.15 -0.12,0.249 l 0.416,3.9059999 c 0.015,0.128 0.12,0.226 0.25,0.232 1.333,0.057 2.683,-0.024 4.002,-0.243 1.527,1.121 3.329,1.8650001 5.221,2.1550001 0.122,0.02 0.242,-0.052 0.285,-0.169 0.042,-0.118 -0.004,-0.249 -0.111,-0.3140001 l -9.67,-5.8189999 c -0.047,-0.03 -0.101,-0.04 -0.155,-0.037 M 4.7684977,-2.5516675 0.82249774,-7.1076676 17.935498,-1.7426675 l 0.366,3.4329999 c -0.355,-0.021 -0.717,-0.054 -1.078,-0.096 -3.315,-0.387 -6.474,-1.64999995 -9.1350003,-3.6529999 -0.04,-0.032 -0.09,-0.05 -0.142,-0.053 -0.398,-0.021 -0.792,-0.05 -1.191,-0.096 -0.644,-0.077 -1.312,-0.192 -1.987,-0.344 M 0.00149774,-7.8926676 c -0.078,0.006 -0.151,0.049 -0.196,0.118 -0.065,0.097 -0.056,0.225 0.021,0.313 l 4.60299996,5.3160001 c 0.036,0.042 0.085,0.072 0.14,0.083 0.72,0.167 1.436,0.292 2.125,0.373 0.384,0.045 0.764,0.073 1.144,0.096 2.7210003,2.03099995 5.9430003,3.3129999 9.3250003,3.7079999 0.478,0.055 0.955,0.093 1.42,0.112 0.075,0.007 0.148,-0.026 0.2,-0.082 0.052,-0.055 0.078,-0.13 0.07,-0.205 l -0.417,-3.9069999 c -0.011,-0.104 -0.082,-0.191 -0.181,-0.221 L 0.10149774,-7.8816676 c -0.033,-0.01 -0.066,-0.014 -0.1,-0.011 m -0.98928674,2.9815827 1.074,-2.2490001 3.799,4.3860001 c -1.721,-0.478 -3.356,-1.194 -4.873,-2.137 m 0.99,-2.9820001 c -0.005,0 -0.01,0.001 -0.013,0.002 -0.087,0.012 -0.164,0.066 -0.202,0.146 l -1.347,2.8190001 c -0.056,0.118 -0.016,0.261 0.096,0.332 1.852,1.182 3.882,2.036 6.033,2.532 0.109,0.025 0.224,-0.023 0.282,-0.12 0.057,-0.097 0.048,-0.22 -0.027,-0.305 l -4.604,-5.3160001 c -0.055,-0.063 -0.135,-0.097 -0.218,-0.09 m 59.918203,-12.707482 -7.479,-22.288 17.235,3.878 z m -7.895,-22.904 c -0.066,0.005 -0.127,0.036 -0.173,0.086 -0.063,0.07 -0.083,0.168 -0.055,0.257 l 7.821,23.304 c 0.033,0.099 0.122,0.169 0.227,0.176 0.105,0.013 0.203,-0.045 0.253,-0.138 l 10.198,-19.248 c 0.04,-0.072 0.041,-0.158 0.007,-0.231 -0.034,-0.073 -0.1,-0.128 -0.18,-0.146 l -18.021,-4.054 c -0.025,-0.006 -0.053,-0.008 -0.077,-0.006 m -3.772997,23.998287 3.876,-22.672 7.382,21.998 z m 3.773,-23.999 c -0.119,0.01 -0.216,0.1 -0.236,0.217 l -4.108,24.018 c -0.014,0.078 0.011,0.159 0.063,0.218 0.055,0.059 0.131,0.091 0.21,0.086 l 11.927,-0.714 c 0.072,0.007 0.156,-0.047 0.202,-0.114 0.044,-0.067 0.057,-0.153 0.031,-0.23 l -7.821,-23.303 c -0.037,-0.115 -0.142,-0.189 -0.268,-0.178 m 0.320795,-1.488292 0.53,-23.673 6.887,1.104 z m 0.255,-24.239 c -0.053,0.004 -0.105,0.024 -0.147,0.059 -0.057,0.049 -0.093,0.12 -0.093,0.194 l -0.576,25.729 c -0.002,0.13 0.088,0.241 0.217,0.263 0.125,0.024 0.251,-0.053 0.292,-0.175 l 8.061,-24.529 c 0.022,-0.074 0.014,-0.151 -0.026,-0.218 -0.04,-0.066 -0.106,-0.11 -0.182,-0.12 l -7.484,-1.2 c -0.022,-0.005 -0.042,-0.005 -0.062,-0.003 m -0.752112,23.104206 -3.619,-22.642 4.125,0.056 z m -3.945,-23.166 c -0.07,0.005 -0.133,0.037 -0.178,0.089 -0.05,0.058 -0.072,0.136 -0.06,0.212 l 4.123,25.791 c 0.021,0.133 0.14,0.228 0.275,0.22 10e-4,-10e-4 0.003,-10e-4 0.004,-10e-4 0.132,-0.011 0.236,-0.121 0.238,-0.255 l 0.576,-25.729 c 10e-4,-0.069 -0.024,-0.136 -0.072,-0.188 -0.049,-0.049 -0.115,-0.077 -0.186,-0.079 l -4.698,-0.061 c -0.009,0 -0.015,0 -0.022,0.001 m -9.665381,41.882287 13.396,-14.982 -3.878,22.684 z m 13.787,-16.093 c -0.065,0.006 -0.128,0.036 -0.175,0.087 l -14.184,15.862 c -0.047,0.054 -0.071,0.126 -0.065,0.196 0.006,0.071 0.039,0.137 0.096,0.182 l 10.078,8.155 c 0.07,0.058 0.17,0.073 0.254,0.041 0.088,-0.034 0.151,-0.11 0.167,-0.201 l 4.107,-24.018 c 0.02,-0.114 -0.04,-0.228 -0.145,-0.278 -0.043,-0.021 -0.089,-0.029 -0.133,-0.026 m -17.056027,7.777596 16.104,-6.821 -13.12,14.674 z m 17.056,-7.777 c -0.028,0.002 -0.055,0.008 -0.081,0.02 l -17.41,7.374 c -0.129,0.054 -0.192,0.202 -0.142,0.333 l 3.225,8.489 c 0.033,0.086 0.107,0.147 0.198,0.164 0.088,0.019 0.179,-0.014 0.241,-0.082 l 14.183,-15.864 c 0.083,-0.091 0.09,-0.226 0.019,-0.326 -0.055,-0.076 -0.145,-0.115 -0.233,-0.108 m -31.639997,-13.25919 27.333,-11.897 3.995,24.996 z m 27.518,-12.53 c -0.029,0.002 -0.058,0.008 -0.084,0.02 l -28.204,12.276 c -0.095,0.041 -0.158,0.137 -0.157,0.24 0.001,0.104 0.065,0.2 0.161,0.239 l 32.326,13.515 c 0.087,0.036 0.188,0.022 0.262,-0.035 0.075,-0.059 0.111,-0.154 0.096,-0.247 l -4.123,-25.791 c -0.012,-0.079 -0.061,-0.149 -0.132,-0.187 -0.046,-0.025 -0.096,-0.035 -0.145,-0.03 m -13.176195,33.10179 -14.262,-19.972 30.908,12.921 z m -15.029,-20.827 c -0.069,0.005 -0.137,0.04 -0.182,0.098 -0.073,0.09 -0.076,0.22 -0.009,0.313 l 14.917,20.89 c 0.072,0.099 0.204,0.136 0.315,0.088 l 17.407,-7.374 c 0.099,-0.042 0.161,-0.135 0.161,-0.241 0,-0.105 -0.064,-0.2 -0.161,-0.24 l -32.325,-13.514 c -0.04,-0.018 -0.082,-0.024 -0.123,-0.02 m 0.06372,30.634619 14.743,-9.098 2.988,7.865 z m 14.854,-9.747 c -0.042,0.003 -0.081,0.017 -0.117,0.038 l -15.912,9.821 c -0.102,0.063 -0.148,0.187 -0.111,0.302 0.036,0.115 0.147,0.189 0.266,0.181 l 19.138,-1.332 c 0.095,0.007 0.157,-0.05 0.202,-0.119 0.044,-0.07 0.053,-0.156 0.024,-0.233 l -3.226,-8.49 c -0.028,-0.072 -0.086,-0.128 -0.16,-0.154 -0.034,-0.012 -0.069,-0.017 -0.104,-0.014 m -15.614819,9.602489 0.955,-29.45 14.306,20.033 z m 0.697,-30.49 c -0.018,10e-4 -0.036,0.005 -0.053,0.011 -0.108,0.032 -0.183,0.128 -0.186,0.24 l -0.996,30.709 c -0.003,0.096 0.047,0.187 0.13,0.235 0.084,0.048 0.187,0.045 0.269,-0.004 l 15.911,-9.821 c 0.061,-0.037 0.104,-0.098 0.119,-0.171 0.015,-0.07 -0.002,-0.144 -0.044,-0.203 l -14.916,-20.887 c -0.053,-0.077 -0.143,-0.117 -0.234,-0.109 m 72.06382,-10.644309 -4.163,-11.314 c 2.586,1.675 4.472,4.195 5.355,7.174 z m -4.687,-12.186 c -0.054,0.004 -0.105,0.023 -0.148,0.059 -0.083,0.072 -0.114,0.189 -0.076,0.291 l 4.696,12.765 c 0.039,0.105 0.142,0.174 0.255,0.171 0.122,-0.008 0.21,-0.081 0.241,-0.19 l 1.435,-4.978 c 0.013,-0.048 0.013,-0.098 -0.002,-0.147 -0.981,-3.378 -3.202,-6.197 -6.25,-7.937 -0.046,-0.028 -0.1,-0.038 -0.151,-0.034 m -9.821794,13.60012 4.658,-22.229 c 2.217,2.235 3.536,5.165 3.733,8.301 0.005,0.096 0.064,0.182 0.153,0.222 l 0.081,0.035 c 0.118,0.054 0.236,0.108 0.354,0.165 0.221,0.109 0.44,0.224 0.652,0.346 l 4.541,12.345 z m 4.479,-23.008 c -0.02,10e-4 -0.039,0.008 -0.057,0.012 -0.09,0.03 -0.158,0.103 -0.177,0.196 l -4.825,23.029 c -0.017,0.079 0.004,0.162 0.058,0.222 0.052,0.062 0.131,0.095 0.211,0.091 l 14.865,-0.857 c 0.075,0.007 0.157,-0.049 0.204,-0.119 0.046,-0.068 0.055,-0.156 0.026,-0.232 l -4.696,-12.764 c -0.022,-0.057 -0.062,-0.106 -0.114,-0.136 -0.25,-0.143 -0.505,-0.281 -0.765,-0.409 -0.103,-0.052 -0.207,-0.096 -0.31,-0.143 -0.247,-3.366 -1.743,-6.491 -4.22,-8.819 -0.055,-0.051 -0.128,-0.077 -0.2,-0.071 m -13.172405,18.916188 12.338,-19.059 c 0.195,0.161 0.386,0.326 0.569,0.496 l -4.726,22.554 z m 12.254,-19.702 c -0.008,0.001 -0.015,0.001 -0.024,0.002 -0.071,0.014 -0.134,0.054 -0.175,0.116 l -12.653,19.547 c -0.041,0.063 -0.052,0.141 -0.031,0.212 0.02,0.072 0.069,0.133 0.136,0.164 l 8.747,4.268 c 0.072,0.036 0.157,0.034 0.228,0.001 0.075,-0.036 0.125,-0.102 0.142,-0.182 l 4.824,-23.029 c 0.018,-0.087 -0.009,-0.178 -0.076,-0.243 -0.295,-0.277 -0.609,-0.548 -0.936,-0.801 -0.053,-0.04 -0.117,-0.06 -0.182,-0.055 m -11.883908,-0.824378 8.17,-0.681 c 1.211,0.434 2.349,1.046 3.386,1.826 l -12.022,18.568 z m 8.184,-1.206 h -0.001 l -8.46,0.706 c -0.133,0.011 -0.237,0.121 -0.24,0.254 l -0.493,20.871 c -0.003,0.116 0.073,0.221 0.185,0.256 0.112,0.032 0.232,-0.008 0.296,-0.109 l 12.653,-19.546 c 0.073,-0.114 0.05,-0.263 -0.057,-0.347 -1.147,-0.894 -2.418,-1.591 -3.777,-2.07 -0.034,-0.012 -0.07,-0.018 -0.106,-0.015 m -15.979815,70.297287 8.979,-16.946 2.878,3.479 z m 8.912,-17.674 c -0.002,0 -0.004,0 -0.007,0 -0.086,0.009 -0.163,0.061 -0.203,0.138 l -10.201,19.248 c -0.062,0.118 -0.025,0.262 0.082,0.337 0.109,0.077 0.257,0.059 0.346,-0.042 l 13.468,-15.298 c 0.084,-0.097 0.087,-0.239 0.006,-0.338 l -3.269,-3.952 c -0.055,-0.065 -0.137,-0.1 -0.222,-0.093 m -23.5322,-43.534506 c 0.421,-0.152 0.844,-0.279 1.257,-0.383 0.087,-0.02 0.157,-0.085 0.185,-0.17 0.104,-0.311 0.227,-0.629 0.37,-0.96 l 3.958,15.258 -4.129,-0.055 z m 1.86,-2.544 c -0.09,0.008 -0.172,0.064 -0.214,0.146 -0.267,0.544 -0.482,1.052 -0.653,1.544 -0.452,0.116 -0.913,0.263 -1.369,0.437 -0.112,0.042 -0.181,0.157 -0.168,0.275 l 1.694,14.121 c 0.016,0.132 0.125,0.231 0.256,0.232 l 4.698,0.061 c 0.081,-0.003 0.158,-0.035 0.208,-0.099 0.051,-0.066 0.069,-0.15 0.048,-0.226 l -4.225,-16.296 c -0.028,-0.105 -0.118,-0.182 -0.228,-0.193 -0.014,-0.003 -0.031,-0.003 -0.047,-0.002 m -9.874082,10.479591 c 0.009,-10e-4 0.018,-10e-4 0.026,-0.002 0.091,-0.018 0.167,-0.081 0.199,-0.168 1.247,-3.444 3.892,-6.187 7.286,-7.571 l 1.614,13.458 -22.785,-2.667 5.605,-8.854 c 3.01,1.254 5.718,3.227 7.836,5.714 0.054,0.065 0.136,0.097 0.219,0.09 m 7.709,-8.367 c -0.024,0.002 -0.045,0.006 -0.071,0.014 -3.549,1.342 -6.349,4.096 -7.749,7.594 -2.176,-2.45 -4.915,-4.387 -7.95,-5.613 -0.117,-0.045 -0.251,-0.002 -0.319,0.102 l -5.943,9.393 c -0.048,0.074 -0.053,0.17 -0.015,0.251 0.038,0.081 0.116,0.137 0.206,0.147 l 23.525,2.752 c 0.081,0.01 0.159,-0.018 0.215,-0.076 0.057,-0.055 0.085,-0.135 0.075,-0.214 l -1.692,-14.123 c -0.011,-0.079 -0.056,-0.15 -0.124,-0.19 -0.048,-0.03 -0.104,-0.042 -0.158,-0.037 m -25.377007,6.165813 4.604,-4.984 c 1.55,0.226 3.067,0.624 4.516,1.183 l -5.566,8.796 z m 4.484,-5.522 c -0.065,0.005 -0.126,0.036 -0.172,0.084 l -4.839,5.239 c -0.084,0.091 -0.093,0.228 -0.022,0.328 l 3.902,5.483 c 0.05,0.074 0.131,0.114 0.219,0.113 0.092,0.007 0.167,-0.048 0.214,-0.122 l 5.943,-9.392 c 0.042,-0.065 0.052,-0.147 0.028,-0.219 -0.023,-0.074 -0.078,-0.132 -0.15,-0.163 -1.618,-0.654 -3.323,-1.107 -5.066,-1.349 -0.02,-0.003 -0.039,-0.003 -0.057,-0.002 m -7.293106,0.782784 c 2.216,-0.478 4.516,-0.593 6.783,-0.331 l -4.263,4.614 z m 2.669,-0.921 v 0 c -1.052,0.085 -2.107,0.25 -3.135,0.492 -0.081,0.018 -0.147,0.075 -0.18,0.151 -0.033,0.077 -0.027,0.163 0.015,0.235 l 2.88,4.894 c 0.042,0.071 0.115,0.117 0.197,0.126 0.083,0.009 0.163,-0.023 0.22,-0.081 l 4.84,-5.241 c 0.065,-0.07 0.086,-0.172 0.053,-0.263 -0.032,-0.091 -0.112,-0.158 -0.207,-0.171 l -0.121,-0.02 c -0.114,-0.016 -0.227,-0.033 -0.34,-0.048 -1.404,-0.163 -2.825,-0.187 -4.222,-0.074 m -2.053711,80.9439002 6.792,-5.2350001 7.341,10.513 c -1.446,0.4209998 -2.975,0.5479998 -4.481,0.371 -0.092,-0.01 -0.182,-0.025 -0.272,-0.039 l -0.081,-0.013 z m 6.827,-5.8670001 c -0.049,0.004 -0.098,0.021 -0.138,0.053 l -7.31,5.6340001 c -0.068,0.053 -0.106,0.135 -0.101,0.221 0.005,0.086 0.053,0.165 0.126,0.209 l 9.668,5.8209997 c 0.031,0.016 0.062,0.029 0.096,0.034 l 0.128,0.019 c 0.098,0.017 0.196,0.033 0.296,0.044 1.698,0.199 3.425,0.028 5.041,-0.497 0.079,-0.025 0.141,-0.087 0.167,-0.1659998 0.027,-0.078 0.014,-0.163 -0.034,-0.233 l -7.704,-11.029 c -0.041,-0.059 -0.103,-0.098 -0.174,-0.11 -0.02,-0.002 -0.04,-0.002 -0.061,0 m 35.068497,-60.3425021 7.843,-21.362 -0.451,19.108 z m 8.12,-23.191 c -0.099,0.007 -0.188,0.072 -0.224,0.17 l -8.569,23.333 c -0.033,0.093 -0.013,0.198 0.058,0.27 0.067,0.072 0.17,0.1 0.264,0.071 l 8.075,-2.465 c 0.108,-0.032 0.182,-0.128 0.184,-0.243 l 0.493,-20.872 c 0.003,-0.126 -0.085,-0.235 -0.212,-0.26 -0.023,-0.004 -0.046,-0.006 -0.069,-0.004 m -15.571179,22.202815 14.697,-20.266 -7.843,21.365 z m 15.571,-22.203 c -0.074,0.006 -0.143,0.045 -0.189,0.107 l -16.055,22.134 c -0.053,0.072 -0.063,0.169 -0.029,0.253 0.035,0.085 0.111,0.142 0.2,0.157 l 7.485,1.201 c 0.125,0.019 0.244,-0.051 0.287,-0.167 l 8.568,-23.335 c 0.045,-0.123 -0.008,-0.26 -0.123,-0.32 -0.046,-0.025 -0.095,-0.034 -0.144,-0.03 m -97.407392,51.087189 c -0.842,-1.599 -1.456,-3.3 -1.826,-5.066 l 9.154,1.669 z m -2.18,-5.651 c -0.061,0.005 -0.119,0.03 -0.163,0.076 -0.06,0.061 -0.087,0.148 -0.072,0.232 0.386,2.033 1.083,3.988 2.073,5.808 0.066,0.122 0.215,0.173 0.339,0.113 l 8.296,-3.849 c 0.103,-0.047 0.165,-0.156 0.149,-0.27 -0.013,-0.112 -0.1,-0.203 -0.212,-0.223 l -10.341,-1.885 c -0.023,-0.004 -0.046,-0.004 -0.069,-0.002 m 2.430895,6.110496 7.825,-3.629 20.07699954,35.2480012 -13.97299954,-6.3110002 c -2.19,-2.346001 -3.779,-5.205001 -4.596,-8.275001 -0.015,-0.059 -0.05,-0.111 -0.1,-0.146 -4.909,-3.49 -7.968,-9.149 -8.184,-15.141 -0.002,-0.051 -0.017,-0.1 -0.047,-0.14 -0.349,-0.501 -0.686,-1.041 -1.002,-1.606 m 7.911,-4.227 c -0.03,0.002 -0.06,0.011 -0.088,0.024 l -8.296,3.848 c -0.066,0.03 -0.116,0.086 -0.138,0.154 -0.024,0.069 -0.017,0.144 0.018,0.207 0.352,0.648 0.73,1.265 1.124,1.835 0.242,6.094 3.349,11.845 8.323,15.417 0.849,3.134 2.484,6.053 4.729,8.445001 0.023,0.025 0.052,0.045 0.084,0.059 l 14.75099954,6.6640002 c 0.103,0.048 0.226,0.022 0.301,-0.063 0.076,-0.083 0.09,-0.207 0.034,-0.304 L -20.343986,-43.916287 c -0.051,-0.09 -0.149,-0.139 -0.248,-0.131 m 40.730585,-13.177781 4.443,-14.279 22.35,2.616 z m 4.237,-14.823 c -0.104,0.009 -0.195,0.08 -0.228,0.184 l -4.676,15.028 c -0.031,0.097 -0.001,0.203 0.074,0.272 0.076,0.068 0.183,0.087 0.28,0.045 l 28.202,-12.277 c 0.109,-0.047 0.171,-0.161 0.155,-0.278 -0.018,-0.115 -0.112,-0.208 -0.228,-0.221 l -23.527,-2.751 c -0.017,-0.003 -0.035,-0.003 -0.052,-0.002 m -10.684203,9.20048 10.202,-8.201 -4.297,13.811 z m 10.685,-9.2 c -0.051,0.004 -0.101,0.022 -0.143,0.057 l -11.101,8.924 c -0.059,0.047 -0.094,0.117 -0.097,0.193 -0.004,0.075 0.026,0.147 0.08,0.198 l 6.426,6.106 c 0.064,0.062 0.158,0.087 0.244,0.063 0.088,-0.023 0.157,-0.089 0.185,-0.174 l 4.677,-15.029 c 0.034,-0.11 -0.008,-0.228 -0.104,-0.295 -0.049,-0.033 -0.109,-0.048 -0.167,-0.043 m -11.323703,-2.526589 7.342,-2.391 3.396,4.777 z m 7.422,-2.957 c -0.019,0.001 -0.04,0.004 -0.059,0.012 l -8.433,2.745 c -0.112,0.035 -0.184,0.14 -0.18,0.26 0.007,0.116 0.09,0.217 0.206,0.242 l 12.333,2.74 c 0.107,0.023 0.214,-0.021 0.273,-0.109 0.06,-0.092 0.058,-0.21 -0.005,-0.297 l -3.901,-5.486 c -0.053,-0.075 -0.143,-0.115 -0.234,-0.107 m -6.969789,14.163998 -1.143,-10.826 11.449,2.542 z m -1.461,-11.42 c -0.057,0.005 -0.111,0.028 -0.153,0.066 -0.062,0.055 -0.095,0.139 -0.086,0.222 l 1.231,11.662 c 0.01,0.096 0.072,0.177 0.159,0.213 0.089,0.037 0.19,0.022 0.265,-0.036 l 11.101,-8.925 c 0.078,-0.061 0.113,-0.165 0.091,-0.262 -0.023,-0.096 -0.1,-0.172 -0.198,-0.195 l -12.334,-2.739 c -0.025,-0.007 -0.051,-0.008 -0.076,-0.006 m 6.625498,72.137291 4.896,-15.819001 1.641,10.7820009 z m 4.962,-17.243001 c -0.105,0.008 -0.196,0.079 -0.228,0.183 l -5.476,17.694001 c -0.033,0.108 0.008,0.226 0.1,0.29 0.095,0.066 0.219,0.063 0.309,-0.008 l 7.31,-5.6340001 c 0.075,-0.058 0.113,-0.152 0.099,-0.245 l -1.834,-12.0590009 c -0.018,-0.122 -0.118,-0.212 -0.24,-0.221 -0.013,-0.002 -0.026,-0.002 -0.04,0 M 0.7129134,-7.6898882 23.221913,-19.120889 l -5.217,16.8530009 z M 23.630913,-19.892889 c -0.032,0.002 -0.065,0.011 -0.096,0.027 L -0.0950866,-7.8658882 c -0.094,0.048 -0.15,0.15 -0.142,0.256 0.009,0.104 0.081,0.194 0.182,0.226 l 18.1539996,5.6940001 c 0.066,0.019 0.137,0.013 0.2,-0.019 0.061,-0.033 0.107,-0.087 0.127,-0.154 l 5.476,-17.6940009 c 0.031,-0.1 -0.001,-0.209 -0.081,-0.275 -0.053,-0.046 -0.122,-0.067 -0.19,-0.061 m 70.920283,-22.791184 0.029,-1.02 0.445,0.248 c -0.138,0.266 -0.295,0.523 -0.474,0.772 m -0.242,-1.716 c -0.037,0.003 -0.075,0.014 -0.107,0.032 -0.081,0.046 -0.13,0.13 -0.133,0.221 l -0.059,2.226 c -0.003,0.109 0.061,0.208 0.163,0.25 0.102,0.041 0.218,0.012 0.291,-0.07 0.472,-0.526 0.857,-1.102 1.142,-1.711 0.058,-0.125 0.01,-0.274 -0.109,-0.34 l -1.041,-0.577 c -0.046,-0.025 -0.096,-0.035 -0.147,-0.031 m -125.120293,-7.558904 8.039,-10.061 1.905,17.914 -9.82,-1.789 c -0.339,-1.881 -0.398,-3.797 -0.177,-5.694 0.011,-0.092 0.025,-0.183 0.039,-0.273 z m 8.211,-10.98 c -0.071,0.005 -0.137,0.04 -0.183,0.097 l -8.48,10.613 c -0.029,0.036 -0.048,0.081 -0.055,0.125 l -0.025,0.166 c -0.013,0.094 -0.028,0.19 -0.039,0.287 -0.235,2.01 -0.162,4.039 0.214,6.028 0.02,0.106 0.104,0.188 0.21,0.208 l 10.341,1.885 c 0.08,0.014 0.164,-0.01 0.225,-0.065 0.06,-0.057 0.09,-0.138 0.081,-0.22 l -2.008,-18.892 c -0.012,-0.105 -0.085,-0.192 -0.187,-0.223 -0.032,-0.008 -0.064,-0.012 -0.094,-0.009 M 93.143,-42.597588 l 0.908,-0.899 -0.038,1.48 c -0.213,0.23 -0.438,0.444 -0.675,0.64 z m 1.166,-1.802 c -0.061,0.005 -0.117,0.029 -0.161,0.074 l -1.467,1.451 c -0.06,0.058 -0.088,0.143 -0.074,0.226 l 0.286,1.788 c 0.015,0.089 0.075,0.165 0.157,0.198 0.083,0.036 0.179,0.024 0.253,-0.028 0.419,-0.301 0.81,-0.655 1.161,-1.05 0.042,-0.046 0.066,-0.105 0.067,-0.167 l 0.059,-2.226 c 0.003,-0.106 -0.058,-0.203 -0.157,-0.246 -0.038,-0.017 -0.081,-0.024 -0.124,-0.02 m -19.583883,8.909903 17.933,-6.842 0.216,1.358 c -0.038,0.061 -0.064,0.13 -0.052,0.18 0.14,0.696 0.171,1.4 0.088,2.09 -0.143,1.221 -0.623,2.373 -1.392,3.34 z m 18.118,-7.46 c -0.023,0.002 -0.049,0.008 -0.071,0.016 l -19.529,7.45 c -0.119,0.045 -0.188,0.167 -0.164,0.291 0.022,0.124 0.128,0.214 0.254,0.215 l 18.307,0.137 c 0.079,10e-4 0.154,-0.036 0.204,-0.095 0.878,-1.063 1.425,-2.345 1.585,-3.706 0.083,-0.702 0.059,-1.414 -0.071,-2.12 0.038,-0.057 0.059,-0.125 0.049,-0.183 l -0.286,-1.785 c -0.012,-0.078 -0.058,-0.146 -0.126,-0.186 -0.047,-0.027 -0.099,-0.038 -0.152,-0.034 M 16.584889,-81.621078 c 0.299,-0.089 0.601,-0.17 0.904,-0.244 l 2.617,4.446 -7.463,2.43 z m 1.01,-0.805 c -0.011,0.001 -0.025,0.004 -0.038,0.008 -0.411,0.095 -0.817,0.207 -1.218,0.325 -0.064,0.019 -0.116,0.059 -0.15,0.116 l -4.35,7.318 c -0.055,0.093 -0.046,0.21 0.022,0.296 0.068,0.083 0.18,0.117 0.284,0.084 l 8.432,-2.744 c 0.075,-0.026 0.136,-0.082 0.164,-0.157 0.027,-0.074 0.021,-0.157 -0.02,-0.224 l -2.88,-4.893 c -0.05,-0.087 -0.147,-0.136 -0.246,-0.129 m 6.472926,62.864097 13.265,-7.234 -6.301,15.017001 z m 13.773,-8.078 c -0.035,0.002 -0.071,0.011 -0.104,0.029 l -14.209,7.749 c -0.07,0.038 -0.119,0.106 -0.132,0.184 -0.014,0.079 0.01,0.16 0.063,0.219 l 7.461,8.335001 c 0.059,0.067 0.147,0.097 0.237,0.084 0.088,-0.014 0.163,-0.074 0.197,-0.156 l 6.749,-16.084001 c 0.043,-0.102 0.017,-0.221 -0.065,-0.294 -0.055,-0.051 -0.127,-0.072 -0.197,-0.066 m -12.157224,19.6233999 -1.641,-10.7910009 6.675,7.458001 z m -2.052,-11.8760009 c -0.031,0.002 -0.061,0.01 -0.091,0.024 -0.103,0.048 -0.163,0.161 -0.146,0.275 l 1.834,12.0590009 c 0.013,0.088 0.071,0.163 0.152,0.199 0.082,0.036 0.176,0.028 0.249,-0.022 l 5.628,-3.7229999 c 0.063,-0.041 0.105,-0.108 0.114,-0.184 0.011,-0.075 -0.013,-0.15 -0.063,-0.207 l -7.46,-8.336001 c -0.057,-0.063 -0.137,-0.092 -0.217,-0.085 m 0.0915,-0.07759 -4.496,-5.853 17.46,-1.215 z m -5.02,-6.34 c -0.094,0.008 -0.178,0.066 -0.216,0.153 -0.04,0.087 -0.028,0.189 0.03,0.267 l 4.929,6.416 c 0.078,0.102 0.22,0.133 0.332,0.07 l 14.21,-7.747 c 0.107,-0.059 0.159,-0.186 0.124,-0.303 -0.034,-0.118 -0.145,-0.196 -0.268,-0.186 l -19.139,1.33 z M 1.4057008,-8.6268804 18.697701,-25.656881 l 4.557,5.933 z M 18.702701,-26.309881 c -0.06,0.005 -0.117,0.031 -0.162,0.074 L -0.15929918,-7.8178804 c -0.092,0.09 -0.104,0.233 -0.029,0.338 0.075,0.104 0.216,0.14 0.33,0.081 L 23.771701,-19.398881 c 0.069,-0.038 0.118,-0.101 0.136,-0.177 0.017,-0.075 0,-0.155 -0.048,-0.217 l -4.929,-6.417 c -0.045,-0.059 -0.113,-0.095 -0.188,-0.1 -0.014,-0.002 -0.026,-10e-4 -0.04,0 m -13.4453969,-47.102205 6.5759999,-0.822 1.156,10.955 -10.4559999,-4.487 c 0.62,-2.015 1.535,-3.915 2.724,-5.646 m 6.7869999,-1.375 c -0.005,0.001 -0.009,0.001 -0.012,0.001 l -6.9549999,0.871 c -0.073,0.01 -0.139,0.05 -0.182,0.11 -1.298,1.868 -2.284,3.923 -2.929,6.115 -0.038,0.128 0.026,0.26 0.148,0.315 l 11.0789999,4.75 c 0.084,0.037 0.183,0.026 0.257,-0.029 0.074,-0.055 0.115,-0.144 0.106,-0.237 l -1.232,-11.664 c -0.007,-0.07 -0.043,-0.132 -0.098,-0.176 -0.052,-0.042 -0.117,-0.061 -0.182,-0.056 m 61.521613,62.700209 0.03,-22.889001 17.468,0.13 c -0.325,0.335 -0.678,0.632 -1.055,0.884 -0.08,0.055 -0.124,0.148 -0.115,0.246 0.081,0.733 0.078,1.474 -0.006,2.201 -0.039,0.326 -0.097,0.661 -0.176,1.022 z m -0.251,-23.412001 c -0.062,0.006 -0.119,0.031 -0.163,0.075 -0.049,0.048 -0.077,0.114 -0.077,0.185 l -0.03,23.845001 c -0.001,0.11 0.066,0.208 0.167,0.246 0.102,0.038 0.217,0.009 0.29,-0.073 l 16.646,-18.978001 c 0.028,-0.032 0.048,-0.072 0.058,-0.114 0.092,-0.404 0.158,-0.778 0.2,-1.143 0.085,-0.713 0.092,-1.44 0.024,-2.161 0.52,-0.367 0.996,-0.809 1.414,-1.319 0.064,-0.078 0.078,-0.185 0.034,-0.276 -0.041,-0.092 -0.133,-0.15 -0.233,-0.152 l -18.308,-0.136 c -0.007,0 -0.015,0.001 -0.022,0.001 m -76.5068131,28.9838088 2.73599997,-0.722 -0.97399997,2.041 c -0.609,-0.402 -1.199,-0.843 -1.762,-1.319 m 3.19399997,-1.3780001 c -0.015,10e-4 -0.03,0.004 -0.046,0.008 l -3.75999997,0.9920001 c -0.092,0.023 -0.164,0.098 -0.187,0.191 -0.022,0.093 0.009,0.192 0.081,0.255 0.767,0.683 1.59,1.307 2.446,1.853 0.063,0.039 0.14,0.052 0.212,0.031 0.072,-0.021 0.132,-0.072 0.164,-0.138 l 1.34699997,-2.8190001 c 0.044,-0.092 0.03,-0.201 -0.034,-0.279 -0.056,-0.066 -0.139,-0.101 -0.223,-0.094 M 31.616193,-11.82368 l 6.352,-15.136001 9.483,7.675 z m 6.225,-15.816001 c -0.015,0.001 -0.028,0.002 -0.042,0.005 -0.08,0.021 -0.146,0.076 -0.179,0.152 l -6.748,16.084001 c -0.042,0.099 -0.018,0.215 0.06,0.289 0.079,0.077 0.192,0.096 0.292,0.048 l 16.827,-7.929001 c 0.081,-0.037 0.137,-0.115 0.147,-0.204 0.012,-0.089 -0.026,-0.178 -0.094,-0.234 l -10.078,-8.156 c -0.053,-0.042 -0.119,-0.061 -0.185,-0.055 m 22.422922,7.642214 12.81,-14.549 -0.03,22.679001 z m 13.051,-15.501 c -0.067,0.005 -0.129,0.036 -0.175,0.087 l -13.469,15.299 c -0.052,0.057 -0.074,0.133 -0.062,0.209 0.01,0.075 0.053,0.142 0.117,0.183 l 13.438,8.548001 c 0.081,0.051 0.183,0.054 0.265,0.009 0.084,-0.045 0.138,-0.134 0.137,-0.228 l 0.03,-23.847001 c 0.001,-0.108 -0.067,-0.206 -0.168,-0.244 -0.038,-0.015 -0.077,-0.019 -0.113,-0.016 m -69.9821102,-8.089404 10.0320002,-18.851 5.963,5.666 z m 9.9420002,-19.536 c -0.008,0 -0.014,0.003 -0.021,0.003 -0.08,0.012 -0.15,0.062 -0.189,0.135 l -10.8100002,20.312 c -0.059,0.111 -0.032,0.247 0.064,0.325 0.097,0.078 0.236,0.079 0.331,0 l 17.2360002,-14.208 c 0.057,-0.049 0.092,-0.118 0.096,-0.192 0.003,-0.075 -0.028,-0.148 -0.082,-0.199 l -6.424,-6.105 c -0.055,-0.051 -0.128,-0.078 -0.201,-0.071 m -10.4043876,20.594088 16.5699996,-13.661 -0.958,29.524 z m 16.8279996,-14.489 c -0.051,0.004 -0.102,0.024 -0.145,0.059 l -17.2349996,14.208 c -0.056,0.047 -0.091,0.115 -0.094,0.188 -0.005,0.073 0.023,0.144 0.074,0.196 l 16.2399996,16.501 c 0.073,0.075 0.185,0.098 0.281,0.06 0.097,-0.037 0.163,-0.131 0.165,-0.234 l 0.998,-30.71 c 0.002,-0.102 -0.055,-0.197 -0.147,-0.242 -0.043,-0.021 -0.09,-0.03 -0.137,-0.026 M 0.33199371,-8.3026819 2.7049937,-41.955683 l 15.6500003,15.902 z M 2.4629937,-42.810683 c -0.022,0.002 -0.047,0.007 -0.069,0.015 -0.096,0.035 -0.163,0.124 -0.169,0.226 l -2.46199999,34.9190011 c -0.007,0.108 0.052,0.211 0.151,0.255 0.098,0.046 0.215,0.026 0.293,-0.051 L 18.906994,-25.864683 c 0.103,-0.101 0.105,-0.266 0.004,-0.369 l -16.2400003,-16.5 c -0.055,-0.056 -0.131,-0.083 -0.208,-0.077 m -2.63928032,34.300505 -19.93100038,-34.991001 22.3130004,1.198 z M -20.592287,-44.047179 c -0.081,0.006 -0.156,0.052 -0.2,0.123 -0.051,0.081 -0.052,0.184 -0.004,0.267 l 20.59300038,36.153001 c 0.057,0.101 0.17,0.148 0.284,0.127 0.113,-0.027 0.195,-0.122 0.203,-0.237 L 2.7447134,-42.532179 c 0.005,-0.07 -0.019,-0.139 -0.064,-0.191 -0.047,-0.052 -0.112,-0.084 -0.182,-0.087 l -23.0550004,-1.236 c -0.012,-10e-4 -0.023,-0.002 -0.036,-10e-4"
         inkscape:connector-curvature="0" />
    </g>
  </g>
</svg>
