<?xml version="1.0" encoding="UTF-8" standalone="no"?>
<!-- Created with Inkscape (http://www.inkscape.org/) -->

<svg
   xmlns:dc="http://purl.org/dc/elements/1.1/"
   xmlns:cc="http://creativecommons.org/ns#"
   xmlns:rdf="http://www.w3.org/1999/02/22-rdf-syntax-ns#"
   xmlns:svg="http://www.w3.org/2000/svg"
   xmlns="http://www.w3.org/2000/svg"
   xmlns:sodipodi="http://sodipodi.sourceforge.net/DTD/sodipodi-0.dtd"
   xmlns:inkscape="http://www.inkscape.org/namespaces/inkscape"
   width="14.417mm"
   height="11.541mm"
   viewBox="0 0 14.416999 11.540999"
   version="1.1"
   id="svg4723"
   inkscape:version="0.92.1 r15371"
   sodipodi:docname="logoEcaminharm.svg">
  <defs
     id="defs4717" />
  <sodipodi:namedview
     id="base"
     pagecolor="#ffffff"
     bordercolor="#666666"
     borderopacity="1.0"
     inkscape:pageopacity="0.0"
     inkscape:pageshadow="2"
     inkscape:zoom="1.979899"
     inkscape:cx="-64.049026"
     inkscape:cy="34.833463"
     inkscape:document-units="mm"
     inkscape:current-layer="layer1"
     showgrid="false"
     inkscape:window-width="1024"
     inkscape:window-height="739"
     inkscape:window-x="1366"
     inkscape:window-y="0"
     inkscape:window-maximized="1" />
  <metadata
     id="metadata4720">
    <rdf:RDF>
      <cc:Work
         rdf:about="">
        <dc:format>image/svg+xml</dc:format>
        <dc:type
           rdf:resource="http://purl.org/dc/dcmitype/StillImage" />
        <dc:title></dc:title>
      </cc:Work>
    </rdf:RDF>
  </metadata>
  <g
     inkscape:label="Camada 1"
     inkscape:groupmode="layer"
     id="layer1"
     transform="translate(0,-285.459)">
    <path
       style="fill:#331709;fill-opacity:1;stroke-width:0.00828227"
       d="m 6.9526858,296.77175 c 0.0209,-1.02306 0.27907,-1.9244 0.73879,-2.57843 0.56041,-0.79738 1.43652,-1.29052 2.5760102,-1.44976 0.23054,-0.0317 0.55269,-0.0565 0.74923,-0.0566 l 0.0937,-10e-5 0.003,-0.57421 c 0.003,-0.56736 0.003,-0.5747 0.0219,-0.60868 0.0607,-0.10709 0.21992,-0.15376 0.35185,-0.10333 0.0389,0.0156 0.2612,0.17306 0.96727,0.68803 0.50425,0.36786 1.13549,0.82796 1.40275,1.02242 0.26725,0.19438 0.49904,0.36875 0.51509,0.38742 0.0593,0.0687 0.0593,0.16371 0,0.23161 -0.0417,0.0483 -2.83226,2.09522 -2.88969,2.12004 -0.0386,0.0169 -0.0575,0.0192 -0.11919,0.0192 -0.0861,0 -0.12826,-0.0152 -0.18148,-0.0628 -0.0704,-0.0638 -0.0658,-0.017 -0.0686,-0.68347 l -0.003,-0.59665 h -0.16247 c -0.57533,1.1e-4 -1.1583702,0.0333 -1.5148002,0.0867 -1.25181,0.18769 -1.89074,0.77762 -2.43398,2.24742 L 6.9478658,297 Z m -5.43179,-4.06312 c -0.40755,-0.0286 -0.81346002,-0.19264 -1.09044002,-0.44336 -0.2111,-0.19093 -0.34524,-0.41551 -0.40983,-0.68591 -0.0162,-0.0679 -0.0171,-0.17022 -0.0198999968,-2.43906 -0.002000003,-1.6846 7e-5,-2.39179 0.006999997,-2.45033 0.0439,-0.35788 0.25205,-0.6824 0.58226,-0.90779 0.26606,-0.18158 0.57410002,-0.28758 0.91683002,-0.31551 0.0723,-0.007 1.55096,-0.009 5.23053,-0.007 4.8167002,0.003 5.1344302,0.004 5.2076102,0.0164 0.27962,0.0464 0.51377,0.12901 0.71976,0.25401 0.0885,0.053 0.2427,0.17674 0.31205,0.249 0.16064,0.1674 0.27095,0.362 0.32684,0.57673 l 0.0212,0.0815 0.003,2.39794 c 0.002,1.74511 -1.1e-4,2.41674 -0.008,2.46731 -0.0107,0.0728 -0.059,0.23997 -0.072,0.2506 -0.006,0.006 -0.45609,-0.3189 -1.15175,-0.82863 -0.0888,-0.0642 -0.13678,-0.0921 -0.23082,-0.13007 -0.24842,-0.10026 -0.55669,-0.1243 -0.80879,-0.0634 -0.0434,0.0103 -0.0854,0.0188 -0.0934,0.0193 -0.0128,4.7e-4 -2.0538902,-1.69859 -2.0523302,-1.70868 2.9e-4,-0.003 0.76804,-0.49196 1.7060202,-1.08874 2.23524,-1.42186 2.14666,-1.3654 2.14201,-1.3654 -0.002,0 -1.3731,0.60302 -3.0464002,1.34012 l -3.04239,1.3401 -0.0374,-0.0156 c -0.0206,-0.01 -1.38242,-0.60726 -3.0263,-1.33135 -3.28846002,-1.44851 -3.03824002,-1.33875 -3.02555002,-1.32826 0.008,0.008 0.86452002,0.55225 3.35402002,2.13673 l 0.4935,0.31403 -0.15522,0.12788 c -0.12377,0.10186 -2.59251,2.17234 -2.94414,2.46914 -0.0485,0.0403 -0.0736,0.0651 -0.056,0.0551 0.0176,-0.01 0.882,-0.51488 1.92076,-1.12119 1.03878,-0.60635 1.90109,-1.11008 1.91626,-1.11937 l 0.0276,-0.0172 0.76386,0.41111 c 0.45052,0.24245 0.7683,0.40892 0.77466,0.40576 0.006,-0.003 0.34497,-0.18527 0.75342,-0.40515 0.40845,-0.21986 0.74945,-0.40129 0.75778,-0.40315 0.01,-0.003 0.46436,0.25797 1.23315,0.70532 0.6698902,0.38983 1.2251402,0.71382 1.2338902,0.72001 0.0148,0.0101 0.01,0.0168 -0.0649,0.0801 -0.15099,0.1289 -0.23416,0.25547 -0.28764,0.43771 -0.0168,0.0568 -0.0191,0.0952 -0.023,0.3676 l -0.004,0.304 -0.0473,0.006 c -0.0916,0.01 -0.3331402,0.0512 -0.4782002,0.0802 -0.50561,0.10459 -0.97097,0.27035 -1.39633,0.49739 l -0.13113,0.0702 -3.307,-0.002 c -1.81885,-6.2e-4 -3.3462,-0.005 -3.3941,-0.009 z"
       id="path16533"
       inkscape:connector-curvature="0" />
  </g>
</svg>
