<?xml version="1.0" encoding="UTF-8" standalone="no"?>
<!-- Created with Inkscape (http://www.inkscape.org/) -->

<svg
   xmlns:dc="http://purl.org/dc/elements/1.1/"
   xmlns:cc="http://creativecommons.org/ns#"
   xmlns:rdf="http://www.w3.org/1999/02/22-rdf-syntax-ns#"
   xmlns:svg="http://www.w3.org/2000/svg"
   xmlns="http://www.w3.org/2000/svg"
   xmlns:sodipodi="http://sodipodi.sourceforge.net/DTD/sodipodi-0.dtd"
   xmlns:inkscape="http://www.inkscape.org/namespaces/inkscape"
   width="13.891mm"
   height="11.532mm"
   viewBox="0 0 13.891 11.531999"
   version="1.1"
   id="svg4723"
   inkscape:version="0.92.1 r15371"
   sodipodi:docname="logoSalvar.svg">
  <defs
     id="defs4717" />
  <sodipodi:namedview
     id="base"
     pagecolor="#ffffff"
     bordercolor="#666666"
     borderopacity="1.0"
     inkscape:pageopacity="0.0"
     inkscape:pageshadow="2"
     inkscape:zoom="1.979899"
     inkscape:cx="25.602012"
     inkscape:cy="34.833463"
     inkscape:document-units="mm"
     inkscape:current-layer="layer1"
     showgrid="false"
     inkscape:window-width="1366"
     inkscape:window-height="739"
     inkscape:window-x="0"
     inkscape:window-y="0"
     inkscape:window-maximized="1" />
  <metadata
     id="metadata4720">
    <rdf:RDF>
      <cc:Work
         rdf:about="">
        <dc:format>image/svg+xml</dc:format>
        <dc:type
           rdf:resource="http://purl.org/dc/dcmitype/StillImage" />
        <dc:title></dc:title>
      </cc:Work>
    </rdf:RDF>
  </metadata>
  <g
     inkscape:label="Camada 1"
     inkscape:groupmode="layer"
     id="layer1"
     transform="translate(0,-285.468)">
    <path
       style="fill:#f6f4f4;fill-opacity:1;stroke-width:0.03310798"
       d="m 0.42263463,296.93169 c -0.16746,-0.074 -0.30492,-0.21874 -0.37469,-0.39583 -0.038,-0.0967 -0.0468,-0.90819 -0.04790000262,-4.41913 -8.8e-4,-2.69772 0.01130000262,-4.34203 0.03250000262,-4.41119 0.0463,-0.15055 0.22108,-0.33454 0.39526,-0.41594 0.10123,-0.0475 0.23041,-0.0721 0.43149,-0.0818 l 0.28700997,-0.0145 1.3e-4,-0.68137 c 2.6e-4,-0.73808 0.0238,-0.88063 0.16224,-0.97923 0.0899,-0.064 0.11345,-0.0642 4.09613,-0.0642 3.64696,0 4.01291,0.005 4.08665,0.0517 0.15803,0.10025 0.17801,0.2093 0.17801,0.97165 v 0.70995 h 0.21072 c 0.3018304,0 0.4947304,0.0528 0.6616904,0.18267 0.23444,0.18174 0.27396,0.29706 0.27485,0.80195 l 8.7e-4,0.43325 h 0.47077 c 0.5146,0 0.65049,0.0296 0.8283,0.18284 0.12911,0.11099 0.23164,0.29448 0.23164,0.41456 v 0.096 l 0.47834,7.9e-4 c 0.3891,3.9e-4 0.5043,0.0116 0.6175,0.0586 0.15686,0.0648 0.31281,0.19652 0.38649,0.32557 0.12457,0.21818 0.12678,0.20688 -0.69636,3.5697 -0.43265,1.76753 -0.81173,3.26561 -0.84241,3.32909 -0.0307,0.0636 -0.10489,0.15851 -0.16491,0.21109 -0.23691,0.20768 0.2016,0.19354 -5.9612204,0.19187 l -5.59338997,-0.002 z m 0.72369997,-4.83238 v -4.20802 l -0.18263997,0.01 -0.18264,0.01 -0.009,4.19851 -0.009,4.19854 h 0.19146 0.19146997 z m 0.76391,2.69059 c 1.35742,-5.61739 1.23964,-5.22003 1.59753,-5.38938 0.18457,-0.0868 0.19142,-0.0876 0.84309,-0.0876 h 0.65702 v 1.49666 1.49665 l -0.53053,10e-5 c -0.46448,1.1e-4 -0.54437,0.009 -0.6417,0.0619 -0.14216,0.0782 -0.21474,0.26886 -0.15354,0.40271 0.0225,0.0495 0.68008,0.66822 1.46128,1.37563 1.41255,1.27908 1.42126,1.28624 1.58459,1.3029 l 0.16424,0.0169 1.45819,-1.31931 c 1.56084,-1.41221 1.5558,-1.40657 1.45636,-1.62401 -0.0851,-0.18618 -0.19456,-0.21606 -0.79155,-0.2162 l -0.53257,-10e-5 0.0107,-1.58329 c 0.0105,-1.55277 0.0122,-1.58575 0.0858,-1.70934 0.13496,-0.22658 0.39816,-0.39387 0.61956,-0.39387 h 0.0881 v -1.40213 -1.40211 h -3.87893 -3.87894 v 5.2199 c 0,2.87095 0.008,5.21281 0.0174,5.20409 0.01,-0.01 0.17329,-0.66078 0.3638,-1.44916 z m 0.94828,-6.06225 c -0.0921,-0.0585 -0.18149,-0.20492 -0.18149,-0.2974 0,-0.10676 0.0977,-0.24731 0.2076,-0.29882 0.0883,-0.041 0.42398,-0.0479 2.4955,-0.0478 2.31098,1.2e-4 2.39727,0.002 2.50461,0.0619 0.22132,0.12221 0.23098,0.41829 0.0186,0.56962 -0.0846,0.0606 -0.15364,0.0624 -2.52712,0.0624 -2.15491,0 -2.44923,-0.006 -2.51768,-0.0495 z m 0.019,-1.41802 c -0.10447,-0.0516 -0.20047,-0.19371 -0.20047,-0.29729 0,-0.0925 0.0894,-0.23897 0.18149,-0.29742 0.0684,-0.0431 0.36062,-0.0495 2.49628,-0.0493 2.30504,1.2e-4 2.42381,0.003 2.5259,0.0595 0.23372,0.12907 0.23594,0.44411 0.004,0.57217 -0.1074,0.0595 -0.19237,0.0617 -2.51158,0.0606 -2.05554,-7.8e-4 -2.4141,-0.009 -2.49565,-0.0481 z m 7.1747304,0.9473 v -0.36235 h -0.1913404 -0.19134 v 0.36235 0.36237 h 0.19134 0.1913404 z"
       id="path16535"
       inkscape:connector-curvature="0" />
  </g>
</svg>
