<?xml version="1.0" encoding="UTF-8" standalone="no"?>
<!-- Created with Inkscape (http://www.inkscape.org/) -->

<svg
   xmlns:dc="http://purl.org/dc/elements/1.1/"
   xmlns:cc="http://creativecommons.org/ns#"
   xmlns:rdf="http://www.w3.org/1999/02/22-rdf-syntax-ns#"
   xmlns:svg="http://www.w3.org/2000/svg"
   xmlns="http://www.w3.org/2000/svg"
   xmlns:sodipodi="http://sodipodi.sourceforge.net/DTD/sodipodi-0.dtd"
   xmlns:inkscape="http://www.inkscape.org/namespaces/inkscape"
   width="15.976mm"
   height="11.517mm"
   viewBox="0 0 15.976 11.517"
   version="1.1"
   id="svg4723"
   inkscape:version="0.92.1 r15371"
   sodipodi:docname="logoExtrair.svg">
  <defs
     id="defs4717" />
  <sodipodi:namedview
     id="base"
     pagecolor="#ffffff"
     bordercolor="#666666"
     borderopacity="1.0"
     inkscape:pageopacity="0.0"
     inkscape:pageshadow="2"
     inkscape:zoom="1.979899"
     inkscape:cx="25.602012"
     inkscape:cy="34.833463"
     inkscape:document-units="mm"
     inkscape:current-layer="layer1"
     showgrid="false"
     inkscape:window-width="1366"
     inkscape:window-height="739"
     inkscape:window-x="0"
     inkscape:window-y="0"
     inkscape:window-maximized="1" />
  <metadata
     id="metadata4720">
    <rdf:RDF>
      <cc:Work
         rdf:about="">
        <dc:format>image/svg+xml</dc:format>
        <dc:type
           rdf:resource="http://purl.org/dc/dcmitype/StillImage" />
        <dc:title></dc:title>
      </cc:Work>
    </rdf:RDF>
  </metadata>
  <g
     inkscape:label="Camada 1"
     inkscape:groupmode="layer"
     id="layer1"
     transform="translate(0,-285.483)">
    <path
       inkscape:connector-curvature="0"
       id="path16240"
       d="m 0.5745407,296.97327 c -0.186076,-0.0542 -0.338437,-0.16092 -0.439276,-0.30757 C -0.0067913,296.45921 3.0470362e-4,296.6937 3.7036163e-6,292.19417 -1.9029638e-4,289.05237 0.0072037,288.0105 0.0300837,287.93676 c 0.08751,-0.28128 0.336061,-0.49092 0.634472,-0.53518 0.199916,-0.0294 4.705069,-0.035 4.705069,-0.006 0,0.0106 -0.08306,0.0766 -0.184577,0.14715 -0.378829,0.26211 -1.043305,0.829 -1.382504,1.17942 l -0.143479,0.14827 h -1.037065 -1.037063 l 0.0065,3.32648 0.0065,3.32649 h 5.203703 5.2037013 l 0.007,-0.41322 c 0.0061,-0.3623 0.01254,-0.41683 0.05182,-0.44236 0.02465,-0.0164 0.230557,-0.17159 0.457594,-0.34575 0.802185,-0.61532 1.035007,-0.79109 1.058259,-0.79889 0.01413,-0.005 0.02351,0.56488 0.02351,1.42814 0,1.40823 -9e-4,1.43866 -0.0546,1.57135 -0.06925,0.17168 -0.20915,0.31284 -0.398171,0.40165 l -0.148156,0.0696 -6.1626153,0.005 c -4.906361,0.004 -6.183579,-0.002 -6.26544,-0.0257 z m 3.683495,-3.54257 c 0.09177,-1.07801 0.448336,-2.17598 0.980112,-3.01815 0.751963,-1.19086 1.875664,-1.99263 3.340658,-2.38352 0.502358,-0.13406 1.405529,-0.24921 1.9545813,-0.24921 h 0.155029 v -1.15231 c 0,-0.72679 0.0091,-1.14939 0.02458,-1.14442 0.01352,0.005 0.17033,0.1093 0.348471,0.23324 0.178142,0.12391 0.34853,0.24132 0.378639,0.26089 0.03012,0.0193 0.282599,0.19567 0.561085,0.39135 0.27849,0.19568 0.531754,0.3718 0.562813,0.39137 0.03106,0.0193 0.222999,0.15253 0.426528,0.29553 0.203533,0.14299 0.956916,0.66899 1.674181,1.16895 0.717269,0.49996 1.307299,0.91746 1.311183,0.9278 0.0073,0.0193 -0.06147,0.0713 -1.017114,0.76198 -0.316441,0.22875 -0.692465,0.50118 -0.835605,0.60539 -0.143144,0.1042 -0.422537,0.30685 -0.620875,0.45034 -0.19834,0.14349 -0.485017,0.35163 -0.63706,0.4625 -0.152044,0.11089 -0.31462,0.22829 -0.36128,0.26091 -0.08092,0.0565 -0.326025,0.23444 -0.898706,0.65226 -0.610881,0.44568 -0.871223,0.62854 -0.89486,0.62854 -0.01183,0 -0.02452,-0.58254 -0.02815,-1.29454 l -0.0066,-1.29454 -0.524206,0.002 c -0.2883133,0.002 -0.6450283,0.0129 -0.7927033,0.026 -0.716054,0.063 -0.855202,0.0796 -1.176265,0.1418 -1.306813,0.25258 -2.148266,0.78088 -3.098147,1.94499 -0.181749,0.22271 -0.681743,0.91645 -0.747893,1.03768 -0.07029,0.1288 -0.09551,0.0946 -0.07838,-0.10677 z"
       style="fill:#f6f4f4;fill-opacity:1;stroke-width:0.02462727" />
  </g>
</svg>
