<?xml version="1.0" encoding="UTF-8" standalone="no"?>
<!-- Created with Inkscape (http://www.inkscape.org/) -->

<svg
   xmlns:dc="http://purl.org/dc/elements/1.1/"
   xmlns:cc="http://creativecommons.org/ns#"
   xmlns:rdf="http://www.w3.org/1999/02/22-rdf-syntax-ns#"
   xmlns:svg="http://www.w3.org/2000/svg"
   xmlns="http://www.w3.org/2000/svg"
   xmlns:sodipodi="http://sodipodi.sourceforge.net/DTD/sodipodi-0.dtd"
   xmlns:inkscape="http://www.inkscape.org/namespaces/inkscape"
   width="11.951mm"
   height="14.399mm"
   viewBox="0 0 11.951 14.399"
   version="1.1"
   id="svg4694"
   inkscape:version="0.92.1 r15371"
   sodipodi:docname="logoPower.svg">
  <defs
     id="defs4688" />
  <sodipodi:namedview
     id="base"
     pagecolor="#ffffff"
     bordercolor="#666666"
     borderopacity="1.0"
     inkscape:pageopacity="0.0"
     inkscape:pageshadow="2"
     inkscape:zoom="0.7"
     inkscape:cx="274.67843"
     inkscape:cy="94.839046"
     inkscape:document-units="mm"
     inkscape:current-layer="layer1"
     showgrid="false"
     inkscape:window-width="1024"
     inkscape:window-height="739"
     inkscape:window-x="1366"
     inkscape:window-y="0"
     inkscape:window-maximized="1" />
  <metadata
     id="metadata4691">
    <rdf:RDF>
      <cc:Work
         rdf:about="">
        <dc:format>image/svg+xml</dc:format>
        <dc:type
           rdf:resource="http://purl.org/dc/dcmitype/StillImage" />
        <dc:title></dc:title>
      </cc:Work>
    </rdf:RDF>
  </metadata>
  <g
     inkscape:label="Camada 1"
     inkscape:groupmode="layer"
     id="layer1"
     transform="translate(0,-282.601)">
    <g
       id="g7421"
       transform="matrix(1.5489153,0,0,1.5489153,-231.86541,-60.086812)">
      <g
         transform="rotate(-180,152.77974,227.21377)"
         id="g7416">
        <g
           id="g7425"
           transform="translate(0.407865,-0.00111291)">
          <path
             inkscape:connector-curvature="0"
             id="path7405"
             d="m 151.59856,225.21167 a 3.8576249,3.8576249 0 0 0 -3.85771,3.85737 3.8576249,3.8576249 0 0 0 2.65584,3.66048 v -0.72235 a 3.2305552,3.1678484 0 0 1 -2.02849,-2.93813 3.2305552,3.1678484 0 0 1 3.23036,-3.1676 3.2305552,3.1678484 0 0 1 3.23071,3.1676 3.2305552,3.1678484 0 0 1 -1.94892,2.90417 v 0.72956 a 3.8576249,3.8576249 0 0 0 2.57592,-3.63373 3.8576249,3.8576249 0 0 0 -3.85771,-3.85737 z"
             style="fill:#f6f4f4;fill-opacity:1;stroke:none;stroke-width:0.28203318;stroke-miterlimit:4;stroke-dasharray:none;stroke-opacity:1"
             transform="translate(0,-1.3229391)" />
          <rect
             y="227.61726"
             x="151.19228"
             height="5.5673971"
             width="0.81257731"
             id="rect7411"
             style="fill:#f6f4f4;fill-opacity:1;stroke:none;stroke-width:0.87636387;stroke-miterlimit:4;stroke-dasharray:none;stroke-opacity:1" />
        </g>
      </g>
    </g>
  </g>
</svg>
