<?xml version="1.0" encoding="UTF-8" standalone="no"?>
<!-- Created with Inkscape (http://www.inkscape.org/) -->

<svg
   xmlns:dc="http://purl.org/dc/elements/1.1/"
   xmlns:cc="http://creativecommons.org/ns#"
   xmlns:rdf="http://www.w3.org/1999/02/22-rdf-syntax-ns#"
   xmlns:svg="http://www.w3.org/2000/svg"
   xmlns="http://www.w3.org/2000/svg"
   xmlns:sodipodi="http://sodipodi.sourceforge.net/DTD/sodipodi-0.dtd"
   xmlns:inkscape="http://www.inkscape.org/namespaces/inkscape"
   width="237.72701mm"
   height="187.556mm"
   viewBox="0 0 237.72702 187.55599"
   version="1.1"
   id="svg8"
   inkscape:version="0.92.1 r15371"
   sodipodi:docname="pLogoClasscau.svg">
  <defs
     id="defs2" />
  <sodipodi:namedview
     id="base"
     pagecolor="#ffffff"
     bordercolor="#666666"
     borderopacity="1.0"
     inkscape:pageopacity="0.0"
     inkscape:pageshadow="2"
     inkscape:zoom="0.175"
     inkscape:cx="1177.246"
     inkscape:cy="871.19946"
     inkscape:document-units="mm"
     inkscape:current-layer="layer1"
     showgrid="false"
     inkscape:window-width="1366"
     inkscape:window-height="739"
     inkscape:window-x="0"
     inkscape:window-y="0"
     inkscape:window-maximized="1"
     units="mm" />
  <metadata
     id="metadata5">
    <rdf:RDF>
      <cc:Work
         rdf:about="">
        <dc:format>image/svg+xml</dc:format>
        <dc:type
           rdf:resource="http://purl.org/dc/dcmitype/StillImage" />
        <dc:title></dc:title>
      </cc:Work>
    </rdf:RDF>
  </metadata>
  <g
     inkscape:label="Camada 1"
     inkscape:groupmode="layer"
     id="layer1"
     transform="translate(0,-109.44402)">
    <g
       id="g7227"
       transform="translate(0,-27.123063)" />
    <g
       id="g4831"
       transform="matrix(0.87014533,0,0,0.87014533,6.9484706e-7,38.566837)">
      <g
         transform="matrix(3.2724227,0,0,3.2724227,-365.88837,-281.9097)"
         id="g4809">
        <g
           id="g4804">
          <g
             id="g4800">
            <path
               inkscape:connector-curvature="0"
               d="m 137.46889,167.80941 c 20.85092,1.95753 35.02646,-0.76663 50.49398,-8.22236 m -3.30225,-3.88559 c -15.40594,2.5044 -25.90491,4.05039 -37.57502,5.19145 m -16.21678,10.25202 c 0.9225,0.35678 1.80501,0.68404 2.73651,1.0599 22.77135,9.18837 42.9142,1.48841 61.19469,-14.17712 m -38.5168,-8.10104 c 12.69878,-1.94299 24.02325,-1.3924 32.39563,2.41043 m -27.60349,-12.44487 c 11.45111,-0.4574 22.45941,3.67157 33.48477,12.37789 m -73.36694,18.29513 c 22.68299,-16.59292 32.76191,-29.79314 39.45054,-48.93057 m -5.08257,-0.41246 c -14.44264,20.04973 -21.88745,29.70455 -37.83495,47.57087 1.80087,3.09093 3.31009,0.89158 3.95819,2.19198 0.74623,1.49732 3.24397,0.63713 4.31056,0.22068 1.96789,-0.76837 3.43442,-1.48989 5.1343,-2.21235 22.59893,-9.60462 31.39738,-29.29246 33.24644,-53.29593 m -49.56803,51.14444 c 10.75661,-24.78498 25.63881,-44.99367 41.21584,-50.83998 m -38.2973,52.79116 c -1.20832,0.21396 -2.23559,0.18212 -2.91853,-1.95119 0,0 -2.45651,0.06 -2.22108,-1.83373 4.11126,-33.06742 19.05569,-49.86359 47.54824,-53.21229"
               style="fill:none;stroke:#f6f4f4;stroke-width:1.5259093;stroke-linecap:butt;stroke-linejoin:miter;stroke-miterlimit:4;stroke-dasharray:none;stroke-opacity:1"
               id="path6690" />
          </g>
        </g>
      </g>
    </g>
  </g>
</svg>
